<svg version="1.1" xmlns="http://www.w3.org/2000/svg" xmlns:xlink="http://www.w3.org/1999/xlink" x="0px" y="0px" width="3840px"
	 height="2160px" viewBox="0 0 3840 2160" enable-background="new 0 0 3840 2160" xml:space="preserve">
<g id="Layer_1">
	<g id="shop">
		<g>
			<rect x="1666.326" y="-48.779" fill="#FCCD51" width="1093.158" height="611.14"/>
			<rect x="1666.326" y="-48.779" fill="#E2B337" width="1093.158" height="52.71"/>
			<rect x="1625.5" y="523.896" fill="#E19A38" width="1187.436" height="38.466"/>
		</g>
		<g>
			<rect x="2039.028" y="442.397" fill="#E19A38" width="47.645" height="16.355"/>
			<rect x="2052.807" y="489.466" fill="#E19A38" width="47.645" height="16.357"/>
			<rect x="2405.062" y="469.226" fill="#E19A38" width="47.643" height="16.355"/>
			<rect x="2461.666" y="498.815" fill="#E19A38" width="47.643" height="16.355"/>
			<rect x="2507.979" y="464.081" fill="#E19A38" width="47.645" height="16.359"/>
			<rect x="2675.217" y="481.263" fill="#E19A38" width="47.645" height="16.357"/>
			<rect x="2388.011" y="368.784" fill="#E19A38" width="47.645" height="16.357"/>
			<rect x="2355.867" y="217.251" fill="#E19A38" width="47.642" height="16.361"/>
			<rect x="2421.229" y="87.535" fill="#E19A38" width="23.82" height="16.357"/>
			<rect x="1668.813" y="461.505" fill="#E19A38" width="47.643" height="16.357"/>
			<rect x="1688.901" y="325.164" fill="#E19A38" width="47.643" height="16.359"/>
			<rect x="1666.231" y="198.314" fill="#E19A38" width="47.643" height="16.354"/>
			<rect x="1666.687" y="218.402" fill="#E19A38" width="25.541" height="16.359"/>
			<rect x="1666.037" y="81.794" fill="#E19A38" width="25.542" height="16.359"/>
		</g>
		<g id="shop-entrance">
			<polygon fill="#B13F49" points="2370.985,-4.805 2145.558,-4.805 2145.558,480.589 2374.4,480.589 2374.4,-4.805 			"/>
			<rect x="2152.962" y="5.546" fill="#9F3947" width="214.034" height="471.386"/>
			<polygon fill="#851F2D" points="2350.531,13.159 2162.839,13.159 2162.839,298.187 2357.116,298.187 2357.116,13.159 			"/>
			<rect x="2169.426" y="20.467" fill="#AFD4C2" width="181.105" height="270.413"/>
			<g id="open-sign">
				<rect x="2302.232" y="20.467" fill="#67867E" width="6.037" height="81.304"/>
				<rect x="2212.503" y="20.467" fill="#67867E" width="6.04" height="81.304"/>
				<polygon fill="#D7F0FF" points="2308.271,83.959 2308.271,62.187 2211.683,62.187 2211.683,83.959 2200.296,83.959
					2200.296,101.771 2211.683,101.771 2308.271,101.771 2319.657,101.771 2319.657,83.959 				"/>
			</g>
			<path fill="#F9E786" d="M2161.465,327.112c0-9.078,6.633-16.44,14.818-16.44c8.183,0,14.814,7.365,14.814,16.44
				c0,9.086-6.634,16.446-14.814,16.446C2168.098,343.558,2161.465,336.195,2161.465,327.112z"/>
			<g>
				<path fill="#FFFFFF" d="M2317.597,128.264c-0.476,0.73-22.021-17.192-46.432-41.969c-24.374-24.737-44.784-43.844-44.116-44.816
					c0.475-0.729,22.024,17.192,46.432,41.969C2297.855,108.187,2318.265,127.293,2317.597,128.264z"/>
				<path fill="#FFFFFF" d="M2320.068,221.45c-0.586,0.8-25.711-21.17-55.838-49.354c-30.182-28.09-55.113-50.181-54.473-51.139
					c0.489-0.748,26.463,20.062,56.688,48.195C2296.592,197.35,2320.683,220.604,2320.068,221.45z"/>
				<path fill="#FFFFFF" d="M2278.085,206.833c-0.432,0.756-9.692-5.796-18.962-16.399c-9.148-10.601-16.266-19.316-15.612-20.145
					c0.604-0.773,8.977,6.903,18.075,17.455C2270.722,198.189,2278.723,205.825,2278.085,206.833z"/>
				<path fill="#FFFFFF" d="M2284.673,285.399c-0.461,0.658-24.29-18.331-51.221-45.237c-26.589-27.442-43.933-54.024-43.449-54.343
					c1.063-0.926,19.426,24.311,45.79,51.522C2262.548,264.064,2285.385,284.388,2284.673,285.399z"/>
			</g>
		</g>
		<g>
			<rect x="2136.77" y="475.103" fill="#D55D60" width="244.767" height="36.219"/>
			<rect x="2122.5" y="498.151" fill="#C85053" width="273.304" height="36.221"/>
			<rect x="2110.977" y="526.142" fill="#BB4346" width="296.354" height="36.22"/>
		</g>
		<g>
			<g>
				<polygon fill="#B13F49" points="2720.412,-4.51 2406.701,-4.51 2406.701,434.179 2728.446,434.179 2728.446,-4.51 				"/>
				<rect x="2419.492" y="13.917" fill="#B6D7DC" width="296.161" height="401.831"/>
				<polygon fill="#A4C5CF" points="2671.379,260.985 2671.379,106.422 2647.58,106.422 2647.58,163.48 2618.635,163.48
					2618.635,59.475 2553.669,59.475 2553.669,143.981 2529.229,143.981 2529.229,90.534 2500.925,90.534 2500.925,256.651
					2485.487,256.651 2485.487,144.703 2464.261,144.703 2464.261,205.371 2456.542,205.371 2456.542,263.873 2448.182,263.873
					2448.182,175.757 2419.492,175.757 2419.492,415.747 2715.653,415.747 2715.653,260.985 				"/>
			</g>
			<g>
				<polygon fill="#FFB130" points="2538.206,93.81 2550.128,115.39 2520.449,105.554 2525.802,116.21 2516.802,111.292
					2516.802,141.067 2495.88,119.761 2494.176,132.874 2490.53,121.399 2469.854,139.972 2473.742,112.932 2441.633,126.86
					2453.799,98.456 2429.227,78.788 2455.986,70.048 2445.646,58.436 2461.339,63.765 2456.714,34.809 2486.635,55.569
					2497.339,28.254 2510.234,50.926 2516.314,32.351 2518.018,49.834 2534.802,30.985 2534.802,67.864 2558.4,69.228 				"/>
				<path fill="#FFFFFF" d="M2491.345,58.204l-2.504,6.794c0,0-16.036-10.593-24.968-16.492c1.328,7.393,4.498,25.021,4.498,25.021
					s-1.626-0.509-2.887-0.901c0.306,0.329,1.125,1.211,1.125,1.211s-17.056,6.024-24.553,8.674
					c7.244,5.533,19.193,14.667,19.193,14.667s-4.815,11.904-7.645,18.892c9.017-4.167,27.704-12.801,27.704-12.801
					s-2.06,16.623-2.693,21.733c4.429-4.16,11.157-10.477,12.97-12.181c0.32-2.906,0.64-5.818,0.64-5.818s13.935,13.582,19.697,19.2
					c-0.146-7.66-0.496-25.56-0.496-25.56s18.656,0.444,26.371,2.798c-1.882-3.241-6.553-11.303-6.553-11.303
					s8.903-11.323,14.542-18.497c-5.735-0.19-16.891-0.562-16.891-0.562s-0.332-17.073-0.533-27.506
					c-3.364,3.95-15.116,17.733-15.116,17.733s-0.258-2.19-0.431-3.653c-0.771,2.516-1.571,5.156-1.571,5.156
					s-10.146-17.008-13.804-23.138C2494.515,49.611,2491.345,58.204,2491.345,58.204z"/>
			</g>
			<path fill="#FF6079" d="M2558.814,145.784c0,0-51.379,39.274-54.516,52.003c-3.135,12.73,40.524,61.753,40.524,61.753
				l23.153-15.709l-21.707-42.25l31.355-21.668l9.646,56.336l27.018-35.207C2614.293,201.037,2623.939,101.368,2558.814,145.784z"/>
			<path fill="#798DCD" d="M2594.193,121.952c0,0-27.98,9.024-35.379,23.832c0,0,21.547-5.776,26.691,0
				c5.146,5.779,8.523,46.047-5.467,61.753c-13.99,15.709-52.102,50.922-77.67,86.671c-25.565,35.75-82.877,121.54-82.877,121.54
				h296.161V177.744c0,0-30.395-7.884-34.037-23.29c-3.646-15.413-26.19-30.645-47.543-32.502
				C2634.073,121.952,2617.188,96.13,2594.193,121.952z"/>
			<path fill="#B89D44" d="M2583.578,57.311l-3.856,30.334l4.503,2.167v24.556h9.971v7.586c0,0,20.584-7.586,39.88,0l-0.002-16.253
				c0,0-14.147-36.471-18.009-40.807C2612.204,60.558,2594.189,45.396,2583.578,57.311z"/>
			<path fill="#726A62" d="M2640.504,76.087c0-7.224,1.93-23.11-4.502-23.11c-6.433,0-24.123-9.755-28.303-14.446
				c-4.18-4.692-11.898-10.472-18.009-3.609c-6.112,6.857-6.112,22.387-6.112,22.387h20.262v22.39l7.719-8.667
				c0,0,11.577,9.386,5.789,12.279c-5.789,2.888-9.971,7.583-9.971,7.583v14.806h26.694L2640.504,76.087z"/>
			<rect x="2598.051" y="349.82" fill="#B13F49" width="105.489" height="35.391"/>
			<rect x="2477.929" y="374.994" fill="#B13F49" width="105.49" height="8.41"/>
			<rect x="2477.929" y="361.128" fill="#B13F49" width="105.49" height="8.408"/>
			<rect x="2477.929" y="352.35" fill="#B13F49" width="105.49" height="4.201"/>
			<polygon fill="#B6D7DC" points="2649.992,138.745 2656.264,145.784 2647.58,148.493 2642.997,143.347 2632.624,143.347
				2653.852,183.703 2662.053,179.369 2656.745,173.411 2665.91,168.538 2674.596,178.286 2649.51,195.078 2619.117,138.745 			"/>
		</g>
	</g>
	<g id="comic-shop-window">
		<g id="window-frame">
			<polygon fill="#B13F49" points="2121.307,-4.509 1704.931,-4.509 1704.931,434.179 2131.97,434.179 2131.97,-4.509 			"/>
		</g>
		<g id="shop-interior_1_">
			<rect id="shop-interior" x="1721.907" y="11.9" fill="#EDF0D7" width="393.083" height="405.864"/>
		</g>
		<g id="bookshelf">
			<rect x="1795.76" y="196.765" fill="#DEC29F" width="245.382" height="221"/>
			<rect x="1804.981" y="209.408" fill="#C4A885" width="226.938" height="205"/>
			<rect id="top-shelf" x="1804.429" y="288.722" fill="#DEC29F" width="236.713" height="33.625"/>
		</g>
		<g id="comic-books">
			<rect x="1821.483" y="226.974" fill="#9749BD" width="55.961" height="79.115"/>
			<rect x="1890.952" y="226.974" fill="#E6BB44" width="57.891" height="79.115"/>
			<rect x="1961.385" y="226.974" fill="#E66068" width="54.031" height="79.115"/>
			<rect x="1890.952" y="341.791" fill="#EB5B65" width="57.891" height="72.363"/>
			<rect x="1961.385" y="341.791" fill="#FF931A" width="54.031" height="72.363"/>
			<rect x="1821.483" y="341.791" fill="#9BDF8C" width="55.961" height="72.363"/>
		</g>
		<rect id="sign" x="1770" y="11.9" fill="#D7F0FF" width="300" height="173"/>
	</g>
	<g id="bus" display="none">
		<g display="inline">
			<rect x="2343.373" y="323.191" fill="#6DE8F7" width="95.098" height="103.736"/>
			<path fill="#CB2A44" d="M2248.275,512.45h190.194v-85.521h-104.677C2286.561,426.927,2248.275,465.212,2248.275,512.45
				L2248.275,512.45z"/>
			<path fill="#FC0204" d="M2245.939,274.589l44.299-231.52c3.037-15.877,16.93-27.369,33.105-27.369h1115.859
				c61.293,0,110.982,49.691,110.982,110.986v147.9H2245.939V274.589z"/>
			<path fill="#FC0204" d="M3339.434,323.191h-900.963h-35.518c19.617,0,35.518,15.9,35.518,35.512v106.431
				c0,8.455-6.855,15.307-15.305,15.307H2284.84c-34.904,0-63.203,28.299-63.203,63.201v54.788h190.428v51.404h26.406h900.963
				V437.442c0-43.487,35.254-78.74,78.74-78.74h121.268c5.936,0,10.748-4.814,10.748-10.75v-24.762H3339.434z"/>
			<path fill="#000001" d="M2243.35,549.832h-31.293c-3.867,0-7.01,3.135-7.01,7.004v45.801c0,3.873,3.143,7.008,7.01,7.008h31.293
				c3.869,0,7.004-3.135,7.004-7.008v-45.801C2250.354,552.965,2247.219,549.832,2243.35,549.832z"/>
			<g>
				<path fill="#000001" d="M3267.967,638.15c0-50.053-40.578-90.624-90.627-90.624c-50.055,0-90.627,40.571-90.627,90.624
					c0,50.055,40.572,90.627,90.627,90.627C3227.389,728.777,3267.967,688.205,3267.967,638.15z"/>
				<path fill="#A00304" d="M3232.184,638.15c0-30.289-24.553-54.85-54.844-54.85s-54.85,24.561-54.85,54.85
					c0,30.293,24.559,54.852,54.85,54.852S3232.184,668.443,3232.184,638.15z"/>
				<path fill="#DC3843" d="M3217.057,638.15c0-21.939-17.781-39.723-39.717-39.723c-21.941,0-39.725,17.781-39.725,39.723
					c0,21.943,17.783,39.727,39.725,39.727C3199.275,677.877,3217.057,660.094,3217.057,638.15z"/>
				<path fill="#CB2A44" d="M3087.488,649.834c-0.492-3.836-0.775-7.725-0.775-11.684c0-50.053,40.572-90.624,90.627-90.624
					c50.049,0,90.627,40.571,90.627,90.624c0,1.723-0.061,3.434-0.152,5.145h21.518c0.08-1.711,0.135-3.422,0.135-5.145
					c0-61.92-50.203-112.124-112.125-112.124c-61.928,0-112.125,50.204-112.125,112.124c0,3.949,0.209,7.834,0.609,11.684H3087.488z
					"/>
			</g>
			<g>
				<path fill="#000001" d="M2431.609,638.15c0-50.053-40.574-90.624-90.629-90.624c-50.049,0-90.627,40.571-90.627,90.624
					c0,50.055,40.578,90.627,90.627,90.627C2391.035,728.777,2431.609,688.205,2431.609,638.15z"/>
				<path fill="#A00304" d="M2395.832,638.15c0-30.289-24.553-54.85-54.852-54.85c-30.291,0-54.846,24.561-54.846,54.85
					c0,30.293,24.555,54.852,54.846,54.852C2371.279,693.002,2395.832,668.443,2395.832,638.15z"/>
				<path fill="#DC3843" d="M2380.705,638.15c0-21.939-17.783-39.723-39.725-39.723c-21.936,0-39.719,17.781-39.719,39.723
					c0,21.943,17.783,39.727,39.719,39.727C2362.922,677.877,2380.705,660.094,2380.705,638.15z"/>
				<path fill="#CB2A44" d="M2239.629,649.834c6.033,0,10.781-4.969,10.732-10.99c0-0.236-0.008-0.471-0.008-0.691
					c0-50.053,40.58-90.624,90.627-90.624c50.055,0,90.629,40.571,90.629,90.624c0,1.723-0.059,3.434-0.154,5.145h21.521
					c0.078-1.711,0.129-3.422,0.129-5.145c0-61.92-50.195-112.124-112.125-112.124c-61.922,0-112.117,50.204-112.117,112.124
					c0,0.367,0,0.754,0.006,1.121C2228.926,645.139,2233.764,649.834,2239.629,649.834L2239.629,649.834z"/>
			</g>
			<path fill="#CB2A44" d="M3543.354,667.828H3267.79v-24.533h275.563c6.776,0,12.269,5.482,12.269,12.262l0,0
				C3555.621,662.33,3550.131,667.828,3543.354,667.828z"/>
			<path fill="#CB2A44" d="M2446.121,684.062h626.701c8.1,0,14.666-6.568,14.666-14.66v-19.568h-656.033v19.568
				C2431.455,677.494,2438.021,684.062,2446.121,684.062z"/>
			<rect x="2431.455" y="643.295" fill="#CC0205" width="21.521" height="6.539"/>
			<g>
				<rect x="3404.332" y="358.703" fill="#CD0206" width="21.029" height="284.592"/>
				<rect x="3529.629" y="358.703" fill="#CD0206" width="11.629" height="284.592"/>
				<rect x="3520.281" y="358.703" fill="#5B0205" width="9.348" height="284.592"/>
				<rect x="3425.361" y="358.703" fill="#A20305" width="94.92" height="284.592"/>
				<rect x="3425.361" y="604.627" fill="#5B0205" width="94.92" height="7.707"/>
				<rect x="3425.361" y="565.949" fill="#5B0205" width="94.92" height="7.709"/>
				<rect x="3425.361" y="527.288" fill="#5B0205" width="94.92" height="7.711"/>
				<rect x="3425.361" y="488.616" fill="#5B0205" width="94.92" height="7.711"/>
				<rect x="3425.361" y="449.952" fill="#5B0205" width="94.92" height="7.709"/>
				<rect x="3425.361" y="411.286" fill="#5B0205" width="94.92" height="7.709"/>
				<rect x="3425.361" y="372.616" fill="#5B0205" width="94.92" height="7.711"/>
				<path fill="#5B0205" d="M3404.332,358.703L3404.332,358.703v284.592h-64.898V423.601
					C3339.434,387.756,3368.488,358.703,3404.332,358.703z"/>
			</g>
			<g>
				<path fill="#6DE8F7" d="M3259.191,379.147h-162.93c-4.846,0-8.773,3.932-8.773,8.773v57.106c0,4.85,3.93,8.783,8.773,8.783
					h162.93c4.846,0,8.773-3.936,8.773-8.783V387.92C3267.967,383.079,3264.037,379.147,3259.191,379.147z"/>
				<path opacity="0.35" fill="#FFFFFF" enable-background="new    " d="M3259.191,453.812c4.846,0,8.773-3.936,8.773-8.783v-57.106
					c0-3.73-2.342-6.904-5.631-8.172l-116.293,74.063L3259.191,453.812L3259.191,453.812z"/>
			</g>
			<path fill="#CB2A44" d="M3284.846,573.658L3284.846,573.658c1.986,0,3.592-1.598,3.592-3.592V337.062
				c0-1.986-1.604-3.592-3.592-3.592l0,0c-1.984,0-3.592,1.604-3.592,3.592v233.004
				C3281.254,572.061,3282.861,573.658,3284.846,573.658z"/>
			<path fill="#CB2A44" d="M3267.967,358.703L3267.967,358.703c0-1.986-1.611-3.592-3.598-3.592H3091.08
				c-1.988,0-3.592,1.604-3.592,3.592l0,0c0,1.986,1.604,3.599,3.592,3.599h173.289
				C3266.355,362.299,3267.967,360.689,3267.967,358.703z"/>
			<g>
				<path fill="#CB2A44" d="M3510.613,189.087L3510.613,189.087c0-1.803-1.457-3.256-3.258-3.256h-92.23
					c-1.803,0-3.262,1.453-3.262,3.256l0,0c0,1.799,1.459,3.256,3.262,3.256h92.23
					C3509.156,192.339,3510.613,190.884,3510.613,189.087z"/>
				<path fill="#CB2A44" d="M3510.613,204.388L3510.613,204.388c0-1.797-1.457-3.262-3.258-3.262h-92.23
					c-1.803,0-3.262,1.465-3.262,3.262l0,0c0,1.799,1.459,3.258,3.262,3.258h92.23
					C3509.156,207.646,3510.613,206.187,3510.613,204.388z"/>
				<path fill="#CB2A44" d="M3510.613,219.693L3510.613,219.693c0-1.803-1.457-3.254-3.258-3.254h-92.23
					c-1.803,0-3.262,1.451-3.262,3.254l0,0c0,1.803,1.459,3.254,3.262,3.254h92.23
					C3509.156,222.947,3510.613,221.496,3510.613,219.693z"/>
			</g>
			<g>
				<path fill="#CB2A44" d="M2384.887,189.087L2384.887,189.087c0-1.803-1.457-3.256-3.258-3.256h-92.234
					c-1.801,0-3.258,1.453-3.258,3.256l0,0c0,1.799,1.457,3.256,3.258,3.256h92.234
					C2383.43,192.339,2384.887,190.884,2384.887,189.087z"/>
				<path fill="#CB2A44" d="M2384.887,204.388L2384.887,204.388c0-1.797-1.457-3.262-3.258-3.262h-92.234
					c-1.801,0-3.258,1.465-3.258,3.262l0,0c0,1.799,1.457,3.258,3.258,3.258h92.234
					C2383.43,207.646,2384.887,206.187,2384.887,204.388z"/>
				<path fill="#CB2A44" d="M2384.887,219.693L2384.887,219.693c0-1.803-1.457-3.254-3.258-3.254h-92.234
					c-1.801,0-3.258,1.451-3.258,3.254l0,0c0,1.803,1.457,3.254,3.258,3.254h92.234
					C2383.43,222.947,2384.887,221.496,2384.887,219.693z"/>
			</g>
			<g>
				<path fill="#6DE8F7" d="M3050.305,379.147h-162.924c-4.852,0-8.779,3.932-8.779,8.773v57.106c0,4.85,3.93,8.783,8.779,8.783
					h162.924c4.846,0,8.773-3.936,8.773-8.783V387.92C3059.078,383.079,3055.148,379.147,3050.305,379.147z"/>
				<path opacity="0.35" fill="#FFFFFF" enable-background="new    " d="M3050.305,453.812c4.846,0,8.773-3.936,8.773-8.783v-57.106
					c0-3.73-2.342-6.904-5.625-8.172l-116.301,74.063L3050.305,453.812L3050.305,453.812z"/>
			</g>
			<path fill="#CB2A44" d="M3075.965,573.658L3075.965,573.658c1.98,0,3.592-1.598,3.592-3.592V337.062
				c0-1.986-1.609-3.592-3.592-3.592l0,0c-1.986,0-3.598,1.604-3.598,3.592v233.004
				C3072.367,572.061,3073.979,573.658,3075.965,573.658z"/>
			<path fill="#CB2A44" d="M3059.078,358.703L3059.078,358.703c0-1.986-1.604-3.592-3.59-3.592h-173.293
				c-1.984,0-3.594,1.604-3.594,3.592l0,0c0,1.986,1.607,3.599,3.594,3.599h173.293
				C3057.475,362.299,3059.078,360.689,3059.078,358.703z"/>
			<g>
				<path fill="#6DE8F7" d="M2841.416,379.147h-162.924c-4.846,0-8.775,3.932-8.775,8.773v57.106c0,4.85,3.932,8.783,8.775,8.783
					h162.924c4.852,0,8.781-3.936,8.781-8.783V387.92C2850.197,383.079,2846.268,379.147,2841.416,379.147z"/>
				<path opacity="0.35" fill="#FFFFFF" enable-background="new    " d="M2841.416,453.812c4.852,0,8.781-3.936,8.781-8.783v-57.106
					c0-3.73-2.344-6.904-5.633-8.172l-116.293,74.063L2841.416,453.812L2841.416,453.812z"/>
			</g>
			<path fill="#CB2A44" d="M2867.076,638.15L2867.076,638.15c1.986,0,3.59-1.611,3.59-3.588v-297.5c0-1.986-1.604-3.592-3.59-3.592
				l0,0c-1.984,0-3.592,1.604-3.592,3.592v297.5C2863.484,636.539,2865.092,638.15,2867.076,638.15z"/>
			<path fill="#CB2A44" d="M2658.195,638.15L2658.195,638.15c1.979,0,3.59-1.611,3.59-3.588v-297.5c0-1.986-1.611-3.592-3.59-3.592
				l0,0c-1.986,0-3.602,1.604-3.602,3.592v297.5C2654.596,636.539,2656.209,638.15,2658.195,638.15z"/>
			<path fill="#CB2A44" d="M2449.305,589.316L2449.305,589.316c1.986,0,3.592-1.613,3.592-3.594V462.3
				c0-1.979-1.604-3.594-3.592-3.594l0,0c-1.984,0-3.59,1.613-3.59,3.594v123.425
				C2445.715,587.703,2447.318,589.316,2449.305,589.316z"/>
			<path fill="#CB2A44" d="M2850.197,358.703L2850.197,358.703c0-1.986-1.611-3.592-3.6-3.592h-173.291
				c-1.984,0-3.592,1.604-3.592,3.592l0,0c0,1.986,1.605,3.599,3.592,3.599H2846.6
				C2848.586,362.299,2850.197,360.689,2850.197,358.703z"/>
			<g>
				<path fill="#6DE8F7" d="M2632.533,379.147h-162.924c-4.852,0-8.781,3.932-8.781,8.773v57.106c0,4.85,3.932,8.783,8.781,8.783
					h162.924c4.846,0,8.775-3.936,8.775-8.783V387.92C2641.309,383.079,2637.379,379.147,2632.533,379.147z"/>
				<path opacity="0.35" fill="#FFFFFF" enable-background="new    " d="M2632.533,453.812c4.846,0,8.775-3.936,8.775-8.783v-57.106
					c0-3.73-2.344-6.904-5.629-8.172l-116.298,74.061H2632.533L2632.533,453.812z"/>
			</g>
			<g>
				<path fill="#6DE8F7" d="M3259.191,62.845h-162.93c-4.846,0-8.773,3.938-8.773,8.781v57.105c0,4.848,3.93,8.771,8.773,8.771
					h162.93c4.846,0,8.773-3.926,8.773-8.771V71.626C3267.967,66.783,3264.037,62.845,3259.191,62.845z"/>
				<path opacity="0.35" fill="#FFFFFF" enable-background="new    " d="M3259.191,137.507c4.846,0,8.773-3.928,8.773-8.773V71.628
					c0-3.738-2.342-6.898-5.631-8.176l-116.293,74.057L3259.191,137.507L3259.191,137.507z"/>
			</g>
			<g>
				<path fill="#6DE8F7" d="M3050.305,62.845h-162.924c-4.852,0-8.779,3.938-8.779,8.781v57.105c0,4.848,3.93,8.771,8.779,8.771
					h162.924c4.846,0,8.773-3.926,8.773-8.771V71.626C3059.078,66.783,3055.148,62.845,3050.305,62.845z"/>
				<path opacity="0.35" fill="#FFFFFF" enable-background="new    " d="M3050.305,137.507c4.846,0,8.773-3.928,8.773-8.773V71.628
					c0-3.738-2.342-6.898-5.625-8.176l-116.301,74.057L3050.305,137.507L3050.305,137.507z"/>
			</g>
			<g>
				<path fill="#6DE8F7" d="M3420.473,62.845H3314.66c-4.854,0-8.783,3.938-8.783,8.781v57.105c0,4.848,3.934,8.771,8.783,8.771
					h162.922c4.85,0,8.775-3.926,8.775-8.771l0,0C3486.357,92.349,3456.857,62.845,3420.473,62.845z"/>
				<path opacity="0.35" fill="#FFFFFF" enable-background="new    " d="M3460.443,76.375l-96.018,61.135h113.152
					c4.848,0,8.775-3.928,8.775-8.773C3486.357,107.376,3476.189,88.414,3460.443,76.375z"/>
			</g>
			<g>
				<path fill="#6DE8F7" d="M2841.416,62.845h-162.924c-4.846,0-8.775,3.938-8.775,8.781v57.105c0,4.848,3.932,8.771,8.775,8.771
					h162.924c4.852,0,8.781-3.926,8.781-8.771V71.626C2850.197,66.783,2846.268,62.845,2841.416,62.845z"/>
				<path opacity="0.35" fill="#FFFFFF" enable-background="new    " d="M2841.416,137.507c4.852,0,8.781-3.928,8.781-8.773V71.628
					c0-3.738-2.344-6.898-5.633-8.176l-116.293,74.057L2841.416,137.507L2841.416,137.507z"/>
			</g>
			<g>
				<path fill="#6DE8F7" d="M2632.533,62.845h-162.924c-4.852,0-8.781,3.938-8.781,8.781v57.105c0,4.848,3.932,8.771,8.781,8.771
					h162.924c4.846,0,8.775-3.926,8.775-8.771V71.626C2641.309,66.783,2637.379,62.845,2632.533,62.845z"/>
				<path opacity="0.35" fill="#FFFFFF" enable-background="new    " d="M2632.533,137.507c4.846,0,8.775-3.928,8.775-8.773V71.628
					c0-3.738-2.344-6.898-5.629-8.176l-116.299,74.057L2632.533,137.507L2632.533,137.507z"/>
			</g>
			<g>
				<path fill="#6DE8F7" d="M2423.645,62.845H2323.1c-4.777,0-8.893,3.383-9.818,8.066l-10.844,54.637
					c-1.229,6.191,3.508,11.959,9.822,11.959h111.385c4.854,0,8.781-3.928,8.781-8.773V71.628
					C2432.426,66.783,2428.496,62.845,2423.645,62.845z"/>
				<path opacity="0.35" fill="#FFFFFF" enable-background="new    " d="M2423.645,137.507c4.854,0,8.781-3.928,8.781-8.773V71.628
					c0-3.738-2.342-6.898-5.633-8.176L2310.5,137.507H2423.645z"/>
			</g>
			<path fill="#CB2A44" d="M2641.309,358.703L2641.309,358.703c0-1.986-1.604-3.592-3.592-3.592h-173.295
				c-1.979,0-3.594,1.604-3.594,3.592l0,0c0,1.986,1.613,3.599,3.594,3.599h173.295
				C2639.703,362.299,2641.309,360.689,2641.309,358.703z"/>
			<path fill="#CB2A44" d="M3059.078,554.82L3059.078,554.82c0-1.98-1.604-3.588-3.59-3.588h-173.293
				c-1.984,0-3.594,1.607-3.594,3.588l0,0c0,1.988,1.607,3.604,3.594,3.604h173.293
				C3057.475,558.424,3059.078,556.809,3059.078,554.82z"/>
			<path fill="#CB2A44" d="M2850.197,554.82L2850.197,554.82c0-1.98-1.611-3.588-3.6-3.588h-173.291
				c-1.984,0-3.592,1.607-3.592,3.588l0,0c0,1.988,1.605,3.604,3.592,3.604H2846.6
				C2848.586,558.424,2850.197,556.809,2850.197,554.82z"/>
			<path fill="#CB2A44" d="M2641.309,554.82L2641.309,554.82c0-1.98-1.604-3.588-3.592-3.588h-173.295
				c-1.979,0-3.594,1.607-3.594,3.588l0,0c0,1.988,1.613,3.604,3.594,3.604h173.295
				C2639.703,558.424,2641.309,556.809,2641.309,554.82z"/>
			<path fill="#CB2A44" d="M3543.182,274.589H2245.939c-13.418,0-24.305,10.885-24.305,24.299l0,0
				c0,13.418,10.887,24.305,24.305,24.305h1297.24c13.418,0,24.297-10.887,24.297-24.305l0,0
				C3567.477,285.472,3556.6,274.589,3543.182,274.589z"/>
			<path fill="#CB2A44" d="M3560.934,153.091H2259.492c-3.615,0-6.543,2.926-6.543,6.543l0,0c0,3.607,2.928,6.541,6.543,6.541
				h1301.441c3.613,0,6.543-2.934,6.543-6.541l0,0C3567.477,156.017,3564.549,153.091,3560.934,153.091z"/>
			<path fill="#F3F0E9" d="M3123.924,190.939H2610.23c-7.564,0-13.695,6.131-13.695,13.701v28.674
				c0,7.57,6.131,13.701,13.695,13.701h513.691c7.562,0,13.691-6.131,13.691-13.701V204.64
				C3137.615,197.07,3131.484,190.939,3123.924,190.939z"/>
			<rect x="2321.643" y="323.191" fill="#CB2A44" width="21.73" height="106.074"/>
			<polygon opacity="0.35" fill="#FFFFFF" enable-background="new    " points="2356.225,426.927 2438.471,426.927
				2438.471,360.203 			"/>
			<g>
				<path d="M2712.324,200.501c-1.998,0.812-3.812,1.219-5.439,1.219c-1.004,0-2.143-0.232-3.426-0.715
					c-1.285-0.479-2.258-0.719-2.908-0.719c-1.523,0-2.873,0.582-4.035,1.74c-1.162,1.162-1.738,2.51-1.738,4.033
					c0,1.367,0.65,2.49,1.953,3.369c0.674,0.504,1.012,0.947,1.012,1.314c0,0.609-0.4,1.354-1.193,2.244
					c-0.793,0.887-1.549,1.328-2.264,1.328c-0.818,0-1.562-0.545-2.23-1.654c-0.672-1.094-1.01-2.338-1.01-3.727
					c0-3.062,1.471-6.088,4.404-9.082c2.932-2.994,5.889-4.492,8.863-4.492c0.881,0,2.02,0.248,3.428,0.748
					c1.406,0.504,2.619,0.75,3.641,0.75c1.102,0,2.146-0.357,3.148-1.07c0.447-0.283,0.791-0.428,1.037-0.428
					c0.307,0,0.721,0.158,1.236,0.479c0.523,0.307,0.779,0.648,0.779,1.02c0,0.205-0.539,0.91-1.623,2.111
					c-1.629,1.773-2.768,3.713-3.398,5.822c-0.635,2.105-1.273,5.361-1.92,9.771c-0.645,4.398-1.355,8-2.146,10.775
					c-0.787,2.779-1.998,5.301-3.643,7.555c-1.643,2.25-3.57,3.936-5.793,5.059c-2.225,1.119-4.646,1.684-7.275,1.684
					c-3.127,0-5.638-0.717-7.541-2.152c-1.906-1.441-2.859-2.812-2.859-4.115c0-0.758,0.732-1.764,2.201-3.045
					c1.463-1.27,2.422-1.904,2.871-1.904c0.592,0,0.959,0.209,1.102,0.641c0.145,0.43,0.216,1.168,0.216,2.23
					c0,1.789,0.399,3.234,1.204,4.32c0.809,1.098,1.863,1.637,3.166,1.637c1.938,0,3.587-1.012,4.939-3.049
					c1.354-2.041,2.459-5.764,3.319-11.168c0.854-5.395,2.005-9.541,3.448-12.443
					C2705.303,207.697,2708.125,204.333,2712.324,200.501z"/>
				<path d="M2773.818,232.173c-4.836,4.914-9.779,7.373-14.832,7.373c-1.473,0-2.877-0.188-4.238-0.564
					c-1.354-0.379-3.008-1.021-4.949-1.916c-1.951-0.893-3.666-1.545-5.154-1.957c-2.754,3.02-5.236,4.527-7.459,4.527
					c-0.773,0-1.42-0.254-1.93-0.766c-0.51-0.51-0.762-1.131-0.762-1.871c0-1.541,0.754-2.9,2.271-4.072
					c1.521-1.178,3.664-1.988,6.439-2.432c1.162-1.594,1.904-3.148,2.23-4.66c0.324-1.525,0.584-4.021,0.764-7.516
					c0.35-7.17,2.27-12.791,5.77-16.861c3.49-4.062,7.291-6.098,11.387-6.098c2.812,0,5.121,0.895,6.926,2.68
					c1.809,1.781,2.703,4.059,2.703,6.824c0,3.205-0.945,6.008-2.842,8.412c-1.893,2.41-4.074,3.611-6.541,3.611
					c-1.285,0-2.293-0.355-3.023-1.055c-0.738-0.707-1.102-1.674-1.102-2.891c0-0.641,0.115-1.365,0.361-2.201
					c0.555,0.627,1.244,0.947,2.08,0.947c1.389,0,2.6-0.824,3.639-2.484c1.039-1.646,1.562-3.617,1.562-5.896
					c0-1.75-0.399-3.129-1.192-4.141c-0.793-1.014-1.881-1.518-3.271-1.518c-1.666,0-2.965,0.602-3.893,1.801
					c-0.928,1.205-1.574,2.646-1.937,4.318c-0.368,1.67-0.765,4.373-1.177,8.102c-0.412,3.73-1.104,7.039-2.078,9.92
					c-0.973,2.887-2.784,5.715-5.441,8.488c1.729-0.123,3.234-0.018,4.51,0.301c1.271,0.332,3.1,0.947,5.473,1.857
					c2.373,0.902,4.421,1.352,6.132,1.352c3.345,0,6.536-1.709,9.573-5.133L2773.818,232.173L2773.818,232.173z"/>
				<path d="M2801.242,232.173c-1.039,0.92-2.047,1.566-3.031,1.943c-0.977,0.375-1.752,0.568-2.316,0.568
					c-1.473,0-2.93-0.576-4.379-1.721c-2.934,4.447-6.297,6.67-10.086,6.67c-2.367,0-4.285-0.889-5.75-2.656
					c-1.469-1.771-2.199-4.133-2.199-7.068c0-4.641,1.648-8.639,4.947-11.971c3.303-3.332,7.252-4.994,11.838-4.994
					c1.729,0,3.002,0.186,3.811,0.566c0.805,0.373,1.297,0.814,1.479,1.326c0.185,0.506,0.277,1.152,0.277,1.928
					c0,3.812-1.047,8.488-3.125,14.037c1.041,0.951,2.135,1.432,3.271,1.432c1.363,0,3.121-1.193,5.264-3.576V232.173
					L2801.242,232.173z M2791.152,215.087c-0.309-0.123-0.744-0.184-1.316-0.184c-2.65,0-4.723,1.381-6.225,4.156
					c-1.498,2.766-2.242,6.012-2.242,9.721c0,2.062,0.324,3.66,0.977,4.805c0.653,1.146,1.559,1.709,2.721,1.709
					c1.449,0,3.02-1.336,4.709-4.004c-1.918-2.404-2.871-5-2.871-7.768C2786.902,220.265,2788.316,217.447,2791.152,215.087z"/>
				<path d="M2828.668,232.173c-0.941,0.818-1.887,1.396-2.848,1.74c-0.959,0.354-1.703,0.521-2.232,0.521
					c-1.486,0-2.951-0.57-4.4-1.715c-3.631,4.611-7.473,6.914-11.523,6.914c-2.121,0-3.781-0.73-4.969-2.186
					c-1.191-1.457-1.791-3.494-1.791-6.102c0-2.873,0.715-6.4,2.143-10.584l2.141-6.266l8.283-1.557l-3.678,11.033
					c-0.385,1.205-0.75,2.631-1.098,4.275c-0.346,1.654-0.516,2.846-0.516,3.559c0,1.092,0.289,2.014,0.871,2.768
					c0.578,0.736,1.287,1.111,2.123,1.111c1.961,0,4.07-1.672,6.332-5.01c-1.039-2.082-1.562-4.172-1.562-6.271
					c0-2.916,0.771-5.551,2.312-7.893c1.537-2.344,3.223-3.514,5.062-3.514c1.384,0,2.077,1.072,2.077,3.211
					c0,4.133-1.672,8.916-5.018,14.344c1.039,0.957,2.133,1.432,3.271,1.432c1.393,0,3.061-1.113,5.02-3.332V232.173
					L2828.668,232.173z"/>
				<path d="M2851.512,232.173c-2.588,2.557-4.912,4.436-6.973,5.643c-2.059,1.219-4.33,1.82-6.818,1.82
					c-2.771,0-5.006-0.889-6.709-2.656c-1.705-1.771-2.555-4.109-2.555-7.004c0-4.324,1.498-8.234,4.496-11.729
					c2.994-3.492,6.314-5.238,9.969-5.238c1.895,0,3.414,0.484,4.551,1.465c1.146,0.977,1.715,2.262,1.715,3.85
					c0,4.217-4.48,7.65-13.453,10.279c0.818,3.975,2.945,5.959,6.391,5.959c1.346,0,2.631-0.361,3.854-1.088
					c1.227-0.721,3.068-2.324,5.533-4.812V232.173L2851.512,232.173z M2835.486,226.517c5.223-1.469,7.83-4.174,7.83-8.135
					c0-1.955-0.717-2.936-2.143-2.936c-1.346,0-2.631,1.027-3.848,3.076C2836.104,220.572,2835.486,223.24,2835.486,226.517z"/>
				<path d="M2906.947,232.173c-4.834,4.914-9.775,7.373-14.832,7.373c-1.469,0-2.877-0.188-4.236-0.564
					c-1.354-0.379-3.008-1.021-4.949-1.916c-1.947-0.893-3.666-1.545-5.152-1.957c-2.755,3.02-5.238,4.527-7.457,4.527
					c-0.775,0-1.423-0.254-1.936-0.766c-0.508-0.51-0.762-1.131-0.762-1.871c0-1.541,0.756-2.9,2.275-4.072
					c1.52-1.178,3.666-1.988,6.438-2.432c1.162-1.594,1.906-3.148,2.232-4.66c0.322-1.525,0.582-4.021,0.762-7.516
					c0.35-7.17,2.268-12.791,5.768-16.861c3.494-4.062,7.293-6.098,11.391-6.098c2.811,0,5.123,0.895,6.924,2.68
					c1.807,1.781,2.705,4.059,2.705,6.824c0,3.205-0.945,6.008-2.842,8.412c-1.895,2.41-4.076,3.611-6.543,3.611
					c-1.285,0-2.293-0.355-3.025-1.055c-0.736-0.707-1.1-1.674-1.1-2.891c0-0.641,0.115-1.365,0.361-2.201
					c0.557,0.627,1.242,0.947,2.078,0.947c1.393,0,2.604-0.824,3.643-2.484c1.037-1.646,1.562-3.617,1.562-5.896
					c0-1.75-0.4-3.129-1.195-4.141c-0.793-1.014-1.881-1.518-3.27-1.518c-1.666,0-2.963,0.602-3.895,1.801
					c-0.928,1.205-1.572,2.646-1.938,4.318c-0.369,1.67-0.765,4.373-1.174,8.102c-0.412,3.73-1.107,7.039-2.078,9.92
					c-0.971,2.887-2.785,5.715-5.443,8.488c1.729-0.123,3.236-0.018,4.509,0.301c1.272,0.332,3.101,0.947,5.476,1.857
					c2.371,0.902,4.42,1.352,6.129,1.352c3.346,0,6.537-1.709,9.574-5.133L2906.947,232.173L2906.947,232.173z"/>
				<path d="M2934.373,232.173c-1.037,0.92-2.047,1.566-3.031,1.943c-0.979,0.375-1.754,0.568-2.316,0.568
					c-1.473,0-2.928-0.576-4.381-1.721c-2.934,4.447-6.297,6.67-10.086,6.67c-2.363,0-4.285-0.889-5.748-2.656
					c-1.469-1.771-2.201-4.133-2.201-7.068c0-4.641,1.648-8.639,4.951-11.971s7.248-4.994,11.836-4.994
					c1.729,0,3.002,0.186,3.809,0.566c0.805,0.373,1.297,0.814,1.48,1.326c0.186,0.506,0.275,1.152,0.275,1.928
					c0,3.812-1.045,8.488-3.125,14.037c1.041,0.951,2.137,1.432,3.273,1.432c1.363,0,3.123-1.193,5.264-3.576V232.173
					L2934.373,232.173z M2924.283,215.087c-0.311-0.123-0.744-0.184-1.316-0.184c-2.65,0-4.723,1.381-6.223,4.156
					c-1.502,2.766-2.246,6.012-2.246,9.721c0,2.062,0.326,3.66,0.979,4.805c0.653,1.146,1.557,1.709,2.719,1.709
					c1.449,0,3.02-1.336,4.711-4.004c-1.916-2.404-2.869-5-2.869-7.768C2920.035,220.265,2921.447,217.447,2924.283,215.087z"/>
				<path d="M2964.369,232.173c-4.705,4.977-8.744,7.463-12.107,7.463c-1.365,0-2.467-0.48-3.303-1.441
					c-0.838-0.951-1.254-2.238-1.254-3.85c0-2.176,0.896-5.51,2.691-9.996c0.961-2.406,1.438-3.938,1.438-4.588
					c0-0.652-0.258-0.979-0.771-0.979c-0.279,0-0.654,0.145-1.131,0.424c-0.422,0.289-0.928,0.689-1.494,1.195
					c-0.51,0.471-1.082,1.043-1.713,1.715c-0.549,0.57-1.139,1.223-1.771,1.963l-1.717,1.979c-0.75,0.922-1.225,1.889-1.402,2.91
					c-0.309,1.732-0.512,3.322-0.615,4.768c-0.061,1.078-0.092,2.545-0.092,4.377l-6.758,1.584
					c-0.223-2.746-0.332-4.795-0.332-6.143c0-3.283,0.383-6.391,1.145-9.328c0.763-2.936,1.992-6.234,3.684-9.906l7.467-1.434
					c-1.574,4.219-2.604,7.539-3.094,9.963c3.344-3.729,5.993-6.312,7.957-7.746c1.967-1.439,3.709-2.154,5.238-2.154
					c1.031,0,1.898,0.387,2.596,1.17c0.688,0.787,1.031,1.771,1.031,2.949c0,1.957-0.873,5.174-2.625,9.654
					c-1.207,3.082-1.803,5.082-1.803,6.002c0,1.229,0.498,1.838,1.502,1.838c1.488,0,3.902-1.967,7.23-5.9L2964.369,232.173
					L2964.369,232.173z"/>
				<path d="M2996.996,232.173c-2.932,2.914-5.17,4.893-6.709,5.926c-1.543,1.018-2.9,1.537-4.082,1.537
					c-1.451,0-2.596-0.701-3.445-2.105c-0.84-1.414-1.279-3.465-1.297-6.18c-1.672,2.715-3.492,4.766-5.459,6.18
					c-1.969,1.404-3.746,2.105-5.332,2.105c-1.734,0-3.266-0.82-4.588-2.461c-1.328-1.637-1.986-3.562-1.986-5.764
					c0-4.543,1.654-8.762,4.973-12.646c3.307-3.883,6.873-5.818,10.684-5.818c1.062,0,1.891,0.148,2.492,0.457
					c0.604,0.305,1.256,0.822,1.975,1.561l4.371-18.285c3.566-0.836,5.979-1.252,7.219-1.252c0.414,0,0.615,0.154,0.615,0.486
					c0,0.225-0.51,2.34-1.529,6.334c-4.07,15.977-6.104,25.617-6.104,28.92c0,0.775,0.158,1.396,0.482,1.863
					s0.758,0.703,1.285,0.703c1.297,0,3.449-1.686,6.438-5.074v3.516h-0.003V232.173z M2974.891,233.792
					c1.998,0,3.861-1.684,5.598-5.07c1.732-3.385,2.602-6.551,2.602-9.516c0-1.197-0.271-2.15-0.812-2.863
					c-0.541-0.715-1.248-1.07-2.127-1.07c-1.896,0-3.729,1.766-5.504,5.301c-1.771,3.537-2.656,6.732-2.656,9.588
					c0,1.117,0.256,2.012,0.771,2.662C2973.285,233.472,2973.992,233.792,2974.891,233.792z"/>
				<path d="M3024.422,232.173c-1.039,0.92-2.047,1.566-3.031,1.943c-0.979,0.375-1.754,0.568-2.316,0.568
					c-1.471,0-2.93-0.576-4.379-1.721c-2.936,4.447-6.299,6.67-10.084,6.67c-2.367,0-4.287-0.889-5.75-2.656
					c-1.471-1.771-2.201-4.133-2.201-7.068c0-4.641,1.646-8.639,4.947-11.971c3.305-3.332,7.25-4.994,11.84-4.994
					c1.729,0,3.002,0.186,3.807,0.566c0.807,0.373,1.297,0.814,1.482,1.326c0.184,0.506,0.275,1.152,0.275,1.928
					c0,3.812-1.047,8.488-3.125,14.037c1.039,0.951,2.135,1.432,3.271,1.432c1.365,0,3.125-1.193,5.264-3.576V232.173z
					 M3014.332,215.087c-0.309-0.123-0.744-0.184-1.316-0.184c-2.648,0-4.723,1.381-6.223,4.156c-1.5,2.766-2.246,6.012-2.246,9.721
					c0,2.062,0.326,3.66,0.979,4.805c0.648,1.146,1.555,1.709,2.719,1.709c1.449,0,3.02-1.336,4.709-4.004
					c-1.918-2.404-2.871-5-2.871-7.768C3010.082,220.265,3011.496,217.447,3014.332,215.087z"/>
				<path d="M3054.418,232.173c-4.703,4.977-8.744,7.463-12.107,7.463c-1.363,0-2.465-0.48-3.303-1.441
					c-0.836-0.951-1.254-2.238-1.254-3.85c0-2.176,0.898-5.51,2.693-9.996c0.959-2.406,1.438-3.938,1.438-4.588
					c0-0.652-0.258-0.979-0.771-0.979c-0.281,0-0.656,0.145-1.132,0.424c-0.423,0.289-0.929,0.689-1.493,1.195
					c-0.51,0.471-1.082,1.043-1.714,1.715c-0.55,0.57-1.142,1.223-1.771,1.963l-1.717,1.979c-0.752,0.922-1.225,1.889-1.402,2.91
					c-0.307,1.732-0.512,3.322-0.615,4.768c-0.061,1.078-0.092,2.545-0.092,4.377l-6.758,1.584
					c-0.221-2.746-0.332-4.795-0.332-6.143c0-3.283,0.381-6.391,1.145-9.328c0.764-2.936,1.992-6.234,3.684-9.906l7.465-1.434
					c-1.572,4.219-2.601,7.539-3.092,9.963c3.344-3.729,5.993-6.312,7.957-7.746c1.967-1.439,3.709-2.154,5.238-2.154
					c1.031,0,1.898,0.387,2.596,1.17c0.688,0.787,1.031,1.771,1.031,2.949c0,1.957-0.873,5.174-2.627,9.654
					c-1.202,3.082-1.801,5.082-1.801,6.002c0,1.229,0.498,1.838,1.502,1.838c1.488,0,3.904-1.967,7.23-5.9L3054.418,232.173
					L3054.418,232.173z"/>
			</g>
			<path d="M3068.684,225.037c1.42-2.545,4.162-4.531,7.33-5.031c3.168-0.627,6.562,0.299,9.174,1.998
				c2.369,1.646,4.152,2.24,6.789,2.209c2.504-0.035,5.221-0.613,8.051-1.473c-1.875,2.309-4.525,4.057-7.682,4.709
				c-3.049,0.834-7.066-0.479-9.174-2.352c-2.086-1.463-4.408-2.396-6.938-2.521
				C3073.719,222.539,3071.064,223.353,3068.684,225.037z"/>
			<path d="M2636.045,225.037c1.42-2.545,4.162-4.531,7.33-5.031c3.16-0.627,6.561,0.299,9.176,1.998
				c2.365,1.646,4.148,2.24,6.787,2.209c2.504-0.035,5.221-0.613,8.043-1.473c-1.869,2.309-4.52,4.057-7.676,4.709
				c-3.049,0.834-7.064-0.479-9.174-2.352c-2.082-1.463-4.414-2.396-6.938-2.521
				C2641.082,222.539,2638.424,223.353,2636.045,225.037z"/>
		</g>
	</g>
	<g id="roof">
		<g>
			<path fill="#E84E58" d="M2670.438-295.519h-902.437c0,0-42.945,104.689-141.93,148.667l593.146,49.037l593.15-49.037
				C2713.382-190.83,2670.438-295.519,2670.438-295.519z"/>
			<g>
				<path fill="#F39FA5" d="M2174.937-295.519h-117.374c-15.513,69.723-51.633,131.011-104.524,175.699l200.164,16.548
					C2161.39-167.378,2168.634-231.089,2174.937-295.519z"/>
				<path fill="#F39FA5" d="M1923.706-295.519h-155.704c0,0-42.945,104.689-141.93,148.667l144.644,11.959
					C1834.883-174.74,1889.265-229.227,1923.706-295.519z"/>
				<path fill="#F39FA5" d="M2487.377-295.519h-137.193c1.62,62.289,8.644,123.834,13.692,185.744l159.702-13.202
					C2503.358-178.384,2491.461-236.734,2487.377-295.519z"/>
				<path fill="#F39FA5" d="M2670.438-295.519h-79.875c14.468,60.28,46.104,114.645,89.035,159.645l132.771-10.978
					C2713.382-190.83,2670.438-295.519,2670.438-295.519z"/>
			</g>
		</g>
		<g>
			<rect x="1626.066" y="-146.852" fill="#CE343E" width="1186.303" height="98.073"/>
			<rect x="1626.066" y="-146.852" fill="#E84E58" width="166.018" height="98.073"/>
			<rect x="1978.39" y="-146.852" fill="#E84E58" width="177.945" height="98.073"/>
			<rect x="2360.554" y="-146.852" fill="#E84E58" width="156.449" height="98.073"/>
			<rect x="2665.092" y="-146.852" fill="#E84E58" width="147.276" height="98.073"/>
		</g>
	</g>
</g>
<g id="screens">
	<g id="_x33_20x480px-screen">
		<rect id="screen-one" x="1760.001" fill="none" stroke="#000000" stroke-miterlimit="10" width="319.998" height="480"/>
	</g>
</g>
</svg>
