<?xml version="1.0" encoding="utf-8"?>
<!-- Generator: Adobe Illustrator 16.0.0, SVG Export Plug-In . SVG Version: 6.00 Build 0)  -->
<!DOCTYPE svg PUBLIC "-//W3C//DTD SVG 1.1//EN" "http://www.w3.org/Graphics/SVG/1.1/DTD/svg11.dtd">
<svg version="1.1" id="Layer_1" xmlns="http://www.w3.org/2000/svg" xmlns:xlink="http://www.w3.org/1999/xlink" x="0px" y="0px"
	 width="1920px" height="671.209px" viewBox="-480 0 1920 671.209" enable-background="new -480 0 1920 671.209"
	 xml:space="preserve">
<g id="foreground">
	<path id="foreground-grass" fill="#569B44" stroke="#000000" stroke-width="0.25" d="M-480,671.209c106.652,0,693.305,0,799.959,0
		c106.65,0,261.297,0,367.948,0c106.653,0,645.439,0,752.093,0c0-17.812,0-43.637,0-61.449c0-17.809,0-50.049,0-67.854
		c0-17.812,0-73.694,0-91.502c-90.565,2.233-394.131-3.59-495.443,14.746C839.264,484.211,444.35,516.926,339.954,500
		C161.238,471.031-396.368,460.466-480,450.4c0,17.809,0,79.469,0,97.279c0,17.812,0,52.285,0,70.099
		C-480,635.586-480,653.396-480,671.209z"/>
	<g id="road">
		<rect id="road_1_" x="-480" y="582" fill="#919191" width="1920" height="89"/>
		<g>
			<g>
				<rect id="XMLID_24_" x="-480" y="582.27" fill="#C6C6C6" width="1920" height="8.008"/>
			</g>
		</g>
	</g>
	<g>
		<g>
			<path fill="#7D5A6C" d="M872.188,233.449c-72.104,0-130.551,52.455-130.551,117.165c0,64.702,58.446,117.159,130.551,117.159
				c72.101,0,130.552-52.457,130.552-117.159C1002.736,285.904,944.285,233.449,872.188,233.449z"/>
			<g>
				<rect x="867.165" y="319.667" fill="#402837" width="10.042" height="218.021"/>
			</g>
			<g>
				<polygon fill="#402837" points="820.286,373.646 868.635,417.042 875.736,410.668 827.383,367.273 				"/>
			</g>
			<g>
				<polygon fill="#402837" points="868.635,380.158 875.736,386.533 924.086,343.138 916.986,336.764 				"/>
			</g>
		</g>
		<g>
			<path fill="#D65742" d="M933.895,398.684c-32.942,0-59.647,23.961-59.647,53.527s26.705,53.535,59.647,53.535
				c32.944,0,59.649-23.969,59.649-53.535S966.839,398.684,933.895,398.684z"/>
			<g>
				<rect x="928.873" y="438.078" fill="#402837" width="10.041" height="99.609"/>
			</g>
			<g>
				<polygon fill="#402837" points="908.254,464.473 930.344,484.297 937.444,477.923 915.354,458.1 				"/>
			</g>
			<g>
				<polygon fill="#402837" points="930.344,463.986 937.444,470.359 959.535,450.526 952.436,444.162 				"/>
			</g>
		</g>
		<ellipse fill="#F79561" cx="957.929" cy="420.503" rx="5.382" ry="4.83"/>
		<ellipse fill="#F79561" cx="944.201" cy="414.306" rx="4.291" ry="3.853"/>
		<path fill="#B08099" d="M944.939,298.07c-4.043,0-7.318,2.938-7.318,6.564c0,3.632,3.275,6.575,7.318,6.575s7.32-2.94,7.32-6.575
			C952.263,301.008,948.982,298.07,944.939,298.07z"/>
		<path fill="#B08099" d="M920.539,302.294c-4.045,0-7.323,2.938-7.323,6.567s3.278,6.572,7.323,6.572
			c4.043,0,7.324-2.941,7.324-6.572S924.582,302.294,920.539,302.294z"/>
		<path fill="#B08099" d="M864.863,270.936c-4.045,0-7.319,2.944-7.319,6.568c0,3.631,3.274,6.575,7.319,6.575
			c4.043,0,7.322-2.944,7.322-6.575C872.188,273.88,868.906,270.936,864.863,270.936z"/>
	</g>
	<g>
		<g>
			<path fill="#A65851" d="M-36.409,336.425c45.295,0,82.013,32.954,82.013,73.604c0,40.65-36.717,73.605-82.013,73.605
				c-45.295,0-82.013-32.955-82.013-73.605C-118.422,369.379-81.704,336.425-36.409,336.425z"/>
			<g>
				<rect x="-41.429" y="392.442" fill="#402837" width="10.044" height="123.883"/>
			</g>
			<g>
				<polygon fill="#402837" points="-5.381,424.494 -32.858,449.149 -39.955,442.777 -12.484,418.122 				"/>
			</g>
			<g>
				<polygon fill="#402837" points="-32.858,425.438 -39.955,431.812 -67.432,407.154 -60.334,400.782 				"/>
			</g>
		</g>
		<g>
			<path fill="#7D5A6C" d="M111.253,212.084c72.104,0,130.548,52.456,130.548,117.166c0,64.701-58.444,117.158-130.548,117.158
				c-72.099,0-130.548-52.457-130.548-117.158C-19.295,264.54,39.154,212.084,111.253,212.084z"/>
			<g>
				<rect x="106.233" y="298.303" fill="#402837" width="10.041" height="218.022"/>
			</g>
			<g>
				<polygon fill="#402837" points="163.155,352.281 114.804,395.677 107.704,389.303 156.057,345.909 				"/>
			</g>
			<g>
				<polygon fill="#402837" points="114.804,358.794 107.704,365.168 59.354,321.771 66.453,315.4 				"/>
			</g>
		</g>
		<g>
			<path fill="#D65742" d="M49.545,377.32c32.945,0,59.648,23.961,59.648,53.522c0,29.566-26.703,53.536-59.648,53.536
				c-32.945,0-59.648-23.97-59.648-53.536C-10.103,401.281,16.601,377.32,49.545,377.32z"/>
			<g>
				<rect x="44.524" y="416.715" fill="#402837" width="10.041" height="99.61"/>
			</g>
			<g>
				<polygon fill="#402837" points="75.187,443.107 53.096,462.932 45.995,456.559 68.085,436.735 				"/>
			</g>
			<g>
				<polygon fill="#402837" points="53.096,442.622 45.995,448.995 23.903,429.163 31.004,422.798 				"/>
			</g>
		</g>
		<ellipse fill="#F79561" cx="25.511" cy="399.139" rx="5.381" ry="4.829"/>
		<ellipse fill="#F79561" cx="39.238" cy="392.942" rx="4.292" ry="3.853"/>
		<path fill="#B08099" d="M38.5,276.707c4.042,0,7.319,2.937,7.319,6.568c0,3.631-3.277,6.575-7.319,6.575
			c-4.043,0-7.324-2.944-7.324-6.575C31.177,279.643,34.458,276.707,38.5,276.707z"/>
		<path fill="#B08099" d="M62.9,280.93c4.047,0,7.324,2.937,7.324,6.568s-3.277,6.575-7.324,6.575c-4.042,0-7.324-2.944-7.324-6.575
			C55.577,283.867,58.858,280.93,62.9,280.93z"/>
		<path fill="#B08099" d="M118.578,249.572c4.042,0,7.319,2.945,7.319,6.568c0,3.631-3.277,6.575-7.319,6.575
			c-4.044,0-7.324-2.944-7.324-6.575C111.253,252.517,114.534,249.572,118.578,249.572z"/>
		<path fill="#D65742" d="M-63.881,359.22c4.046,0,7.323,2.943,7.323,6.575c0,3.63-3.277,6.573-7.323,6.573
			c-4.047,0-7.323-2.943-7.323-6.573C-71.204,362.163-67.929,359.22-63.881,359.22z"/>
		<path fill="#D65742" d="M-81.063,377.32c4.043,0,7.324,2.936,7.324,6.565s-3.281,6.573-7.324,6.573
			c-4.047,0-7.324-2.942-7.324-6.573S-85.11,377.32-81.063,377.32z"/>
	</g>
	<g id="streetlamp">
		<path d="M149.9,600.442c2.64,0,4.8-2.157,4.8-4.795V389.671c0-2.638-2.16-4.794-4.8-4.794s-4.798,2.156-4.798,4.794V595.65
			C145.102,598.285,147.26,600.442,149.9,600.442z"/>
		<path d="M145.209,600.442c3.127,0,6.254,0,9.381,0c1.06,0.001,1.92-0.858,1.92-1.918c0-23.968,0-47.932,0-71.896
			c0-1.062-0.852-1.75-1.91-1.605c-3.12,0.419-6.283,0.419-9.403,0c-1.058-0.145-1.909,0.546-1.909,1.605
			c0,23.964,0,47.928,0,71.896C143.29,599.585,144.148,600.442,145.209,600.442z"/>
		<ellipse id="XMLID_71_" fill="#F4F5D9" cx="150.853" cy="353.953" rx="26.281" ry="26.255"/>
		<path d="M145.907,390.627h7.986c1.855,0,3.36-1.502,3.36-3.354c0-1.854-1.504-3.355-3.36-3.355h-7.986
			c-1.855,0-3.359,1.502-3.359,3.355C142.548,389.125,144.051,390.627,145.907,390.627z"/>
		<path d="M143.901,385.832h11.998c1.854,0,3.359-1.502,3.359-3.355c0-1.853-1.504-3.354-3.359-3.354h-11.998
			c-1.855,0-3.358,1.504-3.358,3.354C140.543,384.33,142.046,385.832,143.901,385.832z"/>
		<path d="M161.524,601.891c-1.141-4.776-2.225-9.336-3.479-13.311c-0.036-0.109-0.21-0.428-0.267-0.553
			c-0.142-0.31-0.246-0.406-0.693-0.388c-0.821-0.016-1.229,0.188-1.229,0.188c-1.05,0.195-1.859,0.188-4.018,0.369
			c-1.74,0.146-2.725-0.025-4.769-0.086c-0.422-0.017-0.525-0.06-0.93-0.062c-0.199,0-0.576-0.065-0.989-0.088
			c-0.405-0.018-1.963-0.27-2.668-0.322c-0.225,0.246-0.261,0.183-0.409,0.535c-0.06,0.146-0.264,0.654-0.313,0.82
			c-0.953,3.242-2.984,8.811-3.508,13.563c-0.06,0.472,2.155,1.054,3.542,1.351c0.566,0.121,0.646-0.064,1.37,0
			c0.998,0.09,1.05,0.416,1.794,0.416c2.561,0,5.561,0.463,9.254,0c2.575-0.324,5.062-0.795,6.802-1.473L161.524,601.891z"/>
	</g>
</g>
</svg>
