<?xml version="1.0" encoding="utf-8"?>
<!-- Generator: Adobe Illustrator 16.0.0, SVG Export Plug-In . SVG Version: 6.00 Build 0)  -->
<!DOCTYPE svg PUBLIC "-//W3C//DTD SVG 1.1//EN" "http://www.w3.org/Graphics/SVG/1.1/DTD/svg11.dtd">
<svg version="1.1" id="Layer_1" xmlns="http://www.w3.org/2000/svg" xmlns:xlink="http://www.w3.org/1999/xlink" x="0px" y="0px"
	 width="960px" height="2364px" viewBox="0 0 960 2364" enable-background="new 0 0 960 2364" xml:space="preserve">
<g id="foreground_1_">
	<defs>
		<rect id="SVGID_1_" width="960" height="2364"/>
	</defs>
	<clipPath id="SVGID_2_">
		<use xlink:href="#SVGID_1_"  overflow="visible"/>
	</clipPath>
	<g clip-path="url(#SVGID_2_)">
		<path fill="none" stroke="#010101" d="M-0.5,672.5c107,0,213.804,0,320.458,0c106.651,0,261.297,0,367.949,0
			c106.653,0,165.594,0,271.594,0c0-18,0-43.928,0-61.74c0-17.809,0-50.049,0-67.856c0-17.812,0-53.693,0-71.502
			c-90,2.235-168.33,12.022-269.644,30.358c-105.293,19.062-245.852,15.535-350.247-1.391C160.895,471.4,83.5,481.467-0.5,471.4
			c0,17.809,0,59.469,0,77.28c0,17.812,0,52.285,0,70.097C-0.5,636.586-0.5,654.5-0.5,672.5z"/>
		<path id="foreground-grass" fill="#579B43" stroke="#010101" stroke-width="0.25" d="M0,671.209c106.652,0,213.305,0,319.959,0
			c106.65,0,261.297,0,367.948,0c106.653,0,165.312,0,271.965,0c0-17.812,0-43.637,0-61.449c0-17.809,0-50.049,0-67.856
			c0-17.812,0-53.693,0-71.502c-90.565,2.235-168.517,12.022-269.829,30.358c-105.293,19.062-245.693,15.535-350.089-1.391
			C161.238,470.4,83.632,480.467,0,470.4c0,17.809,0,59.469,0,77.28c0,17.812,0,52.285,0,70.097C0,635.586,0,653.396,0,671.209z"/>
		<g id="road">
			<rect id="road_1_" y="582" fill="#919191" width="960" height="89"/>
			<g>
				<g>
					<rect id="XMLID_24_" y="582.27" fill="#C7C6C6" width="959.87" height="8.006"/>
				</g>
			</g>
		</g>
		<g>
			<g>
				<path fill="#7E5B6D" d="M872.188,233.449c-72.104,0-130.551,52.455-130.551,117.165c0,64.702,58.446,117.159,130.551,117.159
					c72.099,0,130.55-52.457,130.55-117.159C1002.736,285.904,944.285,233.449,872.188,233.449z"/>
				<g>
					<rect x="867.165" y="319.667" fill="#402937" width="10.042" height="218.021"/>
				</g>
				<g>
					<polygon fill="#402937" points="820.286,373.646 868.635,417.042 875.736,410.668 827.383,367.273 					"/>
				</g>
				<g>
					<polygon fill="#402937" points="868.635,380.158 875.736,386.533 924.086,343.138 916.986,336.764 					"/>
				</g>
			</g>
			<g>
				<path fill="#D65843" d="M933.895,398.684c-32.944,0-59.649,23.961-59.649,53.527s26.705,53.535,59.649,53.535
					s59.649-23.969,59.649-53.535S966.839,398.684,933.895,398.684z"/>
				<g>
					<rect x="928.873" y="438.078" fill="#402937" width="10.041" height="99.609"/>
				</g>
				<g>
					<polygon fill="#402937" points="908.254,464.473 930.344,484.297 937.444,477.923 915.354,458.1 					"/>
				</g>
				<g>
					<polygon fill="#402937" points="930.344,463.986 937.444,470.359 959.535,450.526 952.436,444.162 					"/>
				</g>
			</g>
			<ellipse fill="#F79562" cx="957.929" cy="420.503" rx="5.382" ry="4.83"/>
			<ellipse fill="#F79562" cx="944.201" cy="414.306" rx="4.291" ry="3.853"/>
			<path fill="#B08099" d="M944.939,298.07c-4.043,0-7.318,2.938-7.318,6.566c0,3.632,3.275,6.575,7.318,6.575
				s7.322-2.942,7.322-6.575C952.263,301.008,948.982,298.07,944.939,298.07z"/>
			<path fill="#B08099" d="M920.539,302.294c-4.045,0-7.323,2.938-7.323,6.567s3.278,6.574,7.323,6.574
				c4.043,0,7.324-2.943,7.324-6.574S924.582,302.294,920.539,302.294z"/>
			<path fill="#B08099" d="M864.863,270.936c-4.045,0-7.319,2.944-7.319,6.568c0,3.631,3.274,6.575,7.319,6.575
				c4.043,0,7.322-2.944,7.322-6.575C872.188,273.88,868.906,270.936,864.863,270.936z"/>
		</g>
		<g>
			<g>
				<path fill="#A75952" d="M-36.409,336.425c45.295,0,82.013,32.954,82.013,73.602c0,40.652-36.717,73.607-82.013,73.607
					c-45.295,0-82.013-32.955-82.013-73.607C-118.422,369.379-81.704,336.425-36.409,336.425z"/>
				<g>
					<rect x="-41.429" y="392.442" fill="#402937" width="10.044" height="123.883"/>
				</g>
				<g>
					<polygon fill="#402937" points="-5.381,424.494 -32.858,449.149 -39.955,442.777 -12.484,418.122 					"/>
				</g>
				<g>
					<polygon fill="#402937" points="-32.858,425.438 -39.955,431.812 -67.432,407.154 -60.334,400.782 					"/>
				</g>
			</g>
			<g>
				<path fill="#7E5B6D" d="M111.253,212.084c72.104,0,130.548,52.456,130.548,117.166c0,64.701-58.444,117.158-130.548,117.158
					c-72.099,0-130.548-52.457-130.548-117.158C-19.295,264.54,39.154,212.084,111.253,212.084z"/>
				<g>
					<rect x="106.233" y="298.303" fill="#402937" width="10.041" height="218.022"/>
				</g>
				<g>
					<polygon fill="#402937" points="163.155,352.281 114.804,395.677 107.704,389.303 156.057,345.909 					"/>
				</g>
				<g>
					<polygon fill="#402937" points="114.804,358.794 107.704,365.168 59.354,321.771 66.453,315.4 					"/>
				</g>
			</g>
			<g>
				<path fill="#D65843" d="M49.545,377.32c32.945,0,59.648,23.961,59.648,53.524c0,29.566-26.703,53.536-59.648,53.536
					c-32.945,0-59.648-23.97-59.648-53.536C-10.103,401.281,16.601,377.32,49.545,377.32z"/>
				<g>
					<rect x="44.524" y="416.715" fill="#402937" width="10.041" height="99.61"/>
				</g>
				<g>
					<polygon fill="#402937" points="75.187,443.107 53.096,462.932 45.995,456.559 68.085,436.735 					"/>
				</g>
				<g>
					<polygon fill="#402937" points="53.096,442.622 45.995,448.995 23.903,429.163 31.004,422.798 					"/>
				</g>
			</g>
			<ellipse fill="#F79562" cx="25.511" cy="399.139" rx="5.381" ry="4.829"/>
			<ellipse fill="#F79562" cx="39.238" cy="392.942" rx="4.292" ry="3.853"/>
			<path fill="#B08099" d="M38.5,276.707c4.042,0,7.319,2.937,7.319,6.568c0,3.631-3.277,6.575-7.319,6.575
				c-4.043,0-7.324-2.944-7.324-6.575C31.177,279.643,34.458,276.707,38.5,276.707z"/>
			<path fill="#B08099" d="M62.9,280.93c4.047,0,7.324,2.937,7.324,6.568s-3.277,6.575-7.324,6.575
				c-4.042,0-7.324-2.944-7.324-6.575C55.577,283.867,58.858,280.93,62.9,280.93z"/>
			<path fill="#B08099" d="M118.578,249.572c4.042,0,7.319,2.945,7.319,6.568c0,3.631-3.277,6.575-7.319,6.575
				c-4.044,0-7.324-2.944-7.324-6.575C111.253,252.517,114.534,249.572,118.578,249.572z"/>
			<path fill="#D65843" d="M-63.881,359.22c4.046,0,7.323,2.943,7.323,6.575c0,3.63-3.277,6.573-7.323,6.573
				c-4.047,0-7.323-2.943-7.323-6.573C-71.204,362.163-67.929,359.22-63.881,359.22z"/>
			<path fill="#D65843" d="M-81.063,377.32c4.043,0,7.324,2.936,7.324,6.567c0,3.631-3.281,6.573-7.324,6.573
				c-4.047,0-7.324-2.942-7.324-6.573C-88.387,380.256-85.11,377.32-81.063,377.32z"/>
		</g>
		<g id="streetlamp">
			<path fill="#010101" d="M149.9,600.442c2.64,0,4.8-2.157,4.8-4.795V389.671c0-2.638-2.16-4.794-4.8-4.794
				s-4.798,2.156-4.798,4.794v205.978C145.102,598.285,147.26,600.442,149.9,600.442z"/>
			<path fill="#010101" d="M145.209,600.442c3.127,0,6.254,0,9.381,0c1.06,0.001,1.92-0.858,1.92-1.918c0-23.966,0-47.93,0-71.894
				c0-1.062-0.852-1.75-1.91-1.607c-3.12,0.419-6.283,0.419-9.403,0c-1.058-0.143-1.909,0.546-1.909,1.607
				c0,23.964,0,47.928,0,71.894C143.29,599.585,144.148,600.442,145.209,600.442z"/>
			<ellipse id="XMLID_71_" fill="#F4F6DA" cx="150.853" cy="353.953" rx="26.281" ry="26.255"/>
			<path fill="#010101" d="M145.907,390.627h7.986c1.855,0,3.36-1.502,3.36-3.354c0-1.854-1.504-3.355-3.36-3.355h-7.986
				c-1.855,0-3.359,1.502-3.359,3.355C142.548,389.125,144.051,390.627,145.907,390.627z"/>
			<path fill="#010101" d="M143.901,385.832h11.998c1.854,0,3.359-1.502,3.359-3.355c0-1.853-1.504-3.355-3.359-3.355h-11.998
				c-1.855,0-3.358,1.504-3.358,3.355C140.543,384.33,142.046,385.832,143.901,385.832z"/>
			<path fill="#010101" d="M161.524,601.891c-1.141-4.778-2.225-9.336-3.479-13.311c-0.036-0.109-0.21-0.428-0.267-0.553
				c-0.142-0.308-0.246-0.406-0.693-0.386c-0.821-0.016-1.229,0.188-1.229,0.188c-1.05,0.195-1.859,0.188-4.018,0.369
				c-1.74,0.146-2.725-0.025-4.769-0.086c-0.422-0.015-0.525-0.058-0.93-0.062c-0.199,0-0.576-0.067-0.989-0.088
				c-0.405-0.018-1.963-0.27-2.668-0.322c-0.225,0.246-0.261,0.181-0.409,0.535c-0.06,0.146-0.264,0.654-0.313,0.82
				c-0.953,3.242-2.984,8.811-3.508,13.565c-0.06,0.47,2.155,1.052,3.542,1.349c0.566,0.121,0.646-0.064,1.37,0
				c0.998,0.09,1.05,0.416,1.794,0.416c2.561,0,5.561,0.463,9.254,0c2.575-0.324,5.062-0.795,6.802-1.471L161.524,601.891z"/>
		</g>
		<g>
			<path fill="#6D6C6D" d="M223.7,610.436c-1.703,0-3.097-1.39-3.097-3.092V501.541c0-1.702,1.395-3.095,3.097-3.095
				c1.703,0,3.097,1.393,3.097,3.095v105.803C226.797,609.046,225.403,610.436,223.7,610.436z"/>
			<path fill="#6D6C6D" d="M216.308,620.618c-1.484,0-2.688-1.201-2.688-2.686v-43.086c0-0.916,0.706-1.664,1.568-1.664h3.136
				c0.862,0,1.568,0.748,1.568,1.664v43.086c0,1.483-1.204,2.686-2.688,2.686H216.308z"/>
			<path fill="#6D6C6D" d="M339.728,610.436c1.703,0,3.096-1.39,3.096-3.092V501.541c0-1.702-1.394-3.095-3.096-3.095
				c-1.703,0-3.098,1.393-3.098,3.095v105.803C336.63,609.046,338.025,610.436,339.728,610.436z"/>
			<path fill="#6D6C6D" d="M346.895,620.618c-1.483,0-2.688-1.201-2.688-2.686v-43.086c0-0.916,0.706-1.664,1.567-1.664h3.137
				c0.862,0,1.568,0.748,1.568,1.664v43.086c0,1.483-1.203,2.686-2.688,2.686H346.895z"/>
			<g>
				<g>
					<g>
						<defs>
							<path id="SVGID_3_" d="M364.479,510.837H197.152c-2.805,0-5.08-1.947-5.08-4.348v-6.592c0-2.4,2.275-4.348,5.08-4.348
								h167.327c2.805,0,5.08,1.946,5.08,4.347v6.593C369.559,508.89,367.284,510.837,364.479,510.837z"/>
						</defs>
						<clipPath id="SVGID_4_">
							<use xlink:href="#SVGID_3_"  overflow="visible"/>
						</clipPath>
						<g clip-path="url(#SVGID_4_)">
							<g>
								<path id="XMLID_10_" fill="#A96830" d="M388.557,511.039c0.055-0.009,0.107-0.021,0.16-0.03
									c0.833-0.181,0.545-0.545,0.735-0.803c0.077-0.104,0.169-0.284,0.332-0.377c0.257-0.147,0.748-0.16,1.143-0.262
									c0.896-0.228,1.092-0.658,0.765-0.96c-0.375-0.347-1.401-0.457-2.542-0.602c-0.348-0.044-1.669-0.121-1.622-0.236
									c0.027-0.069,0.978-0.152,1.086-0.286c0.111-0.143-0.054-0.312-0.078-0.44c-0.026-0.141-0.097-0.32,0.16-0.442
									c0.424-0.204,0.915-0.278,1.102-0.515c0.204-0.253,0.087-0.445-0.569-0.656c0.657,0.021,1.734,0.087,2.179-0.089
									c0.242-0.097,0.342-0.221,0.436-0.332c0.192-0.226,0.209-0.467,0.041-0.693c-0.285-0.382,0.353-0.462,0.867-0.806
									c0.267-0.18,0.105-0.309-0.1-0.494c-0.221-0.199-5.351-0.109-5.965-0.107c-1.243,0.006-2.569-0.018-3.764-0.082
									c2.671-0.061,5.565-0.133,8.175-0.291c3.256-0.196,1.933-0.978,1.208-1.525c-0.223-0.167-0.164-0.348-0.164-0.524
									c-0.001-0.407-0.042-0.854-0.413-1.251c-0.069-0.072-1.316-0.788-1.809-0.688c0.839-0.17,0.793-0.175,0.793-0.475
									c0-0.238,0.103-0.494,0-0.731c-0.157-0.357-0.932-0.416-1.692-0.657c0.576-0.197,0.866-0.188,0.917-0.473
									c0.024-0.135,0.11-0.283-0.112-0.409c-0.206-0.114-0.736-0.156-0.726-0.294c-0.891-0.026-206.611-0.007-208.885-0.007
									c-0.369,0-0.812-0.019-1.175,0c-1.471,0.071-1.015,0.516-0.88,0.837c0.088,0.208-0.595,0.358-0.675,0.563
									c-0.046,0.116,0.195,0.201,0.255,0.309c0.085,0.15,1.027,0.44,0.959,0.587c-0.213,0.457,2.445,0.62,2.524,0.657
									c-1.21-0.124-3.155,0-3.783,0.286c-0.296,0.135-0.562,0.237-0.562,0.389c0.001,0.309,0.719,0.594,0.432,0.906
									c-0.239,0.264-0.888,0.508-0.993,0.787c-0.229,0.603,1.232,0.964,3.423,1.039c-1.53-0.054-3.163,0.038-4.616,0.146
									c-1.236,0.096-1.007,0.229-0.804,0.528c0.231,0.344-0.151,0.631,0.612,0.951c0.512,0.216,0.536,0.336,0.536,0.602
									c0,0.646-0.078,1.155,0.641,1.781c0.081,0.069,0.434,0.186,0.452,0.247c0.038,0.135-0.242,0.137-0.405,0.263
									c-0.938,0.729,3.345,0.73,4.831,0.868c-0.471-0.044-2.299,0.157-2.824,0.198c-0.763,0.059-1.769,0.106-1.979,0.312
									c-0.299,0.291,0.187,0.637,0.441,0.92c0.257,0.287,1.06,0.284,2.034,0.278c-0.626,0.021-1.184,0.168-1.224,0.328
									c-0.118,0.461-0.048,0.775,0,1.148c0.089,0.688,4.256,0.558,5.99,0.609C187.629,511.171,387.884,511.147,388.557,511.039z"
									/>
							</g>
						</g>
					</g>
					<g>
						<g>
							<defs>
								<path id="SVGID_5_" d="M364.479,528.48H197.152c-2.805,0-5.08-1.947-5.08-4.349v-6.592c0-2.401,2.275-4.347,5.08-4.347
									h167.327c2.805,0,5.08,1.944,5.08,4.347v6.592C369.559,526.533,367.284,528.48,364.479,528.48z"/>
							</defs>
							<clipPath id="SVGID_6_">
								<use xlink:href="#SVGID_5_"  overflow="visible"/>
							</clipPath>
							<g clip-path="url(#SVGID_6_)">
								<g>
									<path id="XMLID_50_" fill="#A96830" d="M388.557,528.682c0.055-0.008,0.107-0.019,0.16-0.028
										c0.833-0.18,0.545-0.544,0.735-0.803c0.077-0.105,0.169-0.283,0.332-0.378c0.257-0.146,0.748-0.159,1.143-0.261
										c0.896-0.228,1.092-0.659,0.765-0.961c-0.375-0.344-1.401-0.455-2.542-0.599c-0.348-0.045-1.669-0.122-1.622-0.239
										c0.027-0.068,0.978-0.151,1.086-0.287c0.111-0.138-0.054-0.31-0.078-0.438c-0.026-0.143-0.097-0.32,0.16-0.444
										c0.424-0.204,0.915-0.278,1.102-0.512c0.204-0.256,0.087-0.446-0.569-0.658c0.657,0.021,1.734,0.088,2.179-0.09
										c0.242-0.096,0.342-0.222,0.436-0.33c0.192-0.226,0.209-0.467,0.041-0.695c-0.285-0.379,0.353-0.459,0.867-0.805
										c0.267-0.182,0.105-0.31-0.1-0.494c-0.221-0.199-5.351-0.11-5.965-0.107c-1.243,0.005-2.569-0.018-3.764-0.082
										c2.671-0.06,5.565-0.134,8.175-0.292c3.256-0.195,1.933-0.977,1.208-1.525c-0.223-0.167-0.164-0.348-0.164-0.523
										c-0.001-0.408-0.042-0.853-0.413-1.251c-0.069-0.073-1.316-0.789-1.809-0.688c0.839-0.17,0.793-0.175,0.793-0.476
										c0-0.235,0.103-0.495,0-0.729c-0.157-0.357-0.932-0.416-1.692-0.655c0.576-0.202,0.866-0.192,0.917-0.477
										c0.024-0.133,0.11-0.281-0.112-0.407c-0.206-0.116-0.736-0.157-0.726-0.295c-0.891-0.026-206.611-0.007-208.885-0.007
										c-0.369,0-0.812-0.02-1.175,0c-1.471,0.071-1.015,0.516-0.88,0.836c0.088,0.209-0.595,0.359-0.675,0.566
										c-0.046,0.117,0.195,0.199,0.255,0.306c0.085,0.149,1.027,0.441,0.959,0.59c-0.213,0.455,2.445,0.618,2.524,0.656
										c-1.21-0.125-3.155,0-3.783,0.284c-0.296,0.136-0.562,0.239-0.562,0.391c0.001,0.309,0.719,0.592,0.432,0.906
										c-0.239,0.265-0.888,0.508-0.993,0.785c-0.229,0.604,1.232,0.964,3.423,1.04c-1.53-0.053-3.163,0.037-4.616,0.147
										c-1.236,0.094-1.007,0.228-0.804,0.527c0.231,0.344-0.151,0.63,0.612,0.951c0.512,0.216,0.536,0.338,0.536,0.602
										c0,0.647-0.078,1.155,0.641,1.781c0.081,0.07,0.434,0.186,0.452,0.248c0.038,0.136-0.242,0.138-0.405,0.263
										c-0.938,0.727,3.345,0.729,4.831,0.867c-0.471-0.042-2.299,0.156-2.824,0.196c-0.763,0.06-1.769,0.108-1.979,0.312
										c-0.299,0.294,0.187,0.637,0.441,0.921c0.257,0.287,1.06,0.284,2.034,0.277c-0.626,0.022-1.184,0.17-1.224,0.328
										c-0.118,0.463-0.048,0.774,0,1.148c0.089,0.688,4.256,0.558,5.99,0.609C187.629,528.812,387.884,528.79,388.557,528.682z"
										/>
								</g>
							</g>
						</g>
						<g id="bench-backrest">
							<g>
								<defs>
									<path id="SVGID_7_" d="M364.479,546.124H197.152c-2.805,0-5.08-1.944-5.08-4.346v-6.594c0-2.399,2.275-4.348,5.08-4.348
										h167.327c2.805,0,5.08,1.947,5.08,4.348v6.594C369.559,544.18,367.284,546.124,364.479,546.124z"/>
								</defs>
								<clipPath id="SVGID_8_">
									<use xlink:href="#SVGID_7_"  overflow="visible"/>
								</clipPath>
								<g clip-path="url(#SVGID_8_)">
									<g>
										<path id="XMLID_8_" fill="#A96830" d="M388.557,546.327c0.055-0.01,0.107-0.02,0.16-0.03
											c0.833-0.18,0.545-0.544,0.735-0.803c0.077-0.106,0.169-0.282,0.332-0.377c0.257-0.146,0.748-0.16,1.143-0.261
											c0.896-0.229,1.092-0.66,0.765-0.96c-0.375-0.347-1.401-0.457-2.542-0.603c-0.348-0.043-1.669-0.119-1.622-0.235
											c0.027-0.069,0.978-0.152,1.086-0.289c0.111-0.138-0.054-0.311-0.078-0.438c-0.026-0.142-0.097-0.322,0.16-0.444
											c0.424-0.205,0.915-0.277,1.102-0.513c0.204-0.256,0.087-0.445-0.569-0.656c0.657,0.021,1.734,0.086,2.179-0.09
											c0.242-0.095,0.342-0.221,0.436-0.331c0.192-0.227,0.209-0.468,0.041-0.692c-0.285-0.382,0.353-0.461,0.867-0.809
											c0.267-0.179,0.105-0.308-0.1-0.494c-0.221-0.198-5.351-0.108-5.965-0.105c-1.243,0.004-2.569-0.019-3.764-0.083
											c2.671-0.06,5.565-0.133,8.175-0.291c3.256-0.197,1.933-0.978,1.208-1.526c-0.223-0.167-0.164-0.348-0.164-0.522
											c-0.001-0.409-0.042-0.854-0.413-1.251c-0.069-0.073-1.316-0.787-1.809-0.689c0.839-0.169,0.793-0.172,0.793-0.475
											c0-0.237,0.103-0.493,0-0.729c-0.157-0.357-0.932-0.416-1.692-0.656c0.576-0.199,0.866-0.189,0.917-0.476
											c0.024-0.132,0.11-0.281-0.112-0.408c-0.206-0.116-0.736-0.156-0.726-0.293c-0.891-0.027-206.611-0.01-208.885-0.01
											c-0.369,0-0.812-0.018-1.175,0c-1.471,0.074-1.015,0.517-0.88,0.838c0.088,0.21-0.595,0.359-0.675,0.564
											c-0.046,0.117,0.195,0.2,0.255,0.309c0.085,0.15,1.027,0.44,0.959,0.588c-0.213,0.457,2.445,0.619,2.524,0.657
											c-1.21-0.125-3.155,0-3.783,0.284c-0.296,0.135-0.562,0.239-0.562,0.39c0.001,0.31,0.719,0.593,0.432,0.907
											c-0.239,0.263-0.888,0.507-0.993,0.787c-0.229,0.602,1.232,0.963,3.423,1.039c-1.53-0.054-3.163,0.035-4.616,0.146
											c-1.236,0.094-1.007,0.227-0.804,0.528c0.231,0.342-0.151,0.631,0.612,0.95c0.512,0.215,0.536,0.338,0.536,0.602
											c0,0.646-0.078,1.156,0.641,1.78c0.081,0.07,0.434,0.188,0.452,0.251c0.038,0.134-0.242,0.135-0.405,0.262
											c-0.938,0.725,3.345,0.729,4.831,0.867c-0.471-0.043-2.299,0.155-2.824,0.195c-0.763,0.061-1.769,0.108-1.979,0.313
											c-0.299,0.292,0.187,0.636,0.441,0.92c0.257,0.287,1.06,0.284,2.034,0.278c-0.626,0.021-1.184,0.169-1.224,0.327
											c-0.118,0.464-0.048,0.774,0,1.147c0.089,0.69,4.256,0.56,5.99,0.611C187.629,546.458,387.884,546.435,388.557,546.327z"
											/>
									</g>
								</g>
							</g>
						</g>
						<g>
							<g>
								<g>
									<defs>
										<path id="SVGID_9_" d="M365.974,572.434H197.719c-1.979,0-3.586-1.573-3.586-3.515v-1.799
											c0-1.941,1.606-3.517,3.586-3.517h168.254c1.979,0,3.585,1.574,3.585,3.517v1.799
											C369.559,570.859,367.953,572.434,365.974,572.434z"/>
									</defs>
									<clipPath id="SVGID_10_">
										<use xlink:href="#SVGID_9_"  overflow="visible"/>
									</clipPath>
									<g clip-path="url(#SVGID_10_)">
										<g>
											<path id="XMLID_22_" fill="#AC6B2F" d="M388.336,572.552c0.054-0.006,0.107-0.011,0.158-0.018
												c0.824-0.104,0.539-0.314,0.727-0.464c0.076-0.061,0.167-0.164,0.329-0.22c0.252-0.084,0.738-0.093,1.127-0.148
												c0.885-0.131,1.08-0.382,0.756-0.555c-0.372-0.199-1.385-0.265-2.512-0.349c-0.344-0.024-1.65-0.068-1.604-0.137
												c0.028-0.04,0.967-0.089,1.074-0.167c0.11-0.08-0.054-0.179-0.077-0.252c-0.026-0.082-0.096-0.187,0.158-0.257
												c0.419-0.117,0.904-0.161,1.09-0.297c0.201-0.147,0.086-0.258-0.563-0.38c0.649,0.013,1.714,0.05,2.153-0.052
												c0.241-0.055,0.338-0.128,0.431-0.189c0.191-0.132,0.208-0.271,0.04-0.402c-0.28-0.22,0.349-0.266,0.857-0.465
												c0.263-0.104,0.105-0.178-0.1-0.285c-0.217-0.116-5.288-0.064-5.895-0.063c-1.229,0.005-2.538-0.009-3.719-0.047
												c2.64-0.034,5.5-0.075,8.081-0.167c3.217-0.112,1.909-0.564,1.191-0.882c-0.218-0.097-0.161-0.2-0.161-0.302
												c0-0.237-0.042-0.493-0.407-0.725c-0.068-0.041-1.302-0.453-1.789-0.396c0.829-0.099,0.784-0.101,0.784-0.274
												c0-0.137,0.102-0.284,0-0.422c-0.154-0.207-0.92-0.241-1.672-0.379c0.569-0.115,0.856-0.109,0.907-0.274
												c0.023-0.077,0.108-0.162-0.111-0.233c-0.204-0.069-0.727-0.093-0.718-0.172c-0.879-0.015-204.211-0.004-206.459-0.004
												c-0.363,0-0.803-0.011-1.16,0c-1.455,0.042-1.003,0.298-0.87,0.482c0.086,0.12-0.588,0.208-0.669,0.326
												c-0.046,0.068,0.193,0.115,0.253,0.178c0.083,0.089,1.015,0.255,0.948,0.339c-0.212,0.267,2.417,0.358,2.495,0.382
												c-1.195-0.073-3.118,0-3.74,0.165c-0.292,0.077-0.555,0.137-0.554,0.225c0.002,0.178,0.711,0.342,0.428,0.521
												c-0.237,0.154-0.877,0.295-0.982,0.455c-0.227,0.349,1.217,0.557,3.384,0.601c-1.512-0.03-3.126,0.021-4.562,0.085
												c-1.222,0.055-0.996,0.133-0.795,0.306c0.229,0.198-0.149,0.364,0.606,0.549c0.505,0.125,0.53,0.195,0.53,0.348
												c0,0.376-0.077,0.669,0.633,1.028c0.08,0.04,0.428,0.107,0.446,0.144c0.038,0.08-0.239,0.08-0.4,0.153
												c-0.925,0.419,3.307,0.422,4.774,0.5c-0.465-0.024-2.272,0.091-2.791,0.113c-0.754,0.034-1.748,0.062-1.956,0.183
												c-0.295,0.168,0.185,0.366,0.436,0.529c0.255,0.167,1.048,0.165,2.011,0.16c-0.62,0.014-1.171,0.099-1.21,0.19
												c-0.115,0.268-0.047,0.447,0,0.664c0.089,0.396,4.207,0.32,5.921,0.354C189.743,572.626,387.67,572.613,388.336,572.552z
												"/>
										</g>
									</g>
								</g>
								<g>
									<g>
										<defs>
											<path id="SVGID_11_" d="M369.414,576.71H194.148c-2.062,0-3.734-1.575-3.734-3.517v-1.8c0-1.94,1.671-3.516,3.734-3.516
												h175.265c2.062,0,3.735,1.574,3.735,3.516v1.8C373.149,575.135,371.476,576.71,369.414,576.71z"/>
										</defs>
										<clipPath id="SVGID_12_">
											<use xlink:href="#SVGID_11_"  overflow="visible"/>
										</clipPath>
										<g clip-path="url(#SVGID_12_)">
											<g>
												<path id="XMLID_15_" fill="#AC6B2F" d="M392.709,576.825c0.056-0.004,0.11-0.01,0.164-0.017
													c0.858-0.104,0.562-0.315,0.757-0.465c0.08-0.062,0.173-0.164,0.341-0.218c0.264-0.086,0.77-0.093,1.175-0.15
													c0.923-0.132,1.125-0.381,0.788-0.555c-0.387-0.199-1.442-0.264-2.616-0.348c-0.358-0.025-1.719-0.068-1.67-0.137
													c0.029-0.041,1.007-0.089,1.118-0.167c0.115-0.08-0.055-0.18-0.08-0.253c-0.027-0.081-0.099-0.185,0.164-0.257
													c0.437-0.118,0.942-0.161,1.136-0.298c0.209-0.146,0.09-0.256-0.586-0.378c0.676,0.013,1.786,0.05,2.243-0.051
													c0.25-0.056,0.351-0.128,0.448-0.192c0.199-0.129,0.216-0.271,0.042-0.401c-0.292-0.219,0.364-0.266,0.894-0.464
													c0.273-0.104,0.108-0.18-0.104-0.286c-0.227-0.114-5.508-0.062-6.14-0.062c-1.281,0.003-2.645-0.01-3.875-0.048
													c2.75-0.033,5.73-0.077,8.417-0.168c3.354-0.113,1.99-0.565,1.243-0.88c-0.228-0.099-0.168-0.203-0.168-0.305
													c0-0.235-0.043-0.491-0.425-0.723c-0.07-0.042-1.355-0.456-1.861-0.398c0.863-0.098,0.816-0.1,0.816-0.271
													c0-0.137,0.107-0.286,0-0.423c-0.161-0.208-0.959-0.24-1.742-0.38c0.592-0.115,0.892-0.109,0.944-0.273
													c0.024-0.077,0.113-0.163-0.116-0.234c-0.213-0.068-0.758-0.092-0.748-0.172c-0.917-0.015-212.72-0.004-215.061-0.004
													c-0.379,0-0.836-0.01-1.209,0c-1.516,0.04-1.046,0.298-0.906,0.484c0.09,0.119-0.613,0.206-0.696,0.326
													c-0.048,0.066,0.202,0.114,0.264,0.177c0.087,0.087,1.057,0.255,0.986,0.34c-0.22,0.263,2.518,0.357,2.599,0.379
													c-1.245-0.071-3.249,0-3.895,0.165c-0.305,0.078-0.579,0.139-0.578,0.228c0.002,0.176,0.74,0.34,0.446,0.521
													c-0.248,0.153-0.914,0.294-1.021,0.455c-0.235,0.348,1.267,0.557,3.524,0.602c-1.574-0.03-3.256,0.021-4.752,0.085
													c-1.273,0.055-1.036,0.132-0.828,0.304c0.239,0.199-0.155,0.364,0.631,0.551c0.527,0.124,0.552,0.194,0.552,0.347
													c0,0.375-0.081,0.669,0.66,1.029c0.083,0.04,0.446,0.107,0.464,0.144c0.039,0.077-0.249,0.077-0.417,0.151
													c-0.964,0.42,3.444,0.422,4.973,0.501c-0.484-0.024-2.367,0.09-2.907,0.113c-0.785,0.034-1.821,0.062-2.037,0.181
													c-0.309,0.169,0.192,0.368,0.454,0.531c0.266,0.166,1.091,0.165,2.094,0.161c-0.646,0.013-1.219,0.098-1.26,0.188
													c-0.12,0.269-0.049,0.448,0,0.663c0.091,0.399,4.381,0.323,6.167,0.354
													C185.839,576.901,392.015,576.889,392.709,576.825z"/>
											</g>
											<g>
												<defs>
													<path id="SVGID_13_" d="M392.709,576.825c0.056-0.004,0.11-0.01,0.164-0.017c0.858-0.104,0.562-0.315,0.757-0.465
														c0.08-0.062,0.173-0.164,0.341-0.218c0.264-0.086,0.77-0.093,1.175-0.15c0.923-0.132,1.125-0.381,0.788-0.555
														c-0.387-0.199-1.442-0.264-2.616-0.348c-0.358-0.025-1.719-0.068-1.67-0.137c0.029-0.041,1.007-0.089,1.118-0.167
														c0.115-0.08-0.055-0.18-0.08-0.253c-0.027-0.081-0.099-0.185,0.164-0.257c0.437-0.118,0.942-0.161,1.136-0.298
														c0.209-0.146,0.09-0.256-0.586-0.378c0.676,0.013,1.786,0.05,2.243-0.051c0.25-0.056,0.351-0.128,0.448-0.192
														c0.199-0.129,0.216-0.271,0.042-0.401c-0.292-0.219,0.364-0.266,0.894-0.464c0.273-0.104,0.108-0.18-0.104-0.286
														c-0.227-0.114-5.508-0.062-6.14-0.062c-1.281,0.003-2.645-0.01-3.875-0.048c2.75-0.033,5.73-0.077,8.417-0.168
														c3.354-0.113,1.99-0.565,1.243-0.88c-0.228-0.099-0.168-0.203-0.168-0.305c0-0.235-0.043-0.491-0.425-0.723
														c-0.07-0.042-1.355-0.456-1.861-0.398c0.863-0.098,0.816-0.1,0.816-0.271c0-0.137,0.107-0.286,0-0.423
														c-0.161-0.208-0.959-0.24-1.742-0.38c0.592-0.115,0.892-0.109,0.944-0.273c0.024-0.077,0.113-0.163-0.116-0.234
														c-0.213-0.068-0.758-0.092-0.748-0.172c-0.917-0.015-212.72-0.004-215.061-0.004c-0.379,0-0.836-0.01-1.209,0
														c-1.516,0.04-1.046,0.298-0.906,0.484c0.09,0.119-0.613,0.206-0.696,0.326c-0.048,0.066,0.202,0.114,0.264,0.177
														c0.087,0.087,1.057,0.255,0.986,0.34c-0.22,0.263,2.518,0.357,2.599,0.379c-1.245-0.071-3.249,0-3.895,0.165
														c-0.305,0.078-0.579,0.139-0.578,0.228c0.002,0.176,0.74,0.34,0.446,0.521c-0.248,0.153-0.914,0.294-1.021,0.455
														c-0.235,0.348,1.267,0.557,3.524,0.602c-1.574-0.03-3.256,0.021-4.752,0.085c-1.273,0.055-1.036,0.132-0.828,0.304
														c0.239,0.199-0.155,0.364,0.631,0.551c0.527,0.124,0.552,0.194,0.552,0.347c0,0.375-0.081,0.669,0.66,1.029
														c0.083,0.04,0.446,0.107,0.464,0.144c0.039,0.077-0.249,0.077-0.417,0.151c-0.964,0.42,3.444,0.422,4.973,0.501
														c-0.484-0.024-2.367,0.09-2.907,0.113c-0.785,0.034-1.821,0.062-2.037,0.181c-0.309,0.169,0.192,0.368,0.454,0.531
														c0.266,0.166,1.091,0.165,2.094,0.161c-0.646,0.013-1.219,0.098-1.26,0.188c-0.12,0.269-0.049,0.448,0,0.663
														c0.091,0.399,4.381,0.323,6.167,0.354C185.839,576.901,392.015,576.889,392.709,576.825z"/>
												</defs>
												<clipPath id="SVGID_14_">
													<use xlink:href="#SVGID_13_"  overflow="visible"/>
												</clipPath>
												
													<radialGradient id="XMLID_2_" cx="410.8677" cy="358.375" r="90.6884" gradientTransform="matrix(-1.2654 0 0 -0.1846 803.9082 642.4575)" gradientUnits="userSpaceOnUse">
													<stop  offset="0" style="stop-color:#B3ADAC"/>
													<stop  offset="0.2604" style="stop-color:#9D9797"/>
													<stop  offset="0.7966" style="stop-color:#696162"/>
													<stop  offset="1" style="stop-color:#534B4C"/>
												</radialGradient>
												<path id="XMLID_19_" clip-path="url(#SVGID_14_)" fill="url(#XMLID_2_)" d="M392.709,576.825
													c0.056-0.004,0.11-0.01,0.164-0.017c0.858-0.104,0.562-0.315,0.757-0.465c0.08-0.062,0.173-0.164,0.341-0.218
													c0.264-0.086,0.77-0.093,1.175-0.15c0.923-0.132,1.125-0.381,0.788-0.555c-0.387-0.199-1.442-0.264-2.616-0.348
													c-0.358-0.025-1.719-0.068-1.67-0.137c0.029-0.041,1.007-0.089,1.118-0.167c0.115-0.08-0.055-0.18-0.08-0.253
													c-0.027-0.081-0.099-0.185,0.164-0.257c0.437-0.118,0.942-0.161,1.136-0.298c0.209-0.146,0.09-0.256-0.586-0.378
													c0.676,0.013,1.786,0.05,2.243-0.051c0.25-0.056,0.351-0.128,0.448-0.192c0.199-0.129,0.216-0.271,0.042-0.401
													c-0.292-0.219,0.364-0.266,0.894-0.464c0.273-0.104,0.108-0.18-0.104-0.286c-0.227-0.114-5.508-0.062-6.14-0.062
													c-1.281,0.003-2.645-0.01-3.875-0.048c2.75-0.033,5.73-0.077,8.417-0.168c3.354-0.113,1.99-0.565,1.243-0.88
													c-0.228-0.099-0.168-0.203-0.168-0.305c0-0.235-0.043-0.491-0.425-0.723c-0.07-0.042-1.355-0.456-1.861-0.398
													c0.863-0.098,0.816-0.1,0.816-0.271c0-0.137,0.107-0.286,0-0.423c-0.161-0.208-0.959-0.24-1.742-0.38
													c0.592-0.115,0.892-0.109,0.944-0.273c0.024-0.077,0.113-0.163-0.116-0.234c-0.213-0.068-0.758-0.092-0.748-0.172
													c-0.917-0.015-212.72-0.004-215.061-0.004c-0.379,0-0.836-0.01-1.209,0c-1.516,0.04-1.046,0.298-0.906,0.484
													c0.09,0.119-0.613,0.206-0.696,0.326c-0.048,0.066,0.202,0.114,0.264,0.177c0.087,0.087,1.057,0.255,0.986,0.34
													c-0.22,0.263,2.518,0.357,2.599,0.379c-1.245-0.071-3.249,0-3.895,0.165c-0.305,0.078-0.579,0.139-0.578,0.228
													c0.002,0.176,0.74,0.34,0.446,0.521c-0.248,0.153-0.914,0.294-1.021,0.455c-0.235,0.348,1.267,0.557,3.524,0.602
													c-1.574-0.03-3.256,0.021-4.752,0.085c-1.273,0.055-1.036,0.132-0.828,0.304c0.239,0.199-0.155,0.364,0.631,0.551
													c0.527,0.124,0.552,0.194,0.552,0.347c0,0.375-0.081,0.669,0.66,1.029c0.083,0.04,0.446,0.107,0.464,0.144
													c0.039,0.077-0.249,0.077-0.417,0.151c-0.964,0.42,3.444,0.422,4.973,0.501c-0.484-0.024-2.367,0.09-2.907,0.113
													c-0.785,0.034-1.821,0.062-2.037,0.181c-0.309,0.169,0.192,0.368,0.454,0.531c0.266,0.166,1.091,0.165,2.094,0.161
													c-0.646,0.013-1.219,0.098-1.26,0.188c-0.12,0.269-0.049,0.448,0,0.663c0.091,0.399,4.381,0.323,6.167,0.354
													C185.839,576.901,392.015,576.889,392.709,576.825z"/>
											</g>
										</g>
										<g id="bench" clip-path="url(#SVGID_12_)">
											<g id="seat">
												<defs>
													<path id="SVGID_15_" d="M372.997,580.982H190.43c-2.148,0-3.89-1.573-3.89-3.517v-1.798
														c0-1.939,1.742-3.515,3.89-3.515h182.567c2.148,0,3.891,1.573,3.891,3.515v1.798
														C376.888,579.409,375.146,580.982,372.997,580.982z"/>
												</defs>
												<clipPath id="SVGID_16_">
													<use xlink:href="#SVGID_15_"  overflow="visible"/>
												</clipPath>
												<g clip-path="url(#SVGID_16_)">
													<g>
														<path id="XMLID_14_" fill="#AC6B2F" d="M397.263,581.1c0.059-0.004,0.116-0.01,0.172-0.018
															c0.894-0.104,0.583-0.313,0.788-0.464c0.083-0.061,0.181-0.164,0.355-0.218c0.275-0.084,0.802-0.093,1.225-0.148
															c0.96-0.133,1.171-0.383,0.819-0.556c-0.403-0.2-1.502-0.265-2.724-0.348c-0.374-0.024-1.791-0.069-1.741-0.138
															c0.029-0.041,1.049-0.088,1.165-0.166c0.12-0.08-0.058-0.18-0.084-0.254c-0.028-0.082-0.104-0.186,0.172-0.256
															c0.455-0.118,0.982-0.162,1.182-0.297c0.219-0.146,0.095-0.256-0.609-0.379c0.704,0.013,1.86,0.05,2.335-0.053
															c0.261-0.055,0.367-0.127,0.468-0.191c0.207-0.131,0.226-0.27,0.043-0.4c-0.305-0.219,0.379-0.265,0.93-0.464
															c0.285-0.104,0.113-0.178-0.107-0.287c-0.237-0.115-5.738-0.063-6.396-0.062c-1.334,0.004-2.755-0.011-4.037-0.048
															c2.864-0.033,5.968-0.077,8.768-0.167c3.492-0.112,2.071-0.564,1.294-0.882c-0.237-0.097-0.176-0.201-0.176-0.303
															c0-0.235-0.045-0.492-0.442-0.722c-0.073-0.042-1.411-0.457-1.939-0.399c0.9-0.098,0.85-0.1,0.85-0.272
															c0-0.138,0.111-0.284,0-0.423c-0.167-0.208-1-0.24-1.814-0.379c0.618-0.114,0.93-0.109,0.984-0.273
															c0.025-0.077,0.118-0.162-0.121-0.236c-0.222-0.066-0.789-0.09-0.778-0.169c-0.955-0.016-221.583-0.004-224.023-0.004
															c-0.396,0-0.871-0.01-1.26,0c-1.578,0.041-1.087,0.298-0.944,0.48c0.094,0.121-0.638,0.208-0.724,0.326
															c-0.051,0.069,0.209,0.116,0.274,0.18c0.091,0.088,1.102,0.255,1.028,0.339c-0.229,0.265,2.624,0.357,2.708,0.38
															c-1.297-0.072-3.384,0-4.059,0.164c-0.315,0.079-0.602,0.139-0.601,0.227c0.002,0.178,0.771,0.342,0.464,0.523
															c-0.257,0.15-0.952,0.293-1.065,0.454c-0.246,0.348,1.32,0.556,3.672,0.601c-1.64-0.032-3.393,0.021-4.95,0.085
															c-1.327,0.055-1.081,0.132-0.863,0.305c0.249,0.197-0.162,0.364,0.657,0.551c0.549,0.125,0.576,0.193,0.576,0.347
															c0,0.374-0.084,0.668,0.686,1.029c0.086,0.039,0.465,0.105,0.483,0.143c0.041,0.078-0.258,0.078-0.433,0.151
															c-1.006,0.421,3.588,0.424,5.181,0.503c-0.505-0.025-2.466,0.09-3.029,0.112c-0.819,0.033-1.897,0.062-2.122,0.182
															c-0.321,0.169,0.201,0.367,0.473,0.53c0.276,0.166,1.137,0.164,2.181,0.16c-0.672,0.013-1.271,0.1-1.312,0.189
															c-0.126,0.269-0.052,0.448,0,0.663c0.096,0.398,4.564,0.323,6.424,0.354
															C181.775,581.176,396.541,581.163,397.263,581.1z"/>
													</g>
													<g>
														<defs>
															<path id="SVGID_17_" d="M397.263,581.1c0.059-0.004,0.116-0.01,0.172-0.018c0.894-0.104,0.583-0.313,0.788-0.464
																c0.083-0.061,0.181-0.164,0.355-0.218c0.275-0.084,0.802-0.093,1.225-0.148c0.96-0.133,1.171-0.383,0.819-0.556
																c-0.403-0.2-1.502-0.265-2.724-0.348c-0.374-0.024-1.791-0.069-1.741-0.138c0.029-0.041,1.049-0.088,1.165-0.166
																c0.12-0.08-0.058-0.18-0.084-0.254c-0.028-0.082-0.104-0.186,0.172-0.256c0.455-0.118,0.982-0.162,1.182-0.297
																c0.219-0.146,0.095-0.256-0.609-0.379c0.704,0.013,1.86,0.05,2.335-0.053c0.261-0.055,0.367-0.127,0.468-0.191
																c0.207-0.131,0.226-0.27,0.043-0.4c-0.305-0.219,0.379-0.265,0.93-0.464c0.285-0.104,0.113-0.178-0.107-0.287
																c-0.237-0.115-5.738-0.063-6.396-0.062c-1.334,0.004-2.755-0.011-4.037-0.048c2.864-0.033,5.968-0.077,8.768-0.167
																c3.492-0.112,2.071-0.564,1.294-0.882c-0.237-0.097-0.176-0.201-0.176-0.303c0-0.235-0.045-0.492-0.442-0.722
																c-0.073-0.042-1.411-0.457-1.939-0.399c0.9-0.098,0.85-0.1,0.85-0.272c0-0.138,0.111-0.284,0-0.423
																c-0.167-0.208-1-0.24-1.814-0.379c0.618-0.114,0.93-0.109,0.984-0.273c0.025-0.077,0.118-0.162-0.121-0.236
																c-0.222-0.066-0.789-0.09-0.778-0.169c-0.955-0.016-221.583-0.004-224.023-0.004c-0.396,0-0.871-0.01-1.26,0
																c-1.578,0.041-1.087,0.298-0.944,0.48c0.094,0.121-0.638,0.208-0.724,0.326c-0.051,0.069,0.209,0.116,0.274,0.18
																c0.091,0.088,1.102,0.255,1.028,0.339c-0.229,0.265,2.624,0.357,2.708,0.38c-1.297-0.072-3.384,0-4.059,0.164
																c-0.315,0.079-0.602,0.139-0.601,0.227c0.002,0.178,0.771,0.342,0.464,0.523c-0.257,0.15-0.952,0.293-1.065,0.454
																c-0.246,0.348,1.32,0.556,3.672,0.601c-1.64-0.032-3.393,0.021-4.95,0.085c-1.327,0.055-1.081,0.132-0.863,0.305
																c0.249,0.197-0.162,0.364,0.657,0.551c0.549,0.125,0.576,0.193,0.576,0.347c0,0.374-0.084,0.668,0.686,1.029
																c0.086,0.039,0.465,0.105,0.483,0.143c0.041,0.078-0.258,0.078-0.433,0.151c-1.006,0.421,3.588,0.424,5.181,0.503
																c-0.505-0.025-2.466,0.09-3.029,0.112c-0.819,0.033-1.897,0.062-2.122,0.182c-0.321,0.169,0.201,0.367,0.473,0.53
																c0.276,0.166,1.137,0.164,2.181,0.16c-0.672,0.013-1.271,0.1-1.312,0.189c-0.126,0.269-0.052,0.448,0,0.663
																c0.096,0.398,4.564,0.323,6.424,0.354C181.775,581.176,396.541,581.163,397.263,581.1z"/>
														</defs>
														<clipPath id="SVGID_18_">
															<use xlink:href="#SVGID_17_"  overflow="visible"/>
														</clipPath>
														
															<radialGradient id="SVGID_19_" cx="388.7642" cy="366.7544" r="90.6829" gradientTransform="matrix(-1.3182 0 0 -0.1846 796.8496 650.4575)" gradientUnits="userSpaceOnUse">
															<stop  offset="0" style="stop-color:#B3ADAC"/>
															<stop  offset="0.2604" style="stop-color:#9D9797"/>
															<stop  offset="0.7966" style="stop-color:#696162"/>
															<stop  offset="1" style="stop-color:#534B4C"/>
														</radialGradient>
														<path clip-path="url(#SVGID_18_)" fill="url(#SVGID_19_)" d="M378.352,572.122c-44.94-0.004-154.804,0-192,0.001
															c-0.367,2.644-0.881,5.269-1.519,7.863c0.062,0.381,0.143,0.758,0.231,1.137
															c31.409,0.039,148.317,0.037,193.866,0.006C378.779,578.125,378.577,575.124,378.352,572.122z"/>
													</g>
												</g>
											</g>
										</g>
										<g clip-path="url(#SVGID_12_)">
											<g>
												<g>
													<g>
														<defs>
															<path id="SVGID_20_" d="M92.325,554.136c-0.42,17.321-0.829,34.645-1.229,51.966
																c-0.014,0.613-1.135,0.979-2.434,0.845c-0.401-0.041-0.801-0.083-1.207-0.121c-1.312-0.123-2.476-0.699-2.466-1.312
																c0.265-17.343,0.533-34.692,0.794-52.038c0.009-0.611,1.205-1.02,2.593-0.879c0.428,0.044,0.856,0.089,1.291,0.137
																C91.076,552.882,92.34,553.525,92.325,554.136z"/>
														</defs>
														<clipPath id="SVGID_21_">
															<use xlink:href="#SVGID_20_"  overflow="visible"/>
														</clipPath>
														<g clip-path="url(#SVGID_21_)">
															<g>
																<path id="XMLID_46_" fill="#AC6B2F" d="M92.593,547.24c-0.093-0.316-0.27-0.246-0.391-0.318
																	c-0.049-0.029-0.132-0.065-0.175-0.12c-0.067-0.086-0.069-0.235-0.113-0.36c-0.1-0.286-0.296-0.369-0.435-0.283
																	c-0.159,0.097-0.214,0.403-0.287,0.746c-0.022,0.103-0.065,0.503-0.117,0.482c-0.031-0.012-0.062-0.308-0.121-0.346
																	c-0.06-0.042-0.136,0.002-0.193,0.002c-0.062,0.002-0.141,0.014-0.192-0.071c-0.086-0.139-0.115-0.293-0.215-0.359
																	c-0.109-0.074-0.191-0.048-0.285,0.143c0.013-0.198,0.047-0.524-0.025-0.669c-0.04-0.077-0.092-0.115-0.139-0.146
																	c-0.095-0.07-0.197-0.088-0.294-0.045c-0.161,0.069-0.192-0.13-0.335-0.302c-0.073-0.09-0.127-0.045-0.207,0.009
																	c-0.084,0.059-0.074,1.631-0.077,1.817c-0.004,0.379-0.021,0.785-0.054,1.147c-0.011-0.819-0.025-1.709-0.077-2.513
																	c-0.065-1.003-0.397-0.633-0.629-0.433c-0.07,0.061-0.146,0.036-0.219,0.029c-0.171-0.019-0.357-0.022-0.526,0.073
																	c-0.031,0.02-0.339,0.373-0.299,0.527c-0.068-0.263-0.07-0.248-0.197-0.261c-0.101-0.01-0.211-0.052-0.313-0.027
																	c-0.155,0.035-0.184,0.27-0.292,0.493c-0.084-0.186-0.08-0.271-0.203-0.298c-0.059-0.013-0.123-0.042-0.18,0.021
																	c-0.053,0.06-0.073,0.22-0.134,0.213c-0.344,21.282-0.645,42.567-0.975,63.851
																	c-0.002,0.111-0.012,0.249-0.006,0.359c0.025,0.45,0.218,0.325,0.354,0.295c0.088-0.021,0.148,0.191,0.235,0.224
																	c0.048,0.019,0.085-0.054,0.129-0.067c0.063-0.021,0.188-0.299,0.248-0.272c0.187,0.079,0.265-0.728,0.281-0.75
																	c-0.056,0.364-0.015,0.964,0.097,1.165c0.053,0.095,0.093,0.181,0.154,0.187c0.124,0.009,0.241-0.2,0.363-0.102
																	c0.104,0.081,0.196,0.288,0.305,0.329c0.234,0.094,0.382-0.34,0.423-1.008c-0.028,0.464-0.002,0.969,0.033,1.415
																	c0.029,0.381,0.083,0.316,0.201,0.267c0.133-0.059,0.241,0.069,0.369-0.149c0.085-0.149,0.132-0.152,0.233-0.143
																	c0.249,0.024,0.443,0.069,0.688-0.123c0.027-0.021,0.075-0.125,0.098-0.128c0.052-0.006,0.051,0.08,0.099,0.135
																	c0.275,0.315,0.303-0.991,0.365-1.44c-0.02,0.144,0.047,0.709,0.06,0.871c0.019,0.236,0.031,0.546,0.109,0.619
																	c0.113,0.104,0.251-0.03,0.363-0.096c0.115-0.065,0.12-0.312,0.124-0.609c0.003,0.193,0.06,0.37,0.122,0.389
																	c0.184,0.059,0.31,0.051,0.461,0.053c0.28,0.006,0.267-1.282,0.291-1.8C92.044,589.375,92.2,568.113,92.593,547.24z
																	"/>
															</g>
														</g>
													</g>
													<g>
														<g>
															<defs>
																<path id="SVGID_22_" d="M85.552,553.457c-0.26,17.346-0.521,34.692-0.79,52.038
																	c-0.01,0.614-1.245,1.026-2.908,0.948c-0.513-0.025-1.027-0.049-1.541-0.069c-1.663-0.066-3.009-0.6-3.004-1.213
																	c0.125-17.349,0.275-34.718,0.412-52.077c0.005-0.612,1.451-1.07,3.23-0.994c0.549,0.023,1.097,0.049,1.647,0.076
																	C84.376,552.254,85.561,552.847,85.552,553.457z"/>
															</defs>
															<clipPath id="SVGID_23_">
																<use xlink:href="#SVGID_22_"  overflow="visible"/>
															</clipPath>
															<g clip-path="url(#SVGID_23_)">
																<g>
																	<path id="XMLID_45_" fill="#AC6B2F" d="M85.744,546.548c-0.086-0.311-0.255-0.236-0.372-0.303
																		c-0.047-0.025-0.128-0.062-0.17-0.113c-0.066-0.082-0.071-0.231-0.116-0.357c-0.102-0.281-0.304-0.354-0.448-0.263
																		c-0.166,0.104-0.224,0.413-0.299,0.758c-0.021,0.104-0.065,0.507-0.123,0.486
																		c-0.033-0.009-0.069-0.302-0.136-0.339c-0.067-0.04-0.153,0.007-0.216,0.011c-0.071,0.003-0.161,0.021-0.224-0.062
																		c-0.102-0.135-0.137-0.287-0.256-0.352c-0.13-0.07-0.23-0.039-0.345,0.155c0.014-0.201,0.053-0.528-0.038-0.67
																		c-0.05-0.077-0.116-0.111-0.174-0.142c-0.12-0.064-0.248-0.077-0.37-0.03c-0.205,0.077-0.244-0.121-0.427-0.286
																		c-0.095-0.086-0.163-0.04-0.264,0.019c-0.107,0.062-0.079,1.636-0.08,1.821c-0.003,0.381-0.019,0.785-0.059,1.148
																		c-0.021-0.817-0.049-1.705-0.124-2.506c-0.093-1.003-0.514-0.615-0.81-0.405c-0.089,0.062-0.186,0.043-0.279,0.039
																		c-0.218-0.008-0.456-0.006-0.669,0.1c-0.04,0.021-0.425,0.389-0.374,0.54c-0.087-0.259-0.09-0.246-0.25-0.25
																		c-0.126-0.005-0.263-0.044-0.389-0.014c-0.192,0.041-0.225,0.276-0.354,0.506c-0.105-0.181-0.099-0.27-0.251-0.29
																		c-0.071-0.009-0.15-0.038-0.217,0.028c-0.062,0.062-0.086,0.223-0.159,0.218
																		c-0.201,21.301-0.344,42.602-0.508,63.903c-0.001,0.11-0.01,0.247-0.002,0.358c0.032,0.45,0.252,0.316,0.41,0.28
																		c0.104-0.023,0.176,0.188,0.276,0.216c0.058,0.016,0.1-0.057,0.153-0.074c0.074-0.021,0.22-0.308,0.292-0.283
																		c0.225,0.071,0.312-0.737,0.331-0.762c-0.064,0.367-0.009,0.965,0.129,1.162c0.065,0.092,0.115,0.175,0.19,0.178
																		c0.152,0.006,0.293-0.21,0.448-0.115c0.128,0.078,0.246,0.279,0.384,0.316c0.296,0.082,0.478-0.355,0.524-1.025
																		c-0.031,0.468,0.007,0.968,0.056,1.415c0.042,0.38,0.108,0.312,0.256,0.257c0.17-0.062,0.31,0.059,0.47-0.167
																		c0.108-0.152,0.168-0.157,0.298-0.151c0.318,0.016,0.567,0.05,0.879-0.153c0.035-0.021,0.093-0.129,0.125-0.133
																		c0.065-0.008,0.065,0.077,0.127,0.131c0.352,0.306,0.375-1.006,0.448-1.455c-0.023,0.144,0.065,0.708,0.082,0.869
																		c0.026,0.234,0.044,0.544,0.142,0.612c0.139,0.1,0.303-0.04,0.437-0.109c0.136-0.071,0.138-0.315,0.139-0.613
																		c0.007,0.19,0.073,0.365,0.145,0.383c0.209,0.048,0.352,0.038,0.517,0.032c0.305-0.008,0.276-1.292,0.297-1.812
																		C85.605,588.746,85.556,567.449,85.744,546.548z"/>
																</g>
															</g>
														</g>
														<g>
															<g>
																<defs>
																	<path id="SVGID_24_" d="M77.444,553.076c-0.131,17.359-0.263,34.719-0.395,52.079
																		c-0.005,0.611-1.358,1.071-3.022,1.05c-0.514-0.006-1.028-0.011-1.542-0.014c-1.664-0.013-3.016-0.499-3.018-1.111
																		c-0.043-17.354-0.069-34.727-0.104-52.087c-0.001-0.615,1.438-1.122,3.22-1.11
																		c0.549,0.003,1.098,0.011,1.647,0.019C76.011,551.925,77.449,552.465,77.444,553.076z"/>
																</defs>
																<clipPath id="SVGID_25_">
																	<use xlink:href="#SVGID_24_"  overflow="visible"/>
																</clipPath>
																<g clip-path="url(#SVGID_25_)">
																	<g>
																		<path id="XMLID_44_" fill="#AC6B2F" d="M77.605,546.157c-0.107-0.308-0.304-0.224-0.442-0.285
																			c-0.057-0.025-0.15-0.055-0.2-0.106c-0.079-0.081-0.084-0.23-0.137-0.354c-0.12-0.276-0.35-0.342-0.511-0.246
																			c-0.184,0.111-0.246,0.423-0.325,0.771c-0.024,0.104-0.067,0.509-0.128,0.493c-0.037-0.01-0.08-0.302-0.152-0.336
																			c-0.074-0.034-0.166,0.014-0.234,0.021c-0.075,0.006-0.171,0.024-0.236-0.056
																			c-0.109-0.132-0.147-0.283-0.272-0.342c-0.134-0.063-0.237-0.029-0.351,0.167c0.012-0.2,0.048-0.527-0.045-0.666
																			c-0.051-0.075-0.117-0.105-0.175-0.136c-0.12-0.061-0.25-0.068-0.372-0.018c-0.202,0.084-0.246-0.11-0.428-0.271
																			c-0.095-0.083-0.165-0.034-0.265,0.027c-0.106,0.066-0.063,1.637-0.062,1.824c0.002,0.38-0.011,0.786-0.046,1.149
																			c-0.03-0.814-0.066-1.702-0.148-2.502c-0.103-0.997-0.521-0.595-0.814-0.374c-0.09,0.066-0.186,0.05-0.279,0.049
																			c-0.218-0.001-0.456,0.012-0.668,0.124c-0.04,0.021-0.421,0.401-0.368,0.552c-0.091-0.257-0.093-0.24-0.253-0.24
																			c-0.127,0-0.263-0.031-0.39,0.001c-0.19,0.046-0.22,0.284-0.349,0.519c-0.107-0.177-0.102-0.265-0.254-0.28
																			c-0.07-0.007-0.15-0.031-0.217,0.036c-0.062,0.063-0.084,0.226-0.156,0.224
																			c0.01,21.306,0.079,42.608,0.125,63.915c0,0.111-0.008,0.249,0,0.357c0.037,0.451,0.255,0.311,0.413,0.27
																			c0.103-0.027,0.177,0.181,0.279,0.205c0.057,0.015,0.099-0.061,0.151-0.078c0.073-0.027,0.217-0.316,0.289-0.297
																			c0.225,0.065,0.306-0.747,0.324-0.771c-0.061,0.37,0.001,0.967,0.141,1.159c0.066,0.089,0.118,0.171,0.192,0.171
																			c0.152-0.001,0.292-0.22,0.446-0.132c0.13,0.074,0.25,0.271,0.387,0.306c0.296,0.071,0.476-0.373,0.514-1.045
																			c-0.027,0.468,0.016,0.968,0.07,1.413c0.045,0.379,0.11,0.308,0.259,0.247c0.17-0.069,0.31,0.051,0.469-0.183
																			c0.107-0.156,0.167-0.162,0.295-0.16c0.319,0.004,0.569,0.031,0.878-0.185c0.034-0.023,0.091-0.132,0.123-0.138
																			c0.065-0.01,0.066,0.076,0.129,0.127c0.355,0.291,0.364-1.017,0.435-1.47c-0.023,0.144,0.073,0.703,0.092,0.865
																			c0.027,0.232,0.051,0.543,0.15,0.606c0.143,0.094,0.314-0.051,0.454-0.125c0.142-0.075,0.142-0.32,0.141-0.62
																			c0.01,0.192,0.081,0.364,0.159,0.38c0.228,0.04,0.381,0.023,0.565,0.015c0.34-0.02,0.297-1.308,0.315-1.826
																			C77.827,588.429,77.589,567.074,77.605,546.157z"/>
																	</g>
																</g>
															</g>
															<g>
																<g>
																	<defs>
																		<path id="SVGID_26_" d="M69.088,552.994c0.041,17.362,0.081,34.725,0.121,52.087c0,0.613-1.348,1.119-3.011,1.154
																			c-0.514,0.009-1.028,0.021-1.542,0.034c-1.664,0.047-3.021-0.394-3.027-1.007
																			c-0.208-17.352-0.413-34.711-0.62-52.063c-0.007-0.613,1.428-1.176,3.208-1.226
																			c0.549-0.016,1.098-0.028,1.647-0.042C67.643,551.895,69.086,552.382,69.088,552.994z"/>
																	</defs>
																	<clipPath id="SVGID_27_">
																		<use xlink:href="#SVGID_26_"  overflow="visible"/>
																	</clipPath>
																	<g clip-path="url(#SVGID_27_)">
																		<g>
																			<path id="XMLID_43_" fill="#AC6B2F" d="M69.18,546.07c-0.114-0.304-0.307-0.213-0.444-0.271
																				c-0.056-0.022-0.152-0.05-0.202-0.098c-0.079-0.079-0.086-0.229-0.14-0.35c-0.122-0.272-0.354-0.33-0.514-0.229
																				c-0.184,0.117-0.242,0.432-0.317,0.782c-0.022,0.106-0.062,0.512-0.124,0.498
																				c-0.038-0.008-0.083-0.298-0.155-0.329c-0.075-0.033-0.166,0.019-0.234,0.026
																				c-0.075,0.012-0.171,0.031-0.237-0.045c-0.11-0.128-0.15-0.277-0.275-0.332c-0.136-0.06-0.238-0.021-0.349,0.182
																				c0.01-0.2,0.042-0.532-0.051-0.665c-0.052-0.073-0.119-0.104-0.178-0.13c-0.122-0.059-0.25-0.06-0.37-0.004
																				c-0.203,0.091-0.247-0.104-0.432-0.256c-0.096-0.079-0.164-0.027-0.264,0.038
																				c-0.106,0.068-0.046,1.639-0.044,1.824c0.005,0.382-0.002,0.786-0.036,1.153c-0.037-0.816-0.083-1.7-0.173-2.498
																				c-0.113-0.992-0.526-0.576-0.817-0.345c-0.089,0.07-0.185,0.057-0.279,0.059
																				c-0.218,0.007-0.455,0.028-0.666,0.147c-0.039,0.021-0.417,0.42-0.362,0.565
																				c-0.093-0.252-0.095-0.238-0.254-0.231c-0.127,0.004-0.265-0.022-0.39,0.015
																				c-0.19,0.056-0.218,0.293-0.345,0.531c-0.107-0.172-0.104-0.263-0.255-0.271
																				c-0.071-0.006-0.151-0.026-0.218,0.043c-0.061,0.067-0.082,0.23-0.154,0.23
																				c0.221,21.295,0.501,42.59,0.759,63.886c0.001,0.111-0.005,0.248,0.004,0.36c0.04,0.446,0.257,0.3,0.415,0.253
																				c0.103-0.03,0.18,0.175,0.281,0.194c0.059,0.014,0.098-0.062,0.149-0.083c0.076-0.027,0.216-0.321,0.289-0.305
																				c0.225,0.06,0.297-0.758,0.315-0.782c-0.058,0.371,0.009,0.964,0.152,1.152c0.067,0.089,0.12,0.168,0.194,0.165
																				c0.152-0.006,0.289-0.229,0.445-0.146c0.13,0.07,0.251,0.265,0.389,0.292c0.298,0.062,0.473-0.391,0.504-1.062
																				c-0.022,0.469,0.026,0.968,0.083,1.41c0.049,0.376,0.115,0.306,0.261,0.238c0.168-0.074,0.311,0.04,0.467-0.198
																				c0.104-0.159,0.165-0.168,0.294-0.17c0.319-0.01,0.569,0.012,0.875-0.216c0.035-0.024,0.092-0.134,0.122-0.14
																				c0.066-0.012,0.067,0.072,0.13,0.121c0.358,0.281,0.354-1.029,0.42-1.483c-0.021,0.145,0.08,0.701,0.101,0.861
																				c0.03,0.234,0.056,0.539,0.156,0.604c0.145,0.089,0.313-0.062,0.453-0.143c0.141-0.08,0.139-0.325,0.135-0.625
																				c0.011,0.192,0.085,0.364,0.163,0.375c0.229,0.033,0.382,0.012,0.565-0.005c0.34-0.031,0.284-1.316,0.297-1.836
																				C69.844,588.369,69.369,566.988,69.18,546.07z"/>
																		</g>
																	</g>
																</g>
																<g>
																	<g>
																		<defs>
																			<path id="SVGID_28_" d="M60.732,553.21c0.213,17.355,0.425,34.71,0.638,52.065
																				c0.007,0.61-1.335,1.163-2.999,1.254c-0.514,0.027-1.028,0.058-1.542,0.089
																				c-1.662,0.102-2.708-0.289-2.719-0.903c-0.298-17.333-0.58-34.675-0.857-52.012
																				c-0.01-0.611,0.953-1.225,2.62-1.339c0.515-0.035,1.077-0.069,1.626-0.103
																				C59.277,552.161,60.725,552.599,60.732,553.21z"/>
																		</defs>
																		<clipPath id="SVGID_29_">
																			<use xlink:href="#SVGID_28_"  overflow="visible"/>
																		</clipPath>
																		<g clip-path="url(#SVGID_29_)">
																			<g>
																				<path id="XMLID_42_" fill="#AC6B2F" d="M60.755,546.286c-0.118-0.293-0.308-0.202-0.447-0.254
																					c-0.057-0.021-0.151-0.044-0.202-0.092c-0.079-0.077-0.088-0.226-0.143-0.345
																					c-0.125-0.269-0.357-0.316-0.516-0.209c-0.182,0.124-0.237,0.439-0.309,0.793
																					c-0.022,0.107-0.058,0.515-0.12,0.504c-0.037-0.008-0.086-0.295-0.158-0.324
																					c-0.075-0.03-0.166,0.025-0.233,0.036c-0.075,0.012-0.171,0.038-0.237-0.036
																					c-0.111-0.124-0.152-0.272-0.278-0.322c-0.136-0.055-0.238-0.014-0.347,0.193
																					c0.008-0.2,0.037-0.533-0.058-0.663c-0.051-0.071-0.119-0.1-0.178-0.124c-0.122-0.053-0.25-0.051-0.371,0.008
																					c-0.202,0.101-0.248-0.092-0.435-0.237c-0.096-0.075-0.164-0.022-0.263,0.046
																					c-0.104,0.074-0.029,1.639-0.026,1.827c0.009,0.381,0.005,0.785-0.023,1.154
																					c-0.045-0.814-0.1-1.698-0.194-2.491c-0.118-0.986-0.507-0.557-0.766-0.315
																					c-0.079,0.073-0.165,0.062-0.247,0.067c-0.191,0.018-0.392,0.046-0.565,0.174
																					c-0.033,0.022-0.335,0.432-0.291,0.578c-0.077-0.249-0.079-0.234-0.205-0.224
																					c-0.1,0.01-0.207-0.014-0.303,0.028c-0.145,0.062-0.164,0.303-0.256,0.543
																					c-0.082-0.168-0.081-0.257-0.192-0.262c-0.053-0.002-0.11-0.021-0.158,0.053
																					c-0.044,0.066-0.058,0.229-0.11,0.232c0.312,21.275,0.678,42.55,1.048,63.821
																					c0.002,0.114-0.002,0.251,0.007,0.359c0.035,0.447,0.207,0.292,0.335,0.239
																					c0.084-0.035,0.149,0.168,0.233,0.186c0.05,0.012,0.083-0.065,0.126-0.089c0.062-0.03,0.18-0.327,0.244-0.312
																					c0.194,0.049,0.254-0.77,0.27-0.794c-0.048,0.371,0.017,0.964,0.147,1.146c0.062,0.086,0.11,0.165,0.179,0.16
																					c0.14-0.011,0.268-0.24,0.418-0.163c0.126,0.065,0.247,0.256,0.386,0.28c0.297,0.052,0.467-0.407,0.492-1.08
																					c-0.018,0.47,0.036,0.968,0.097,1.408c0.053,0.375,0.118,0.3,0.264,0.229c0.168-0.08,0.311,0.027,0.465-0.215
																					c0.103-0.162,0.163-0.174,0.292-0.181c0.32-0.019,0.569-0.006,0.873-0.242c0.035-0.026,0.089-0.139,0.121-0.146
																					c0.065-0.015,0.068,0.071,0.13,0.119c0.361,0.268,0.345-1.042,0.406-1.5c-0.019,0.146,0.087,0.7,0.109,0.859
																					c0.034,0.231,0.062,0.536,0.163,0.597c0.146,0.086,0.312-0.07,0.45-0.154c0.142-0.087,0.136-0.33,0.129-0.629
																					c0.013,0.191,0.088,0.358,0.166,0.366c0.229,0.026,0.382-0.001,0.565-0.023
																					c0.339-0.041,0.271-1.322,0.279-1.846C61.824,588.545,61.152,567.194,60.755,546.286z"/>
																			</g>
																		</g>
																	</g>
																	<g id="back">
																		<g>
																			<defs>
																				<path id="SVGID_30_" d="M53.052,553.725c0.279,17.338,0.564,34.674,0.856,52.011
																					c0.011,0.612-1.003,1.209-2.124,1.355c-0.346,0.046-0.688,0.094-1.037,0.144
																					c-1.125,0.157-2.18-0.189-2.196-0.802c-0.443-17.306-0.905-34.618-1.395-51.927
																					c-0.018-0.609,1.269-1.272,2.541-1.451c0.393-0.057,0.77-0.108,1.139-0.16
																					C52.038,552.73,53.043,553.113,53.052,553.725z"/>
																			</defs>
																			<clipPath id="SVGID_31_">
																				<use xlink:href="#SVGID_30_"  overflow="visible"/>
																			</clipPath>
																			<g clip-path="url(#SVGID_31_)">
																				<g>
																					<path id="XMLID_41_" fill="#AC6B2F" d="M53.02,546.804c-0.084-0.295-0.22-0.189-0.317-0.236
																						c-0.04-0.02-0.107-0.038-0.142-0.085c-0.056-0.073-0.063-0.223-0.102-0.338
																						c-0.089-0.266-0.247-0.306-0.354-0.189c-0.123,0.13-0.158,0.448-0.204,0.802
																						c-0.015,0.109-0.035,0.518-0.077,0.509c-0.025-0.006-0.061-0.293-0.109-0.319
																						c-0.051-0.027-0.11,0.029-0.157,0.044c-0.05,0.016-0.114,0.045-0.159-0.027
																						c-0.077-0.12-0.105-0.265-0.19-0.312c-0.091-0.052-0.159-0.005-0.231,0.206
																						c0.004-0.203,0.022-0.533-0.043-0.66c-0.036-0.068-0.082-0.094-0.122-0.117
																						c-0.083-0.047-0.169-0.04-0.251,0.021c-0.136,0.107-0.17-0.083-0.299-0.224
																						c-0.068-0.071-0.115-0.016-0.183,0.059c-0.073,0.077-0.009,1.639-0.005,1.824
																						c0.01,0.381,0.01,0.786-0.008,1.153c-0.038-0.812-0.083-1.691-0.157-2.479
																						c-0.093-0.983-0.382-0.536-0.593-0.285c-0.064,0.075-0.135,0.066-0.206,0.077
																						c-0.164,0.023-0.345,0.062-0.508,0.196c-0.03,0.025-0.326,0.445-0.279,0.591
																						c-0.079-0.246-0.08-0.231-0.211-0.214c-0.105,0.014-0.22-0.004-0.327,0.042
																						c-0.16,0.068-0.181,0.311-0.288,0.557c-0.098-0.163-0.096-0.253-0.232-0.253c-0.064,0-0.136-0.017-0.195,0.061
																						c-0.055,0.07-0.071,0.232-0.138,0.239c0.597,21.237,1.189,42.477,1.72,63.717c0.002,0.112,0,0.25,0.008,0.357
																						c0.039,0.445,0.204,0.282,0.323,0.227c0.078-0.038,0.139,0.162,0.215,0.177
																						c0.042,0.008,0.072-0.07,0.109-0.095c0.054-0.032,0.152-0.336,0.205-0.322
																						c0.165,0.041,0.204-0.776,0.216-0.803c-0.036,0.375,0.021,0.961,0.124,1.14
																						c0.049,0.084,0.086,0.16,0.139,0.151c0.106-0.015,0.198-0.248,0.307-0.176
																						c0.091,0.061,0.178,0.245,0.271,0.266c0.204,0.041,0.314-0.422,0.328-1.094
																						c-0.009,0.468,0.03,0.963,0.075,1.401c0.038,0.372,0.082,0.297,0.179,0.221
																						c0.111-0.086,0.209,0.018,0.311-0.229c0.069-0.166,0.108-0.18,0.195-0.189c0.214-0.028,0.384-0.026,0.59-0.273
																						c0.023-0.027,0.061-0.141,0.082-0.147c0.045-0.019,0.047,0.068,0.09,0.111
																						c0.251,0.256,0.233-1.051,0.272-1.512c-0.013,0.147,0.066,0.696,0.083,0.854
																						c0.024,0.232,0.046,0.537,0.118,0.594c0.104,0.081,0.223-0.082,0.323-0.172
																						c0.101-0.091,0.097-0.337,0.089-0.634c0.01,0.191,0.066,0.357,0.125,0.362
																						c0.168,0.019,0.285-0.016,0.425-0.043c0.259-0.054,0.198-1.33,0.201-1.854
																						C54.136,588.922,53.453,567.692,53.02,546.804z"/>
																				</g>
																			</g>
																		</g>
																	</g>
																	<g id="inside">
																		
																			<linearGradient id="SVGID_32_" gradientUnits="userSpaceOnUse" x1="-491.4658" y1="741.6553" x2="-447.4199" y2="741.6553" gradientTransform="matrix(1 0 0 -1 539 1324.5)">
																			<stop  offset="0.0045" style="stop-color:#362719"/>
																			<stop  offset="0.2433" style="stop-color:#56493D"/>
																			<stop  offset="0.3592" style="stop-color:#47392C"/>
																			<stop  offset="0.5134" style="stop-color:#362719"/>
																		</linearGradient>
																		<path fill="url(#SVGID_32_)" d="M89.879,610.479c-13.461,2.147-27.182,2.147-40.642,0
																			c-0.577-18.779-1.145-37.43-1.703-55.93c14.313-1.267,29.733-1.267,44.046,0
																			C91.024,573.049,90.456,591.699,89.879,610.479z"/>
																		
																			<linearGradient id="SVGID_33_" gradientUnits="userSpaceOnUse" x1="-469.4492" y1="724.6777" x2="-469.4492" y2="710.2557" gradientTransform="matrix(1 0 0 -1 539 1324.5)">
																			<stop  offset="0" style="stop-color:#483B2F"/>
																			<stop  offset="0.1505" style="stop-color:#5B4F44"/>
																			<stop  offset="0.4609" style="stop-color:#8B8479"/>
																			<stop  offset="0.901" style="stop-color:#D8D6CE"/>
																			<stop  offset="1" style="stop-color:#EAE9E1"/>
																		</linearGradient>
																		<path fill="url(#SVGID_33_)" d="M67.146,610.588c-0.515-0.012-1.029-0.025-1.544-0.041
																			c-1.667-0.049-3.023-0.601-3.032-1.201c-0.203-17.017-0.405-34.033-0.608-51.055
																			c-0.008-0.601,1.428-1.014,3.208-0.956c0.55,0.019,1.099,0.032,1.649,0.046c1.781,0.045,3.226,0.54,3.227,1.144
																			c0.04,17.008,0.08,34.015,0.119,51.022C70.167,610.146,68.815,610.626,67.146,610.588z M56.81,556.893
																			c-1.774-0.131-3.201,0.228-3.187,0.831c0.37,17.043,0.741,34.086,1.111,51.127
																			c0.014,0.603,1.371,1.202,3.033,1.313c0.514,0.036,1.028,0.069,1.542,0.1c1.663,0.102,3.008-0.328,3.001-0.929
																			c-0.209-17.018-0.418-34.037-0.625-51.057c-0.006-0.602-1.456-1.156-3.231-1.272
																			C57.906,556.97,57.358,556.935,56.81,556.893z M49.203,609.371c0.243,0.049,0.494,0.093,0.757,0.12
																			c0.512,0.054,1.023,0.104,1.535,0.155c1.656,0.162,2.993-0.218,2.98-0.816
																			c-0.377-17.043-0.752-34.087-1.128-51.132c-0.012-0.604-1.459-1.216-3.229-1.405
																			c-0.547-0.058-1.091-0.117-1.638-0.181c-0.315-0.036-0.614-0.052-0.901-0.057
																			C48.112,573.699,48.654,591.476,49.203,609.371z M91.522,556.503c-0.418,0.04-0.838,0.08-1.255,0.117
																			c-1.772,0.161-3.22,0.75-3.23,1.353c-0.303,17.033-0.606,34.063-0.909,51.095c-0.01,0.603,1.33,1.001,2.99,0.862
																			c0.261-0.021,0.521-0.045,0.78-0.067C90.448,591.949,90.99,574.16,91.522,556.503z M75.195,557.416
																			c-0.551,0.01-1.1,0.016-1.65,0.021c-1.781,0.015-3.224,0.486-3.223,1.089c0.034,17.007,0.068,34.017,0.103,51.022
																			c0.001,0.601,1.355,1.1,3.023,1.087c0.515-0.006,1.03-0.011,1.544-0.019c1.669-0.023,3.023-0.555,3.028-1.154
																			c0.13-17.012,0.259-34.022,0.388-51.037C78.414,557.825,76.977,557.388,75.195,557.416z M81.292,610.428
																			c0.516-0.022,1.03-0.049,1.543-0.075c1.665-0.087,3.021-0.667,3.032-1.268
																			c0.298-17.031,0.595-34.062,0.893-51.093c0.011-0.603-1.419-0.981-3.196-0.882
																			c-0.549,0.031-1.098,0.061-1.647,0.087c-1.779,0.088-3.226,0.619-3.229,1.221
																			c-0.135,17.013-0.271,34.025-0.405,51.036C78.278,610.055,79.626,610.506,81.292,610.428z"/>
																	</g>
																	<g>
																		<g>
																			<defs>
																				<path id="SVGID_34_" d="M92.305,556.244c-0.41,17.063-0.81,34.127-1.201,51.191
																					c-0.014,0.604-1.132,1.233-2.429,1.385c-0.4,0.047-0.8,0.09-1.204,0.133c-1.311,0.138-2.471-0.262-2.462-0.861
																					c0.264-17.031,0.522-34.063,0.776-51.096c0.009-0.602,1.202-1.192,2.586-1.353
																					c0.426-0.049,0.854-0.099,1.287-0.151C91.062,555.317,92.32,555.641,92.305,556.244z"/>
																			</defs>
																			<clipPath id="SVGID_35_">
																				<use xlink:href="#SVGID_34_"  overflow="visible"/>
																			</clipPath>
																			<g clip-path="url(#SVGID_35_)">
																				<g>
																					<path id="XMLID_40_" fill="#AC6B2F" d="M92.567,549.427c-0.092-0.286-0.268-0.177-0.388-0.22
																						c-0.05-0.016-0.131-0.033-0.174-0.077c-0.066-0.067-0.07-0.215-0.112-0.328
																						c-0.098-0.255-0.297-0.287-0.434-0.172c-0.157,0.132-0.213,0.445-0.285,0.797
																						c-0.021,0.108-0.064,0.511-0.116,0.502c-0.03-0.005-0.062-0.286-0.119-0.312
																						c-0.061-0.025-0.136,0.033-0.192,0.049c-0.063,0.017-0.141,0.047-0.192-0.023
																						c-0.085-0.115-0.115-0.259-0.214-0.303c-0.109-0.048-0.191-0.003-0.284,0.206
																						c0.013-0.199,0.047-0.526-0.025-0.651c-0.04-0.066-0.092-0.091-0.138-0.112
																						c-0.095-0.046-0.197-0.039-0.293,0.022c-0.161,0.104-0.19-0.081-0.333-0.219
																						c-0.074-0.068-0.128-0.015-0.207,0.057c-0.084,0.074-0.074,1.612-0.076,1.798
																						c-0.004,0.373-0.021,0.771-0.054,1.135c-0.011-0.798-0.027-1.665-0.078-2.442
																						c-0.065-0.966-0.396-0.531-0.628-0.289c-0.071,0.075-0.145,0.065-0.218,0.073
																						c-0.169,0.019-0.356,0.053-0.524,0.182c-0.032,0.024-0.338,0.432-0.298,0.573
																						c-0.068-0.244-0.069-0.229-0.197-0.217c-0.101,0.011-0.21-0.009-0.312,0.031
																						c-0.154,0.062-0.183,0.296-0.292,0.536c-0.084-0.164-0.078-0.255-0.202-0.258
																						c-0.058-0.001-0.122-0.021-0.179,0.051c-0.053,0.067-0.073,0.228-0.134,0.229
																						c-0.335,20.899-0.631,41.799-0.955,62.696c-0.001,0.111-0.012,0.245-0.006,0.354
																						c0.025,0.438,0.218,0.288,0.354,0.235c0.088-0.033,0.149,0.168,0.235,0.184
																						c0.049,0.012,0.085-0.064,0.13-0.088c0.062-0.03,0.187-0.323,0.247-0.308c0.187,0.046,0.265-0.758,0.28-0.781
																						c-0.056,0.365-0.015,0.946,0.097,1.124c0.053,0.083,0.093,0.159,0.154,0.154
																						c0.124-0.013,0.24-0.239,0.362-0.164c0.104,0.062,0.197,0.246,0.305,0.268c0.234,0.043,0.382-0.407,0.422-1.07
																						c-0.029,0.463-0.002,0.948,0.033,1.382c0.03,0.366,0.083,0.292,0.2,0.22c0.133-0.084,0.242,0.019,0.369-0.224
																						c0.086-0.165,0.132-0.178,0.233-0.188c0.249-0.026,0.442-0.026,0.688-0.271
																						c0.027-0.027,0.073-0.14,0.097-0.146c0.052-0.019,0.051,0.065,0.099,0.108
																						c0.275,0.246,0.303-1.038,0.365-1.492c-0.02,0.145,0.047,0.684,0.06,0.841c0.018,0.227,0.032,0.525,0.11,0.578
																						c0.112,0.076,0.25-0.085,0.363-0.175c0.115-0.092,0.119-0.334,0.122-0.626
																						c0.005,0.188,0.061,0.348,0.123,0.354c0.184,0.013,0.309-0.024,0.461-0.06
																						c0.279-0.062,0.265-1.316,0.289-1.832C92.03,590.929,92.188,569.991,92.567,549.427z"/>
																				</g>
																			</g>
																		</g>
																		<g id="park_1_">
																			<g>
																				<defs>
																					<path id="SVGID_36_" d="M85.553,557.017c-0.254,17.03-0.511,34.062-0.771,51.094
																						c-0.01,0.6-1.241,1.182-2.905,1.268c-0.514,0.025-1.03,0.051-1.544,0.075
																						c-1.665,0.076-3.013-0.373-3.009-0.972c0.121-17,0.271-34.026,0.405-51.039
																						c0.004-0.603,1.451-1.132,3.229-1.221c0.549-0.025,1.097-0.055,1.646-0.085
																						C84.381,556.035,85.562,556.416,85.553,557.017z"/>
																				</defs>
																				<clipPath id="SVGID_37_">
																					<use xlink:href="#SVGID_36_"  overflow="visible"/>
																				</clipPath>
																				<g clip-path="url(#SVGID_37_)">
																					<g>
																						<path id="XMLID_38_" fill="#AC6B2F" d="M85.743,550.218c-0.086-0.288-0.254-0.189-0.372-0.235
																							c-0.047-0.021-0.128-0.04-0.17-0.086c-0.066-0.071-0.07-0.22-0.116-0.334
																							c-0.102-0.261-0.302-0.303-0.447-0.192c-0.165,0.125-0.224,0.436-0.297,0.783
																							c-0.023,0.105-0.065,0.505-0.123,0.495c-0.034-0.007-0.07-0.289-0.136-0.316
																							c-0.067-0.029-0.153,0.026-0.217,0.038c-0.07,0.013-0.162,0.04-0.223-0.032
																							c-0.101-0.121-0.136-0.266-0.255-0.313c-0.13-0.055-0.23-0.012-0.344,0.189
																							c0.013-0.196,0.053-0.521-0.038-0.648c-0.05-0.068-0.116-0.096-0.174-0.12
																							c-0.12-0.051-0.248-0.049-0.37,0.008c-0.204,0.099-0.243-0.091-0.426-0.236
																							c-0.094-0.074-0.164-0.021-0.265,0.045c-0.107,0.072-0.077,1.608-0.08,1.792
																							c-0.001,0.371-0.019,0.771-0.058,1.131c-0.021-0.8-0.049-1.665-0.124-2.442
																							c-0.093-0.974-0.515-0.553-0.81-0.321c-0.089,0.07-0.187,0.058-0.279,0.062
																							c-0.218,0.011-0.455,0.032-0.669,0.152c-0.04,0.021-0.425,0.412-0.374,0.559
																							c-0.088-0.248-0.09-0.232-0.25-0.228c-0.127,0.004-0.264-0.021-0.39,0.015
																							c-0.192,0.054-0.225,0.286-0.354,0.521c-0.105-0.172-0.099-0.258-0.25-0.268
																							c-0.071-0.008-0.15-0.027-0.218,0.041c-0.062,0.063-0.085,0.223-0.158,0.223
																							c-0.196,20.875-0.337,41.75-0.499,62.628c-0.002,0.109-0.011,0.243-0.003,0.352
																							c0.031,0.438,0.252,0.296,0.411,0.25c0.104-0.028,0.176,0.174,0.277,0.194c0.058,0.013,0.1-0.062,0.152-0.083
																							c0.074-0.027,0.22-0.314,0.292-0.297c0.226,0.055,0.312-0.745,0.332-0.769
																							c-0.064,0.365-0.01,0.944,0.129,1.129c0.065,0.088,0.116,0.164,0.19,0.162
																							c0.151-0.007,0.294-0.229,0.449-0.148c0.129,0.066,0.247,0.256,0.384,0.281
																							c0.296,0.056,0.48-0.392,0.525-1.048c-0.032,0.459,0.006,0.945,0.056,1.38
																							c0.042,0.369,0.108,0.297,0.256,0.229c0.171-0.077,0.311,0.031,0.471-0.207
																							c0.108-0.157,0.168-0.168,0.298-0.174c0.318-0.017,0.569-0.006,0.88-0.237
																							c0.034-0.026,0.093-0.136,0.124-0.143c0.066-0.016,0.065,0.069,0.128,0.114
																							c0.353,0.256,0.374-1.024,0.448-1.476c-0.024,0.144,0.064,0.687,0.083,0.843
																							c0.025,0.227,0.044,0.527,0.142,0.584c0.138,0.082,0.301-0.074,0.435-0.158
																							c0.135-0.089,0.136-0.328,0.138-0.619c0.007,0.188,0.072,0.35,0.145,0.356
																							c0.21,0.021,0.351-0.012,0.516-0.037c0.304-0.049,0.275-1.304,0.295-1.816
																							C85.628,591.67,85.56,570.739,85.743,550.218z"/>
																					</g>
																				</g>
																			</g>
																			<g>
																				<g>
																					<defs>
																						<path id="SVGID_38_" d="M77.449,557.451c-0.128,17.013-0.257,34.023-0.387,51.036
																							c-0.004,0.601-1.361,1.13-3.028,1.154c-0.515,0.008-1.029,0.015-1.545,0.018
																							c-1.667,0.013-3.022-0.487-3.023-1.087c-0.038-17.004-0.068-34.017-0.102-51.024
																							c-0.001-0.6,1.441-1.073,3.223-1.088c0.55-0.004,1.1-0.011,1.649-0.021
																							C76.016,556.411,77.455,556.851,77.449,557.451z"/>
																					</defs>
																					<clipPath id="SVGID_39_">
																						<use xlink:href="#SVGID_38_"  overflow="visible"/>
																					</clipPath>
																					<g clip-path="url(#SVGID_39_)">
																						<g>
																							<path id="XMLID_37_" fill="#AC6B2F" d="M77.609,550.664c-0.107-0.293-0.305-0.201-0.442-0.255
																								c-0.055-0.021-0.151-0.046-0.2-0.094c-0.079-0.074-0.084-0.222-0.137-0.339
																								c-0.12-0.265-0.349-0.315-0.511-0.214c-0.185,0.117-0.245,0.425-0.325,0.771
																								c-0.024,0.104-0.066,0.501-0.129,0.489c-0.036-0.009-0.079-0.291-0.151-0.323
																								c-0.074-0.03-0.167,0.021-0.234,0.029c-0.076,0.01-0.171,0.032-0.236-0.044
																								c-0.109-0.124-0.148-0.271-0.272-0.324c-0.135-0.061-0.238-0.021-0.351,0.179
																								c0.012-0.198,0.048-0.521-0.045-0.652c-0.051-0.071-0.118-0.102-0.176-0.129
																								c-0.121-0.056-0.249-0.059-0.371-0.006c-0.204,0.088-0.246-0.102-0.43-0.253
																								c-0.095-0.078-0.164-0.03-0.265,0.033c-0.105,0.066-0.062,1.604-0.062,1.788
																								c0.002,0.373-0.012,0.77-0.047,1.129c-0.029-0.799-0.066-1.666-0.148-2.449
																								c-0.103-0.974-0.521-0.574-0.814-0.354c-0.089,0.067-0.186,0.051-0.279,0.051
																								c-0.219,0.001-0.456,0.017-0.668,0.127c-0.039,0.02-0.421,0.395-0.368,0.542
																								c-0.09-0.251-0.092-0.237-0.253-0.237c-0.127,0-0.264-0.03-0.391-0.001c-0.19,0.047-0.221,0.277-0.349,0.506
																								c-0.107-0.175-0.102-0.26-0.254-0.275c-0.07-0.008-0.151-0.034-0.217,0.031
																								c-0.062,0.062-0.083,0.221-0.157,0.217c0.012,20.871,0.078,41.739,0.123,62.609
																								c0,0.11-0.009,0.243,0.001,0.353c0.037,0.439,0.255,0.306,0.414,0.267c0.104-0.025,0.177,0.18,0.28,0.204
																								c0.058,0.016,0.099-0.059,0.151-0.075c0.074-0.022,0.218-0.309,0.291-0.289
																								c0.226,0.064,0.307-0.731,0.324-0.755c-0.061,0.362,0,0.944,0.141,1.135
																								c0.067,0.089,0.118,0.169,0.193,0.169c0.152-0.002,0.293-0.217,0.447-0.132
																								c0.131,0.07,0.251,0.265,0.389,0.294c0.297,0.068,0.477-0.369,0.514-1.027
																								c-0.026,0.457,0.017,0.947,0.07,1.382c0.045,0.372,0.113,0.302,0.261,0.239
																								c0.169-0.071,0.31,0.042,0.469-0.188c0.107-0.155,0.167-0.163,0.296-0.165
																								c0.319-0.004,0.57,0.016,0.879-0.205c0.035-0.024,0.094-0.132,0.124-0.138
																								c0.066-0.012,0.067,0.072,0.129,0.12c0.357,0.271,0.365-1.011,0.437-1.457
																								c-0.022,0.142,0.072,0.688,0.092,0.843c0.028,0.23,0.051,0.531,0.151,0.592
																								c0.143,0.085,0.314-0.062,0.455-0.143c0.142-0.08,0.143-0.32,0.141-0.614
																								c0.009,0.188,0.082,0.354,0.16,0.363c0.229,0.03,0.382,0.006,0.566-0.016
																								c0.341-0.036,0.297-1.296,0.315-1.805C77.862,592.123,77.595,571.162,77.609,550.664z"/>
																						</g>
																					</g>
																				</g>
																				<g id="foreground">
																					<g>
																						<defs>
																							<path id="SVGID_40_" d="M69.086,557.546c0.04,17.009,0.08,34.019,0.12,51.024
																								c0.001,0.6-1.351,1.079-3.019,1.042c-0.515-0.012-1.031-0.026-1.544-0.04
																								c-1.667-0.049-3.024-0.602-3.031-1.201c-0.21-17.01-0.406-34.035-0.609-51.054
																								c-0.008-0.603,1.428-1.017,3.208-0.958c0.55,0.017,1.099,0.032,1.649,0.046
																								C67.64,556.449,69.085,556.945,69.086,557.546z"/>
																						</defs>
																						<clipPath id="SVGID_41_">
																							<use xlink:href="#SVGID_40_"  overflow="visible"/>
																						</clipPath>
																						<g clip-path="url(#SVGID_41_)">
																							<g>
																								<path id="XMLID_36_" fill="#AC6B2F" d="M69.178,550.766c-0.113-0.299-0.306-0.213-0.444-0.271
																									c-0.057-0.025-0.152-0.054-0.202-0.104c-0.079-0.076-0.086-0.225-0.139-0.343
																									c-0.123-0.271-0.354-0.332-0.515-0.237c-0.185,0.11-0.242,0.418-0.317,0.759
																									c-0.023,0.104-0.062,0.499-0.124,0.482c-0.037-0.008-0.083-0.293-0.155-0.327
																									c-0.075-0.037-0.166,0.014-0.234,0.021c-0.075,0.006-0.171,0.023-0.237-0.055
																									c-0.11-0.131-0.151-0.277-0.275-0.338c-0.136-0.062-0.238-0.03-0.35,0.164
																									c0.01-0.195,0.043-0.52-0.052-0.653c-0.051-0.074-0.119-0.105-0.178-0.136
																									c-0.121-0.062-0.25-0.067-0.371-0.021c-0.203,0.08-0.246-0.112-0.433-0.271
																									c-0.095-0.082-0.164-0.035-0.264,0.022c-0.105,0.062-0.046,1.603-0.044,1.786
																									c0.005,0.374-0.003,0.771-0.035,1.127c-0.038-0.799-0.083-1.67-0.173-2.455
																									c-0.111-0.98-0.526-0.595-0.818-0.388c-0.087,0.062-0.185,0.042-0.278,0.038
																									c-0.218-0.007-0.455-0.005-0.667,0.1c-0.039,0.019-0.417,0.378-0.362,0.527
																									c-0.093-0.256-0.095-0.241-0.254-0.247c-0.127-0.007-0.265-0.044-0.391-0.019
																									c-0.189,0.038-0.218,0.271-0.344,0.492c-0.108-0.178-0.105-0.266-0.256-0.288
																									c-0.071-0.01-0.15-0.039-0.217,0.024c-0.061,0.059-0.081,0.217-0.154,0.209
																									c0.219,20.884,0.492,41.766,0.746,62.646c0.001,0.112-0.007,0.245,0.003,0.354
																									c0.042,0.44,0.257,0.312,0.416,0.279c0.104-0.021,0.181,0.188,0.281,0.214
																									c0.058,0.019,0.099-0.055,0.15-0.069c0.074-0.021,0.216-0.299,0.288-0.275
																									c0.225,0.073,0.298-0.723,0.316-0.744c-0.058,0.36,0.01,0.946,0.153,1.142
																									c0.066,0.091,0.119,0.172,0.194,0.175c0.15,0.005,0.289-0.206,0.445-0.113
																									c0.13,0.077,0.252,0.273,0.39,0.308c0.298,0.079,0.473-0.354,0.504-1.01
																									c-0.022,0.457,0.026,0.949,0.083,1.387c0.05,0.372,0.116,0.305,0.262,0.247
																									c0.169-0.063,0.311,0.055,0.469-0.171c0.104-0.15,0.165-0.156,0.294-0.152
																									c0.32,0.007,0.57,0.037,0.877-0.174c0.035-0.022,0.091-0.129,0.122-0.133
																									c0.066-0.01,0.067,0.074,0.13,0.124c0.36,0.286,0.356-0.998,0.422-1.439
																									c-0.021,0.142,0.08,0.689,0.101,0.847c0.031,0.229,0.057,0.532,0.157,0.597
																									c0.146,0.093,0.313-0.051,0.454-0.126c0.142-0.074,0.14-0.314,0.136-0.607
																									c0.011,0.188,0.084,0.355,0.163,0.37c0.228,0.039,0.382,0.019,0.566,0.006
																									c0.34-0.024,0.284-1.286,0.297-1.793C69.844,592.211,69.367,571.257,69.178,550.766z"/>
																							</g>
																						</g>
																					</g>
																					<g id="bin">
																						<g>
																							<defs>
																								<path id="SVGID_42_" d="M60.726,557.304c0.208,17.02,0.417,34.037,0.625,51.057
																									c0.007,0.601-1.338,1.028-3.002,0.928c-0.514-0.03-1.028-0.063-1.542-0.097
																									c-1.663-0.113-2.804-0.716-2.815-1.314c-0.322-17.036-0.625-34.086-0.928-51.13
																									c-0.012-0.603,1.103-0.959,2.8-0.829c0.524,0.041,1.081,0.078,1.63,0.113
																									C59.271,556.149,60.719,556.702,60.726,557.304z"/>
																							</defs>
																							<clipPath id="SVGID_43_">
																								<use xlink:href="#SVGID_42_"  overflow="visible"/>
																							</clipPath>
																							<g clip-path="url(#SVGID_43_)">
																								<g>
																									<path id="XMLID_29_" fill="#AC6B2F" d="M60.75,550.521c-0.116-0.305-0.308-0.227-0.446-0.29
																										c-0.057-0.026-0.152-0.059-0.203-0.109c-0.08-0.081-0.088-0.229-0.144-0.351
																										c-0.125-0.273-0.356-0.348-0.515-0.258c-0.183,0.103-0.238,0.407-0.31,0.744
																										c-0.022,0.103-0.058,0.498-0.119,0.479c-0.037-0.011-0.085-0.3-0.157-0.336
																										c-0.075-0.037-0.166,0.007-0.234,0.01c-0.075,0.003-0.17,0.02-0.236-0.062
																										c-0.11-0.134-0.153-0.282-0.278-0.348c-0.137-0.068-0.237-0.04-0.348,0.149
																										c0.009-0.195,0.038-0.519-0.057-0.656c-0.052-0.076-0.12-0.111-0.179-0.144
																										c-0.122-0.065-0.25-0.079-0.37-0.036c-0.201,0.07-0.247-0.122-0.434-0.291
																										c-0.096-0.086-0.164-0.041-0.263,0.014c-0.104,0.059-0.03,1.603-0.026,1.786
																										c0.009,0.373,0.004,0.771-0.024,1.127c-0.045-0.806-0.098-1.677-0.193-2.466
																										c-0.119-0.983-0.513-0.617-0.781-0.423c-0.081,0.062-0.171,0.035-0.257,0.029
																										c-0.198-0.018-0.411-0.022-0.597,0.071c-0.034,0.018-0.359,0.361-0.31,0.513
																										c-0.083-0.259-0.085-0.245-0.222-0.258c-0.108-0.012-0.225-0.053-0.33-0.033
																										c-0.16,0.031-0.181,0.261-0.283,0.479c-0.091-0.183-0.089-0.27-0.213-0.298
																										c-0.06-0.014-0.124-0.046-0.177,0.015c-0.05,0.057-0.065,0.214-0.124,0.203
																										c0.346,20.915,0.742,41.828,1.136,62.739c0.001,0.11-0.003,0.243,0.006,0.354
																										c0.039,0.443,0.225,0.325,0.362,0.298c0.089-0.02,0.158,0.191,0.248,0.224
																										c0.051,0.019,0.087-0.052,0.134-0.063c0.065-0.021,0.189-0.292,0.255-0.265
																										c0.205,0.08,0.266-0.714,0.282-0.734c-0.05,0.355,0.017,0.947,0.151,1.146
																										c0.064,0.094,0.114,0.178,0.184,0.184c0.142,0.009,0.273-0.194,0.425-0.1
																										c0.127,0.081,0.248,0.284,0.386,0.325c0.297,0.09,0.468-0.337,0.493-0.992
																										c-0.017,0.457,0.036,0.949,0.098,1.392c0.053,0.373,0.117,0.309,0.263,0.258
																										c0.168-0.058,0.312,0.064,0.465-0.154c0.104-0.146,0.164-0.148,0.292-0.143
																										c0.319,0.021,0.57,0.059,0.874-0.14c0.034-0.023,0.09-0.125,0.12-0.13c0.066-0.007,0.068,0.076,0.131,0.13
																										c0.362,0.301,0.344-0.984,0.407-1.427c-0.02,0.141,0.086,0.693,0.108,0.853
																										c0.033,0.229,0.062,0.535,0.164,0.604c0.145,0.098,0.312-0.041,0.451-0.108
																										c0.141-0.071,0.136-0.312,0.129-0.604c0.013,0.188,0.089,0.358,0.167,0.375
																										c0.229,0.045,0.383,0.033,0.566,0.026c0.34-0.013,0.271-1.275,0.279-1.782
																										C61.817,591.979,61.143,571.025,60.75,550.521z"/>
																								</g>
																							</g>
																						</g>
																						<g>
																							<g>
																								<g>
																									<path id="XMLID_6_" fill="#AC6B2F" d="M52.805,549.936c-0.094-0.308-0.25-0.239-0.361-0.311
																										c-0.045-0.028-0.121-0.064-0.161-0.117c-0.064-0.085-0.072-0.231-0.117-0.355
																										c-0.101-0.281-0.283-0.361-0.407-0.279c-0.143,0.097-0.182,0.396-0.236,0.732
																										c-0.017,0.102-0.04,0.496-0.089,0.476c-0.028-0.012-0.068-0.303-0.126-0.341c-0.059-0.041-0.129,0-0.181,0
																										c-0.058,0-0.132,0.01-0.184-0.073c-0.088-0.138-0.121-0.289-0.22-0.358
																										c-0.106-0.074-0.185-0.052-0.269,0.137c0.005-0.197,0.027-0.519-0.05-0.662
																										c-0.042-0.077-0.095-0.114-0.141-0.148c-0.096-0.072-0.195-0.09-0.29-0.052
																										c-0.157,0.063-0.194-0.133-0.343-0.307c-0.078-0.092-0.13-0.052-0.208,0.001
																										c-0.083,0.054-0.012,1.602-0.006,1.785c0.009,0.375,0.009,0.771-0.011,1.128
																										c-0.042-0.808-0.092-1.682-0.176-2.477c-0.105-0.991-0.432-0.641-0.666-0.455
																										c-0.072,0.057-0.152,0.027-0.229,0.018c-0.181-0.025-0.378-0.042-0.557,0.044
																										c-0.033,0.017-0.35,0.344-0.301,0.498c-0.085-0.264-0.086-0.249-0.227-0.27
																										c-0.11-0.016-0.232-0.062-0.345-0.05c-0.169,0.023-0.191,0.253-0.301,0.467
																										c-0.103-0.188-0.1-0.273-0.24-0.31c-0.066-0.019-0.141-0.051-0.202,0.006
																										c-0.057,0.054-0.071,0.21-0.141,0.196c0.598,20.964,1.21,41.924,1.777,62.887
																										c0.003,0.108-0.001,0.243,0.01,0.353c0.043,0.446,0.223,0.335,0.354,0.313
																										c0.085-0.015,0.152,0.2,0.236,0.235c0.048,0.021,0.08-0.048,0.123-0.061
																										c0.061-0.016,0.171-0.283,0.23-0.255c0.185,0.09,0.229-0.702,0.244-0.724
																										c-0.042,0.356,0.023,0.949,0.141,1.153c0.055,0.098,0.098,0.183,0.157,0.19
																										c0.121,0.017,0.227-0.186,0.351-0.081c0.104,0.086,0.203,0.294,0.312,0.341
																										c0.234,0.099,0.363-0.321,0.377-0.977c-0.01,0.456,0.035,0.953,0.086,1.395
																										c0.045,0.378,0.095,0.315,0.208,0.27c0.129-0.054,0.241,0.078,0.36-0.139
																										c0.08-0.143,0.125-0.145,0.227-0.132c0.248,0.033,0.443,0.078,0.682-0.106
																										c0.026-0.021,0.07-0.122,0.094-0.125c0.051-0.004,0.053,0.079,0.104,0.135
																										c0.288,0.312,0.266-0.974,0.311-1.412c-0.015,0.14,0.075,0.697,0.094,0.855
																										c0.028,0.232,0.053,0.537,0.135,0.609c0.117,0.101,0.251-0.028,0.363-0.094
																										c0.114-0.064,0.109-0.305,0.101-0.599c0.012,0.188,0.075,0.363,0.14,0.382
																										c0.185,0.056,0.315,0.048,0.47,0.049c0.285,0.001,0.217-1.267,0.221-1.774
																										C54.034,591.385,53.285,570.468,52.805,549.936z"/>
																								</g>
																							</g>
																						</g>
																					</g>
																				</g>
																			</g>
																		</g>
																		<g id="screens">
																			
																				<rect id="_x33_20x480px" x="319.5" y="2.5" fill="none" stroke="#010101" stroke-miterlimit="10" width="320" height="480"/>
																			
																				<rect id="_x39_60x540px" x="-0.5" y="0.5" fill="none" stroke="#010101" stroke-miterlimit="10" width="960" height="540"/>
																		</g>
																	</g>
																</g>
															</g>
														</g>
													</g>
												</g>
											</g>
										</g>
									</g>
								</g>
							</g>
						</g>
					</g>
				</g>
			</g>
		</g>
	</g>
</g>
</svg>
