<?xml version="1.0" encoding="utf-8"?>
<!-- Generator: Adobe Illustrator 16.0.0, SVG Export Plug-In . SVG Version: 6.00 Build 0)  -->
<!DOCTYPE svg PUBLIC "-//W3C//DTD SVG 1.1//EN" "http://www.w3.org/Graphics/SVG/1.1/DTD/svg11.dtd">
<svg version="1.1" id="Layer_1" xmlns="http://www.w3.org/2000/svg" xmlns:xlink="http://www.w3.org/1999/xlink" x="0px" y="0px"
	 width="1920px" height="1071.21px" viewBox="0 0 1920 1071.21" enable-background="new 0 0 1920 1071.21" xml:space="preserve">
<g id="foreground">
	<path id="foreground-grass" fill="#569B44" stroke="#000000" stroke-width="0.25" d="M0,671.209c106.652,0,693.305,0,799.959,0
		c106.65,0,261.297,0,367.948,0c106.653,0,645.438,0,752.093,0c0-17.812,0-43.637,0-61.449c0-17.809,0-50.049,0-67.854
		c0-17.812,0-73.694,0-91.502c-90.564,2.232-394.131-3.59-495.443,14.746C1319.264,484.211,924.35,516.926,819.954,500
		C641.238,471.031,83.632,460.466,0,450.4c0,17.809,0,79.469,0,97.278c0,17.812,0,52.285,0,70.1C0,635.586,0,653.396,0,671.209z"/>
	<g id="road">
		<rect id="road_1_" y="582" fill="#919191" width="1920" height="489"/>
		<g>
			<g>
				<rect id="XMLID_24_" y="583.48" fill="#C6C6C6" width="1920" height="44.005"/>
			</g>
		</g>
	</g>
	<g>
		<g>
			<path fill="#7D5A6C" d="M1352.188,233.449c-72.104,0-130.551,52.455-130.551,117.165c0,64.702,58.446,117.159,130.551,117.159
				c72.102,0,130.553-52.457,130.553-117.159C1482.736,285.904,1424.285,233.449,1352.188,233.449z"/>
			<g>
				<rect x="1347.165" y="319.667" fill="#402837" width="10.042" height="218.021"/>
			</g>
			<g>
				<polygon fill="#402837" points="1300.286,373.646 1348.635,417.042 1355.736,410.668 1307.383,367.273 				"/>
			</g>
			<g>
				<polygon fill="#402837" points="1348.635,380.158 1355.736,386.533 1404.086,343.138 1396.986,336.764 				"/>
			</g>
		</g>
		<g>
			<path fill="#D65742" d="M1413.895,398.684c-32.941,0-59.646,23.961-59.646,53.527s26.705,53.535,59.646,53.535
				c32.944,0,59.649-23.969,59.649-53.535S1446.839,398.684,1413.895,398.684z"/>
			<g>
				<rect x="1408.873" y="438.078" fill="#402837" width="10.041" height="99.609"/>
			</g>
			<g>
				<polygon fill="#402837" points="1388.254,464.473 1410.344,484.297 1417.444,477.923 1395.354,458.1 				"/>
			</g>
			<g>
				<polygon fill="#402837" points="1410.344,463.986 1417.444,470.359 1439.535,450.526 1432.436,444.162 				"/>
			</g>
		</g>
		<ellipse fill="#F79561" cx="1437.929" cy="420.503" rx="5.382" ry="4.83"/>
		<ellipse fill="#F79561" cx="1424.201" cy="414.306" rx="4.291" ry="3.853"/>
		<path fill="#B08099" d="M1424.939,298.07c-4.043,0-7.318,2.938-7.318,6.563c0,3.632,3.275,6.575,7.318,6.575
			s7.319-2.939,7.319-6.575C1432.263,301.008,1428.982,298.07,1424.939,298.07z"/>
		<path fill="#B08099" d="M1400.539,302.294c-4.045,0-7.323,2.938-7.323,6.567s3.278,6.571,7.323,6.571
			c4.043,0,7.324-2.94,7.324-6.571S1404.582,302.294,1400.539,302.294z"/>
		<path fill="#B08099" d="M1344.863,270.936c-4.045,0-7.319,2.944-7.319,6.568c0,3.631,3.274,6.575,7.319,6.575
			c4.043,0,7.322-2.944,7.322-6.575C1352.188,273.88,1348.906,270.936,1344.863,270.936z"/>
	</g>
	<g>
		<g>
			<path fill="#A65851" d="M443.591,336.425c45.295,0,82.013,32.954,82.013,73.604c0,40.649-36.717,73.604-82.013,73.604
				c-45.295,0-82.013-32.955-82.013-73.604C361.578,369.379,398.296,336.425,443.591,336.425z"/>
			<g>
				<rect x="438.571" y="392.442" fill="#402837" width="10.044" height="123.883"/>
			</g>
			<g>
				<polygon fill="#402837" points="474.619,424.494 447.142,449.149 440.045,442.777 467.516,418.122 				"/>
			</g>
			<g>
				<polygon fill="#402837" points="447.142,425.438 440.045,431.812 412.568,407.154 419.666,400.782 				"/>
			</g>
		</g>
		<g>
			<path fill="#7D5A6C" d="M591.253,212.084c72.104,0,130.548,52.456,130.548,117.166c0,64.701-58.444,117.158-130.548,117.158
				c-72.099,0-130.548-52.457-130.548-117.158C460.705,264.54,519.154,212.084,591.253,212.084z"/>
			<g>
				<rect x="586.233" y="298.303" fill="#402837" width="10.041" height="218.022"/>
			</g>
			<g>
				<polygon fill="#402837" points="643.155,352.281 594.804,395.677 587.704,389.303 636.057,345.909 				"/>
			</g>
			<g>
				<polygon fill="#402837" points="594.804,358.794 587.704,365.168 539.354,321.771 546.453,315.4 				"/>
			</g>
		</g>
		<g>
			<path fill="#D65742" d="M529.545,377.32c32.945,0,59.648,23.961,59.648,53.521c0,29.566-26.703,53.536-59.648,53.536
				c-32.945,0-59.648-23.97-59.648-53.536C469.897,401.281,496.601,377.32,529.545,377.32z"/>
			<g>
				<rect x="524.524" y="416.715" fill="#402837" width="10.041" height="99.61"/>
			</g>
			<g>
				<polygon fill="#402837" points="555.187,443.107 533.096,462.932 525.995,456.559 548.085,436.735 				"/>
			</g>
			<g>
				<polygon fill="#402837" points="533.096,442.622 525.995,448.995 503.903,429.163 511.004,422.798 				"/>
			</g>
		</g>
		<ellipse fill="#F79561" cx="505.511" cy="399.139" rx="5.381" ry="4.829"/>
		<ellipse fill="#F79561" cx="519.238" cy="392.942" rx="4.292" ry="3.853"/>
		<path fill="#B08099" d="M518.5,276.707c4.042,0,7.319,2.937,7.319,6.568c0,3.631-3.277,6.575-7.319,6.575
			c-4.043,0-7.324-2.944-7.324-6.575C511.177,279.643,514.458,276.707,518.5,276.707z"/>
		<path fill="#B08099" d="M542.9,280.93c4.047,0,7.324,2.937,7.324,6.568s-3.277,6.575-7.324,6.575
			c-4.042,0-7.324-2.944-7.324-6.575C535.577,283.867,538.858,280.93,542.9,280.93z"/>
		<path fill="#B08099" d="M598.578,249.572c4.042,0,7.319,2.945,7.319,6.568c0,3.631-3.277,6.575-7.319,6.575
			c-4.044,0-7.324-2.944-7.324-6.575C591.253,252.517,594.534,249.572,598.578,249.572z"/>
		<path fill="#D65742" d="M416.119,359.22c4.046,0,7.323,2.943,7.323,6.575c0,3.63-3.277,6.573-7.323,6.573
			c-4.047,0-7.323-2.943-7.323-6.573C408.796,362.163,412.071,359.22,416.119,359.22z"/>
		<path fill="#D65742" d="M398.937,377.32c4.043,0,7.324,2.936,7.324,6.564s-3.281,6.573-7.324,6.573
			c-4.047,0-7.324-2.942-7.324-6.573S394.89,377.32,398.937,377.32z"/>
	</g>
	<g id="streetlamp">
		<path d="M629.9,600.442c2.64,0,4.8-2.157,4.8-4.795V389.671c0-2.638-2.16-4.794-4.8-4.794s-4.798,2.156-4.798,4.794V595.65
			C625.102,598.285,627.26,600.442,629.9,600.442z"/>
		<path d="M625.209,600.442c3.127,0,6.254,0,9.381,0c1.06,0.001,1.92-0.858,1.92-1.918c0-23.969,0-47.933,0-71.896
			c0-1.062-0.852-1.75-1.91-1.604c-3.12,0.419-6.283,0.419-9.403,0c-1.058-0.146-1.909,0.546-1.909,1.604
			c0,23.964,0,47.928,0,71.896C623.29,599.585,624.148,600.442,625.209,600.442z"/>
		<ellipse id="XMLID_71_" fill="#F4F5D9" cx="630.853" cy="353.953" rx="26.281" ry="26.255"/>
		<path d="M625.907,390.627h7.986c1.855,0,3.36-1.502,3.36-3.354c0-1.854-1.504-3.355-3.36-3.355h-7.986
			c-1.855,0-3.359,1.502-3.359,3.355C622.548,389.125,624.051,390.627,625.907,390.627z"/>
		<path d="M623.901,385.832h11.998c1.854,0,3.359-1.502,3.359-3.355c0-1.853-1.504-3.354-3.359-3.354h-11.998
			c-1.855,0-3.358,1.504-3.358,3.354C620.543,384.33,622.046,385.832,623.901,385.832z"/>
		<path d="M641.524,601.891c-1.141-4.775-2.225-9.336-3.479-13.311c-0.036-0.109-0.21-0.428-0.267-0.553
			c-0.142-0.311-0.246-0.406-0.693-0.389c-0.821-0.016-1.229,0.188-1.229,0.188c-1.05,0.195-1.859,0.188-4.018,0.369
			c-1.74,0.146-2.725-0.025-4.769-0.086c-0.422-0.018-0.525-0.061-0.93-0.062c-0.199,0-0.576-0.064-0.989-0.088
			c-0.405-0.018-1.963-0.27-2.668-0.322c-0.225,0.246-0.261,0.184-0.409,0.535c-0.06,0.146-0.264,0.654-0.313,0.82
			c-0.953,3.242-2.984,8.811-3.508,13.562c-0.06,0.473,2.155,1.055,3.542,1.352c0.566,0.121,0.646-0.064,1.37,0
			c0.998,0.09,1.05,0.416,1.794,0.416c2.561,0,5.561,0.463,9.254,0c2.575-0.324,5.062-0.795,6.802-1.474L641.524,601.891z"/>
	</g>
</g>
</svg>
