<svg version="1.1" xmlns="http://www.w3.org/2000/svg" xmlns:xlink="http://www.w3.org/1999/xlink" x="0px" y="0px" width="5000px"
	 height="5000px" viewBox="0 1000 5000 5000" enable-background="new 0 0 5000 5000" xml:space="preserve">
<g id="BG">
	<rect id="XMLID_3_" fill="#FFFFFF" width="5000" height="5000"/>
</g>
<g id="POST_BOX">
	<g id="XMLID_4_">
		<g id="XMLID_622_">
			<rect id="XMLID_732_" x="2032.743" y="1162.478" fill="#CC0C0B" width="934.514" height="2166.372"/>
		</g>
		<g id="XMLID_589_">
			<g id="XMLID_618_">
				<g id="XMLID_621_">
					<path id="XMLID_730_" fill="#B80201" d="M3009.734,1842.124c0,11.723-4.758,22.342-12.403,30.075
						c-7.731,7.645-18.352,12.403-30.074,12.403h-934.514c-23.448,0-42.478-19.03-42.478-42.478c0-4.418,0.68-8.666,1.869-12.743
						c2.124-6.457,5.606-12.233,10.194-16.991c0.17-0.085,0.255-0.255,0.34-0.34c7.732-7.645,18.352-12.403,30.074-12.403h934.514
						c11.893,0,22.597,4.928,30.415,12.743c4.588,4.758,8.07,10.534,10.193,16.991
						C3009.055,1833.458,3009.734,1837.706,3009.734,1842.124z"/>
				</g>
				<g id="XMLID_620_" opacity="0.8">
					<path id="XMLID_643_" fill="#FFFBFA" d="M2997.671,1812.39h-995.342c-4.587,4.757-8.071,10.534-10.194,16.991h1015.73
						L2997.671,1812.39z"/>
				</g>
				<g id="XMLID_619_" opacity="0.8">
					<rect id="XMLID_642_" x="2032.743" y="1876.106" width="934.514" height="16.991"/>
				</g>
			</g>
			<g id="XMLID_614_">
				<g id="XMLID_617_">
					<path id="XMLID_723_" fill="#B80201" d="M3009.734,3269.381c0,11.723-4.758,22.342-12.403,30.074
						c-7.731,7.646-18.352,12.403-30.074,12.403h-934.514c-23.448,0-42.478-19.03-42.478-42.478c0-4.418,0.68-8.666,1.869-12.744
						c2.124-6.456,5.606-12.232,10.194-16.99c0.17-0.086,0.255-0.256,0.34-0.341c7.732-7.646,18.352-12.403,30.074-12.403h934.514
						c11.893,0,22.597,4.929,30.415,12.744c4.588,4.758,8.07,10.534,10.193,16.99
						C3009.055,3260.715,3009.734,3264.963,3009.734,3269.381z"/>
				</g>
				<g id="XMLID_616_" opacity="0.8">
					<path id="XMLID_641_" fill="#FFFBFA" d="M2997.671,3239.646h-995.342c-4.587,4.757-8.071,10.534-10.194,16.99h1015.73
						L2997.671,3239.646z"/>
				</g>
				<g id="XMLID_615_" opacity="0.8">
					<rect id="XMLID_640_" x="2032.743" y="3311.858" width="934.514" height="16.991"/>
				</g>
			</g>
			<g id="XMLID_613_" opacity="0.8">
				<rect id="XMLID_639_" x="2032.743" y="1408.85" width="934.514" height="16.991"/>
			</g>
			<g id="XMLID_612_">
				<path id="XMLID_714_" fill="#B80201" d="M3009.734,1374.868c0,11.723-4.758,22.342-12.403,30.075
					c-7.731,7.645-18.352,12.403-30.074,12.403h-934.514c-23.448,0-42.478-19.03-42.478-42.478c0-4.418,0.68-8.666,1.869-12.744
					c2.124-6.457,5.606-12.233,10.194-16.991c0.17-0.085,0.255-0.255,0.34-0.34c7.732-7.646,18.352-12.403,30.074-12.403h934.514
					c11.893,0,22.597,4.928,30.415,12.743c4.588,4.758,8.07,10.535,10.193,16.991
					C3009.055,1366.202,3009.734,1370.45,3009.734,1374.868z"/>
			</g>
			<g id="XMLID_611_" opacity="0.8">
				<path id="XMLID_638_" fill="#FFFBFA" d="M2997.671,1345.133h-995.342c-4.587,4.758-8.071,10.535-10.194,16.991h1015.73
					L2997.671,1345.133z"/>
			</g>
			<g id="XMLID_610_" opacity="0.8">
				<rect id="XMLID_637_" x="2032.743" y="1153.982" width="934.514" height="16.991"/>
			</g>
			<g id="XMLID_609_">
				<path id="XMLID_708_" fill="#B80201" d="M3052.213,1098.761c0,17.586-7.138,33.472-18.69,45.027
					c-11.555,11.553-27.44,18.69-45.026,18.69h-976.992c-35.173,0-63.717-28.544-63.717-63.717c0-14.357,4.758-27.61,12.914-38.23
					c1.699-2.379,3.652-4.673,5.776-6.797c3.993-3.993,8.496-7.475,13.424-10.194c13.886-7.662,31.603-8.496,31.603-8.496
					c161.71-6.411,322.409-34.942,484.248-35.044c164.662-0.102,328.191,29.031,492.744,35.044
					c3.863,0.141,17.658,0.66,31.603,8.496c7.561,4.248,14.103,10.024,19.2,16.991
					C3047.454,1071.151,3052.213,1084.404,3052.213,1098.761z"/>
			</g>
			<g id="XMLID_608_" opacity="0.8">
				<path id="XMLID_636_" fill="#FFFFFF" d="M2795.346,1740.177h-590.691c-1.104,0-2-0.896-2-2V1487.31c0-1.104,0.896-2,2-2h590.691
					c1.104,0,2,0.896,2,2v250.867C2797.346,1739.282,2796.449,1740.177,2795.346,1740.177z"/>
			</g>
			<g id="XMLID_607_">
				<path id="XMLID_704_" fill="#D6160B" d="M2211.15,1730.682v-235.876c0-0.553,0.448-1,1-1h575.699c0.552,0,1,0.447,1,1v235.876
					c0,0.552-0.448,1-1,1H2212.15C2211.598,1731.682,2211.15,1731.234,2211.15,1730.682z"/>
			</g>
			<g id="XMLID_606_" opacity="0.8">
				<rect id="XMLID_635_" x="2279.115" y="1561.77" width="441.77" height="101.947"/>
			</g>
			<g id="XMLID_605_">
				<rect id="XMLID_700_" x="2287.61" y="1570.266" fill="#900201" width="424.779" height="84.956"/>
			</g>
			<g id="XMLID_604_">
				<path id="XMLID_698_" fill="#900201" d="M2049.734,1162.478h-42.478v-82.456c0-1.381,1.119-2.5,2.5-2.5h37.478
					c1.381,0,2.5,1.119,2.5,2.5V1162.478z"/>
			</g>
			<g id="XMLID_603_">
				<path id="XMLID_696_" fill="#900201" d="M2134.69,1162.478h-42.478v-82.456c0-1.381,1.119-2.5,2.5-2.5h37.478
					c1.381,0,2.5,1.119,2.5,2.5V1162.478z"/>
			</g>
			<g id="XMLID_602_">
				<path id="XMLID_694_" fill="#900201" d="M2219.646,1162.478h-42.478v-82.456c0-1.381,1.12-2.5,2.5-2.5h37.478
					c1.381,0,2.5,1.119,2.5,2.5V1162.478z"/>
			</g>
			<g id="XMLID_601_">
				<path id="XMLID_692_" fill="#900201" d="M2304.602,1162.478h-42.478v-82.456c0-1.381,1.119-2.5,2.5-2.5h37.478
					c1.381,0,2.5,1.119,2.5,2.5V1162.478z"/>
			</g>
			<g id="XMLID_600_">
				<path id="XMLID_690_" fill="#900201" d="M2389.558,1162.478h-42.478v-82.456c0-1.381,1.119-2.5,2.5-2.5h37.478
					c1.381,0,2.5,1.119,2.5,2.5V1162.478z"/>
			</g>
			<g id="XMLID_599_">
				<path id="XMLID_688_" fill="#900201" d="M2474.513,1162.478h-42.478v-82.456c0-1.381,1.12-2.5,2.5-2.5h37.478
					c1.381,0,2.5,1.119,2.5,2.5V1162.478z"/>
			</g>
			<g id="XMLID_598_">
				<path id="XMLID_686_" fill="#900201" d="M2559.469,1162.478h-42.478v-82.456c0-1.381,1.119-2.5,2.5-2.5h37.478
					c1.381,0,2.5,1.119,2.5,2.5V1162.478z"/>
			</g>
			<g id="XMLID_597_">
				<path id="XMLID_684_" fill="#900201" d="M2644.425,1162.478h-42.478v-82.456c0-1.381,1.119-2.5,2.5-2.5h37.478
					c1.381,0,2.5,1.119,2.5,2.5V1162.478z"/>
			</g>
			<g id="XMLID_596_">
				<path id="XMLID_682_" fill="#900201" d="M2729.381,1162.478h-42.479v-82.456c0-1.381,1.119-2.5,2.5-2.5h37.479
					c1.381,0,2.5,1.119,2.5,2.5V1162.478z"/>
			</g>
			<g id="XMLID_595_">
				<path id="XMLID_680_" fill="#900201" d="M2814.336,1162.478h-42.478v-82.456c0-1.381,1.119-2.5,2.5-2.5h37.478
					c1.381,0,2.5,1.119,2.5,2.5V1162.478z"/>
			</g>
			<g id="XMLID_594_">
				<path id="XMLID_678_" fill="#900201" d="M2899.292,1162.478h-42.478v-82.456c0-1.381,1.119-2.5,2.5-2.5h37.478
					c1.381,0,2.5,1.119,2.5,2.5V1162.478z"/>
			</g>
			<g id="XMLID_593_">
				<path id="XMLID_676_" fill="#900201" d="M2984.248,1162.478h-42.479v-82.456c0-1.381,1.119-2.5,2.5-2.5h37.479
					c1.381,0,2.5,1.119,2.5,2.5V1162.478z"/>
			</g>
			<g id="XMLID_592_" opacity="0.8">
				<path id="XMLID_634_" fill="#FFFBFA" d="M3039.299,1060.531H1960.701c1.699-2.379,3.652-4.673,5.776-6.797
					c3.993-3.993,8.496-7.475,13.424-10.194h1040.197C3027.659,1047.788,3034.201,1053.564,3039.299,1060.531z"/>
			</g>
			<g id="XMLID_591_">
				<path id="XMLID_672_" fill="#0E0A09" d="M3026.726,3378.379v563.596c0,32.028-25.997,58.025-58.025,58.025h-928.905
					c-32.029,0-58.025-25.997-58.025-58.025v-563.596c0-2.379,0.17-4.758,0.51-7.052c1.358-12.063,6.542-22.938,14.357-31.603
					c10.534-11.896,25.997-19.37,43.158-19.37H2968.7c17.161,0,32.624,7.475,43.158,19.37c7.815,8.665,12.998,19.54,14.356,31.603
					C3026.556,3373.621,3026.726,3376,3026.726,3378.379z"/>
			</g>
			<g id="XMLID_590_">
				<path id="XMLID_5_" fill="#FFFFFF" d="M3026.215,3371.327H1982.28c1.358-12.063,6.542-22.938,14.357-31.603h1015.221
					C3019.674,3348.39,3024.856,3359.265,3026.215,3371.327z"/>
			</g>
		</g>
		<g id="XMLID_588_">
			<path id="XMLID_623_" fill="#FFFFFF" d="M2270.959,2827.146h63.256c32.199,0,46.709,21.537,46.709,49.878
				c0,33.103-18.82,50.335-53.056,50.335h-14.739v61.667h-42.171V2827.146z M2313.13,2896.978h7.936
				c10.657,0,16.328-6.123,16.328-19.729c0-13.373-5.671-19.721-16.328-19.721h-7.936V2896.978z"/>
			<path id="XMLID_626_" fill="#FFFFFF" d="M2447.375,2823.969c43.08,0,57.818,23.578,57.818,84.117
				c0,60.531-14.738,84.118-57.818,84.118c-43.075,0-57.814-23.587-57.814-84.118
				C2389.562,2847.547,2404.3,2823.969,2447.375,2823.969z M2447.375,2963.631c12.926,0,14.287-11.789,14.287-55.545
				c0-43.755-1.361-55.553-14.287-55.553c-12.921,0-14.283,11.798-14.283,55.553
				C2433.093,2951.842,2434.454,2963.631,2447.375,2963.631z"/>
			<path id="XMLID_630_" fill="#FFFFFF" d="M2583.434,2873.847v-3.85c0-9.524-3.854-17.464-12.014-17.464
				c-9.072,0-13.154,7.035-13.154,14.287c0,31.966,68.928,16.327,68.928,75.497c0,34.464-20.178,49.887-57.362,49.887
				c-34.915,0-54.416-12.021-54.416-45.572v-5.675h40.814v3.857c0,13.83,5.666,18.816,13.83,18.816
				c8.615,0,13.603-6.803,13.603-15.639c0-31.975-66.206-16.104-66.206-73.465c0-32.646,17.46-50.559,53.056-50.559
				c36.729,0,52.375,15.19,52.375,49.878H2583.434z"/>
			<path id="XMLID_632_" fill="#FFFFFF" d="M2663.494,2862.971h-31.742v-35.824h105.651v35.824h-31.738v126.056h-42.171V2862.971z"
				/>
		</g>
		<g id="XMLID_364_">
			<g id="XMLID_587_">
				<path id="XMLID_656_" fill="#900201" d="M2500,2144.986c-20.584,0-37.329-16.749-37.329-37.329
					c0-20.581,16.745-37.329,37.329-37.329s37.329,16.748,37.329,37.329C2537.329,2128.238,2520.584,2144.986,2500,2144.986z"/>
			</g>
			<g id="XMLID_586_">
				<circle id="XMLID_654_" fill="#121316" cx="2500" cy="2107.657" r="26.664"/>
			</g>
			<g id="XMLID_577_">
				<path id="XMLID_652_" fill="#898989" d="M2500,2133.789c-14.407,0-26.13-11.723-26.13-26.132
					c0-14.41,11.723-26.133,26.13-26.133s26.13,11.723,26.13,26.133C2526.13,2122.066,2514.407,2133.789,2500,2133.789z"/>
			</g>
			<g id="XMLID_519_">
				<rect id="XMLID_650_" x="2500" y="2107.657" fill="#424451" width="0" height="0"/>
			</g>
			<g id="XMLID_407_">
				<path id="XMLID_648_" fill="#121316" d="M2504.705,2123.655h-9.41c-0.347,0-0.628-0.281-0.628-0.628v-30.741
					c0-0.347,0.281-0.628,0.628-0.628h9.41c0.347,0,0.628,0.281,0.628,0.628v30.741
					C2505.333,2123.374,2505.052,2123.655,2504.705,2123.655z"/>
			</g>
		</g>
	</g>
	<g id="XMLID_18_">
		
			<rect id="XMLID_130_" x="2396.82" y="1742.233" transform="matrix(0.8579 0.5138 -0.5138 0.8579 1341.1505 -1091.5803)" fill="#EBE7DB" width="494.73" height="273.632"/>
		<g id="XMLID_116_">
			<polygon id="XMLID_584_" fill="none" points="2729.234,2070.824 2746.471,2081.146 2724.539,2086.648 2707.303,2076.326 			"/>
			<polygon id="XMLID_585_" fill="none" points="2833.785,2044.595 2823.461,2061.835 2798.232,2068.164 2808.558,2050.924 			"/>
			<polygon id="XMLID_582_" fill="none" points="2694.43,2049.979 2711.998,2060.501 2690.066,2066.003 2672.498,2055.481 			"/>
			<polygon id="XMLID_583_" fill="none" points="2854.63,2009.79 2844.107,2027.359 2818.88,2033.688 2829.402,2016.119 			"/>
			<polygon id="XMLID_580_" fill="none" points="2659.953,2029.332 2677.193,2039.657 2655.262,2045.159 2638.021,2034.834 			"/>
			<polygon id="XMLID_581_" fill="none" points="2875.274,1975.317 2864.952,1992.554 2839.725,1998.883 2850.047,1981.646 			"/>
			<polygon id="XMLID_578_" fill="none" points="2381.9,1834.87 2407.127,1828.541 2396.803,1845.781 2371.575,1852.11 			"/>
			<polygon id="XMLID_579_" fill="none" points="2719.673,1764.783 2697.741,1770.285 2680.506,1759.963 2702.438,1754.461 			"/>
			<polygon id="XMLID_554_" fill="none" points="2813.138,2079.071 2802.615,2096.641 2759.344,2107.493 2741.774,2096.971 
				2763.706,2091.469 2778.846,2100.535 2787.91,2085.4 			"/>
			<polygon id="XMLID_575_" fill="none" points="2625.147,2008.487 2642.717,2019.009 2620.785,2024.511 2603.216,2013.989 			"/>
			<polygon id="XMLID_576_" fill="none" points="2896.119,1940.512 2885.598,1958.082 2860.369,1964.411 2870.892,1946.841 			"/>
			<polygon id="XMLID_501_" fill="none" points="2786.407,2123.7 2792.291,2113.875 2776.582,2117.816 			"/>
			<polygon id="XMLID_573_" fill="none" points="2452.446,1905.058 2469.682,1915.38 2447.75,1920.882 2430.515,1910.56 			"/>
			<polygon id="XMLID_574_" fill="none" points="2823.094,1826.721 2801.162,1832.223 2783.926,1821.9 2805.857,1816.398 			"/>
			<polygon id="XMLID_571_" fill="none" points="2402.545,1800.398 2427.772,1794.069 2417.45,1811.305 2392.223,1817.634 			"/>
			<polygon id="XMLID_572_" fill="none" points="2685.197,1744.136 2663.266,1749.638 2646.029,1739.315 2667.961,1733.813 			"/>
			<polygon id="XMLID_569_" fill="none" points="2417.974,1884.413 2435.21,1894.735 2413.278,1900.237 2396.042,1889.915 			"/>
			<polygon id="XMLID_570_" fill="none" points="2788.621,1806.076 2766.689,1811.578 2749.453,1801.255 2771.385,1795.753 			"/>
			<polygon id="XMLID_567_" fill="none" points="2590.676,1987.842 2607.912,1998.165 2585.98,2003.667 2568.744,1993.344 			"/>
			<polygon id="XMLID_568_" fill="none" points="2916.767,1906.036 2906.444,1923.272 2881.217,1929.601 2891.539,1912.365 			"/>
			<polygon id="XMLID_565_" fill="none" points="2385.363,1864.883 2400.733,1874.088 2378.802,1879.59 2361.566,1869.268 
				2386.48,1863.018 			"/>
			<polygon id="XMLID_566_" fill="none" points="2754.146,1785.428 2732.214,1790.93 2714.978,1780.608 2736.909,1775.106 			"/>
			<polygon id="XMLID_563_" fill="none" points="2521.395,1946.351 2538.63,1956.673 2516.698,1962.175 2499.462,1951.853 			"/>
			<polygon id="XMLID_564_" fill="none" points="2892.042,1868.013 2870.11,1873.515 2852.874,1863.192 2874.806,1857.69 			"/>
			<polygon id="XMLID_561_" fill="none" points="2486.922,1925.705 2504.158,1936.028 2482.227,1941.53 2464.99,1931.207 			"/>
			<polygon id="XMLID_562_" fill="none" points="2857.569,1847.368 2835.639,1852.87 2818.402,1842.547 2840.334,1837.046 			"/>
			<polygon id="XMLID_559_" fill="none" points="2555.87,1966.998 2573.436,1977.518 2551.504,1983.02 2533.938,1972.5 			"/>
			<polygon id="XMLID_560_" fill="none" points="2901.864,1895.125 2903.007,1893.217 2887.351,1883.84 2909.282,1878.338 
				2926.848,1888.857 			"/>
			<polygon id="XMLID_557_" fill="none" points="2464.484,1696.974 2489.712,1690.645 2479.388,1707.885 2454.16,1714.214 			"/>
			<polygon id="XMLID_558_" fill="none" points="2581.777,1682.198 2559.846,1687.7 2542.609,1677.378 2564.541,1671.876 			"/>
			<polygon id="XMLID_555_" fill="none" points="2443.838,1731.45 2469.065,1725.121 2458.742,1742.357 2433.515,1748.686 			"/>
			<polygon id="XMLID_556_" fill="none" points="2616.249,1702.844 2594.317,1708.346 2577.081,1698.023 2599.013,1692.521 			"/>
			<polygon id="XMLID_411_" fill="none" points="2547.301,1661.551 2525.369,1667.053 2509.524,1657.564 2500.035,1673.409 
				2474.808,1679.737 2485.13,1662.501 2530.064,1651.229 			"/>
			<polygon id="XMLID_482_" fill="none" points="2501.961,1634.398 2495.454,1645.264 2512.827,1640.905 			"/>
			<polygon id="XMLID_552_" fill="none" points="2423.192,1765.922 2448.42,1759.593 2438.095,1776.833 2412.867,1783.162 			"/>
			<polygon id="XMLID_553_" fill="none" points="2650.725,1723.491 2628.793,1728.993 2611.557,1718.67 2633.488,1713.168 			"/>
			<polygon id="XMLID_478_" fill="#D91819" points="2512.827,1640.905 2495.454,1645.264 2485.131,1662.501 2530.064,1651.229 			
				"/>
			<polygon id="XMLID_550_" fill="#0570B8" points="2474.808,1679.737 2500.035,1673.409 2489.712,1690.645 2464.484,1696.974 			
				"/>
			<polygon id="XMLID_551_" fill="#0570B8" points="2564.541,1671.876 2542.609,1677.378 2525.369,1667.053 2547.301,1661.551 			
				"/>
			<polygon id="XMLID_548_" fill="#D91819" points="2454.16,1714.214 2479.388,1707.885 2469.065,1725.121 2443.838,1731.45 			"/>
			<polygon id="XMLID_549_" fill="#D91819" points="2599.013,1692.521 2577.081,1698.023 2559.846,1687.7 2581.777,1682.198 			"/>
			<polygon id="XMLID_546_" fill="#0570B8" points="2433.515,1748.686 2458.742,1742.357 2448.42,1759.593 2423.192,1765.922 			"/>
			<polygon id="XMLID_547_" fill="#0570B8" points="2633.488,1713.168 2611.557,1718.67 2594.317,1708.346 2616.249,1702.844 			"/>
			<polygon id="XMLID_544_" fill="#D91819" points="2412.867,1783.162 2438.095,1776.833 2427.772,1794.069 2402.545,1800.398 			
				"/>
			<polygon id="XMLID_545_" fill="#D91819" points="2667.961,1733.813 2646.029,1739.315 2628.793,1728.993 2650.725,1723.491 			
				"/>
			<polygon id="XMLID_542_" fill="#0570B8" points="2392.223,1817.634 2417.45,1811.305 2407.127,1828.541 2381.9,1834.87 			"/>
			<polygon id="XMLID_543_" fill="#0570B8" points="2702.438,1754.461 2680.506,1759.963 2663.266,1749.638 2685.197,1744.136 			
				"/>
			<polygon id="XMLID_540_" fill="#D91819" points="2371.575,1852.11 2396.803,1845.781 2386.48,1863.018 2361.566,1869.268 
				2361.37,1869.15 			"/>
			<polygon id="XMLID_541_" fill="#D91819" points="2736.909,1775.106 2714.978,1780.608 2697.741,1770.285 2719.673,1764.783 			
				"/>
			<polygon id="XMLID_538_" fill="#0570B8" points="2400.733,1874.088 2417.974,1884.413 2396.042,1889.915 2378.802,1879.59 			"/>
			<polygon id="XMLID_539_" fill="#0570B8" points="2771.385,1795.753 2749.453,1801.255 2732.214,1790.93 2754.146,1785.428 			"/>
			<polygon id="XMLID_536_" fill="#D91819" points="2435.21,1894.735 2452.446,1905.058 2430.515,1910.56 2413.278,1900.237 			"/>
			<polygon id="XMLID_537_" fill="#D91819" points="2805.857,1816.398 2783.926,1821.9 2766.689,1811.578 2788.621,1806.076 			"/>
			<polygon id="XMLID_534_" fill="#0570B8" points="2469.682,1915.38 2486.922,1925.705 2464.99,1931.207 2447.75,1920.882 			"/>
			<polygon id="XMLID_535_" fill="#0570B8" points="2840.334,1837.046 2818.402,1842.547 2801.162,1832.223 2823.094,1826.721 			
				"/>
			<polygon id="XMLID_532_" fill="#D91819" points="2504.158,1936.028 2521.395,1946.351 2499.462,1951.853 2482.227,1941.53 			"/>
			<polygon id="XMLID_533_" fill="#D91819" points="2874.806,1857.69 2852.874,1863.192 2835.639,1852.87 2857.569,1847.368 			"/>
			<polygon id="XMLID_530_" fill="#0570B8" points="2538.63,1956.673 2555.87,1966.998 2533.938,1972.5 2516.698,1962.175 			"/>
			<polygon id="XMLID_531_" fill="#0570B8" points="2909.282,1878.338 2887.351,1883.84 2870.11,1873.515 2892.042,1868.013 			"/>
			<polygon id="XMLID_528_" fill="#D91819" points="2573.436,1977.518 2590.676,1987.842 2568.744,1993.344 2551.504,1983.02 			"/>
			<polygon id="XMLID_529_" fill="#D91819" points="2927,1888.949 2916.767,1906.036 2891.539,1912.365 2901.864,1895.125 
				2926.848,1888.857 			"/>
			<polygon id="XMLID_526_" fill="#0570B8" points="2607.912,1998.165 2625.147,2008.487 2603.216,2013.989 2585.98,2003.667 			"/>
			<polygon id="XMLID_527_" fill="#0570B8" points="2906.444,1923.272 2896.119,1940.512 2870.892,1946.841 2881.217,1929.601 			
				"/>
			<polygon id="XMLID_524_" fill="#D91819" points="2642.717,2019.009 2659.953,2029.332 2638.021,2034.834 2620.785,2024.511 			
				"/>
			<polygon id="XMLID_525_" fill="#D91819" points="2885.598,1958.082 2875.274,1975.317 2850.047,1981.646 2860.369,1964.411 			
				"/>
			<polygon id="XMLID_522_" fill="#0570B8" points="2677.193,2039.657 2694.43,2049.979 2672.498,2055.481 2655.262,2045.159 			"/>
			<polygon id="XMLID_523_" fill="#0570B8" points="2864.952,1992.554 2854.63,2009.79 2829.402,2016.119 2839.725,1998.883 			"/>
			<polygon id="XMLID_520_" fill="#D91819" points="2711.998,2060.501 2729.234,2070.824 2707.303,2076.326 2690.066,2066.003 			
				"/>
			<polygon id="XMLID_521_" fill="#D91819" points="2844.107,2027.359 2833.785,2044.595 2808.558,2050.924 2818.88,2033.688 			"/>
			<polygon id="XMLID_412_" fill="#0570B8" points="2746.471,2081.146 2763.706,2091.469 2741.774,2096.971 2724.539,2086.648 			
				"/>
			<polygon id="XMLID_473_" fill="#0570B8" points="2823.461,2061.835 2813.138,2079.071 2787.91,2085.4 2798.232,2068.164 			"/>
			<polygon id="XMLID_6_" fill="#D91819" points="2776.582,2117.816 2792.291,2113.875 2802.614,2096.639 2759.346,2107.493 			"/>
		</g>
		<g id="XMLID_2_">
			<path id="XMLID_629_" fill="#0570B8" d="M2828.905,1976.68l1.075-1.795c-0.661-0.396-0.876-1.253-0.48-1.914
				c0.396-0.661,1.253-0.876,1.914-0.48l1.075-1.795c-0.661-0.396-0.876-1.252-0.48-1.914c0.396-0.661,1.253-0.875,1.914-0.48
				l1.075-1.795c-0.661-0.396-0.876-1.252-0.48-1.914c0.396-0.661,1.253-0.876,1.914-0.48l1.075-1.795
				c-0.661-0.396-0.876-1.252-0.48-1.914s1.253-0.876,1.914-0.48l1.075-1.795c-0.661-0.396-0.876-1.252-0.48-1.914
				c0.396-0.661,1.253-0.876,1.914-0.48l1.075-1.795c-0.661-0.396-0.876-1.253-0.48-1.914c0.396-0.661,1.253-0.876,1.914-0.48
				l1.075-1.796c-0.661-0.396-0.876-1.252-0.48-1.913c0.396-0.661,1.253-0.876,1.914-0.48l1.074-1.795
				c-0.66-0.396-0.875-1.253-0.479-1.914s1.253-0.876,1.913-0.48l1.076-1.795c-0.661-0.396-0.876-1.252-0.48-1.914
				c0.396-0.661,1.253-0.876,1.914-0.48l1.074-1.795c-0.66-0.396-0.875-1.252-0.479-1.914s1.253-0.876,1.913-0.48l1.076-1.795
				c-0.661-0.396-0.877-1.253-0.48-1.914c0.396-0.661,1.253-0.876,1.914-0.48l1.074-1.795c-0.66-0.396-0.875-1.253-0.479-1.914
				c0.396-0.661,1.253-0.876,1.913-0.48l1.076-1.795c-0.661-0.396-0.877-1.253-0.48-1.914c0.396-0.661,1.253-0.876,1.914-0.48
				l1.074-1.795c-0.66-0.396-0.875-1.253-0.479-1.914s1.253-0.875,1.914-0.48l1.075-1.795c-0.661-0.396-0.877-1.252-0.48-1.914
				s1.253-0.876,1.914-0.48l1.075-1.795c-0.661-0.396-0.876-1.253-0.48-1.914c0.396-0.661,1.253-0.876,1.913-0.48l1.076-1.795
				c-0.661-0.396-0.877-1.253-0.48-1.914c0.396-0.661,1.253-0.876,1.914-0.48l1.075-1.795c-0.661-0.396-0.876-1.253-0.48-1.914
				l-1.796-1.075c-0.396,0.661-1.252,0.876-1.913,0.48c-0.661-0.396-0.876-1.253-0.479-1.914l-1.796-1.075
				c-0.396,0.661-1.253,0.876-1.914,0.48c-0.661-0.396-0.876-1.253-0.479-1.914l-1.795-1.075c-0.396,0.661-1.254,0.876-1.914,0.48
				c-0.661-0.396-0.876-1.253-0.48-1.914l-1.795-1.075c-0.396,0.661-1.253,0.876-1.914,0.48c-0.66-0.396-0.876-1.253-0.48-1.914
				l-1.795-1.075c-0.396,0.661-1.252,0.875-1.913,0.48c-0.661-0.396-0.876-1.253-0.48-1.914l-1.796-1.075
				c-0.395,0.661-1.252,0.875-1.913,0.48c-0.661-0.396-0.876-1.253-0.479-1.914l-1.796-1.075c-0.396,0.661-1.253,0.876-1.913,0.48
				c-0.662-0.396-0.877-1.253-0.48-1.914l-1.795-1.075c-0.396,0.661-1.254,0.876-1.914,0.48c-0.661-0.396-0.876-1.253-0.48-1.914
				l-1.795-1.075c-0.396,0.661-1.253,0.876-1.914,0.48c-0.66-0.396-0.876-1.253-0.479-1.914l-1.796-1.075
				c-0.396,0.661-1.252,0.875-1.913,0.48c-0.661-0.396-0.876-1.253-0.48-1.914l-1.795-1.075c-0.396,0.661-1.253,0.875-1.914,0.48
				c-0.661-0.396-0.876-1.253-0.479-1.914l-1.796-1.075c-0.396,0.661-1.253,0.875-1.913,0.48c-0.661-0.396-0.877-1.253-0.48-1.914
				l-1.795-1.075c-0.396,0.661-1.253,0.875-1.914,0.48c-0.661-0.396-0.876-1.253-0.48-1.914l-1.795-1.075
				c-0.396,0.661-1.253,0.876-1.914,0.48c-0.66-0.396-0.876-1.253-0.479-1.914l-1.796-1.075c-0.396,0.661-1.252,0.876-1.914,0.48
				l-1.074,1.795c0.661,0.396,0.875,1.252,0.479,1.914s-1.252,0.876-1.913,0.48l-1.075,1.795c0.661,0.396,0.876,1.253,0.479,1.914
				c-0.396,0.661-1.252,0.876-1.913,0.48l-1.075,1.795c0.66,0.396,0.875,1.252,0.48,1.914c-0.396,0.661-1.254,0.876-1.914,0.48
				l-1.075,1.795c0.661,0.396,0.876,1.253,0.479,1.914c-0.396,0.661-1.252,0.875-1.913,0.48l-1.075,1.795
				c0.66,0.396,0.876,1.252,0.48,1.913c-0.396,0.661-1.254,0.876-1.914,0.48l-1.075,1.795c0.661,0.396,0.876,1.253,0.479,1.914
				c-0.396,0.661-1.252,0.876-1.913,0.48l-1.075,1.795c0.66,0.396,0.876,1.252,0.48,1.914c-0.396,0.661-1.254,0.876-1.914,0.48
				l-1.075,1.795c0.661,0.396,0.876,1.252,0.479,1.914c-0.396,0.661-1.252,0.876-1.913,0.48l-1.075,1.795
				c0.66,0.396,0.876,1.253,0.48,1.914c-0.396,0.661-1.254,0.876-1.914,0.48l-1.075,1.795c0.661,0.396,0.876,1.253,0.479,1.914
				c-0.396,0.661-1.252,0.876-1.913,0.48l-1.075,1.795c0.66,0.396,0.876,1.253,0.48,1.914c-0.396,0.661-1.254,0.876-1.914,0.48
				l-1.075,1.795c0.661,0.396,0.876,1.252,0.479,1.914c-0.396,0.661-1.252,0.876-1.913,0.48l-1.075,1.795
				c0.66,0.396,0.876,1.252,0.479,1.914c-0.396,0.661-1.252,0.876-1.913,0.48l-1.075,1.795c0.661,0.396,0.876,1.253,0.479,1.914
				c-0.396,0.661-1.252,0.876-1.913,0.48l-1.075,1.795c0.661,0.396,0.876,1.252,0.479,1.914c-0.396,0.661-1.252,0.876-1.913,0.48
				l-1.075,1.795c0.661,0.396,0.876,1.253,0.479,1.914c-0.396,0.661-1.252,0.876-1.913,0.48l-1.075,1.795
				c0.661,0.396,0.876,1.252,0.479,1.914c-0.396,0.661-1.252,0.876-1.913,0.48l-1.075,1.795c0.661,0.396,0.876,1.252,0.479,1.914
				l1.796,1.075c0.396-0.661,1.253-0.876,1.913-0.48c0.661,0.396,0.877,1.252,0.48,1.914l1.795,1.075
				c0.396-0.661,1.253-0.876,1.914-0.48s0.876,1.252,0.48,1.914l1.795,1.075c0.396-0.661,1.253-0.876,1.914-0.48
				c0.66,0.396,0.876,1.252,0.479,1.914l1.796,1.075c0.396-0.661,1.252-0.876,1.913-0.48s0.876,1.252,0.48,1.914l1.795,1.075
				c0.396-0.661,1.253-0.876,1.914-0.48s0.876,1.252,0.479,1.914l1.796,1.075c0.396-0.661,1.253-0.876,1.913-0.48
				c0.661,0.396,0.877,1.252,0.48,1.914l1.796,1.075c0.396-0.661,1.252-0.876,1.913-0.48s0.876,1.252,0.48,1.914l1.795,1.075
				c0.396-0.661,1.253-0.876,1.914-0.48c0.66,0.396,0.875,1.252,0.479,1.914l1.796,1.075c0.396-0.661,1.252-0.876,1.913-0.48
				c0.661,0.396,0.876,1.252,0.48,1.914l1.795,1.075c0.396-0.661,1.253-0.876,1.914-0.48c0.661,0.396,0.876,1.252,0.479,1.914
				l1.796,1.075c0.396-0.661,1.253-0.876,1.913-0.48c0.661,0.396,0.876,1.253,0.48,1.914l1.795,1.075
				c0.396-0.661,1.253-0.876,1.914-0.48c0.661,0.396,0.876,1.253,0.48,1.914l1.795,1.075c0.396-0.661,1.253-0.876,1.914-0.48
				c0.66,0.396,0.875,1.253,0.479,1.914l1.796,1.075c0.396-0.661,1.252-0.876,1.913-0.48c0.661,0.396,0.876,1.253,0.48,1.914
				l1.795,1.075C2827.387,1976.499,2828.244,1976.284,2828.905,1976.68z"/>
			
				<rect id="XMLID_19_" x="2780.636" y="1889.97" transform="matrix(-0.5138 0.8579 -0.8579 -0.5138 5916.2651 489.7626)" fill="#EBE7DB" width="77.427" height="62.78"/>
			
				<rect id="XMLID_21_" x="2782.38" y="1891.713" transform="matrix(-0.5138 0.8579 -0.8579 -0.5138 5916.2642 489.7607)" fill="#CEC1B0" width="73.94" height="59.292"/>
		</g>
		<g id="XMLID_136_">
			<path id="XMLID_43_" fill="#231F20" d="M2786.762,1882.217c-1.264-0.756-2.511-1.573-3.732-2.455
				c-7.768-5.604-14.418-13.699-15.15-14.604c-1.824-2.252-2.74-3.621-4.007-5.516c-0.797-1.193-1.701-2.544-3.054-4.456
				c-7.401-10.454-11.115-15.7-16.269-19.872c-9.041-7.316-19.187-9.664-26.595-11.377l-0.2-0.047
				c-4.57-1.057-9.276-1.729-13.985-1.996l0.025-0.456c4.736,0.268,9.468,0.943,14.063,2.006l0.201,0.046
				c7.451,1.724,17.656,4.083,26.778,11.468c5.202,4.211,8.929,9.475,16.352,19.959c1.359,1.919,2.265,3.274,3.063,4.469
				c1.261,1.884,2.171,3.246,3.982,5.483c0.729,0.899,7.342,8.951,15.063,14.521c12.889,9.302,28.564,11.309,36.761,11.678
				l-0.021,0.457C2812.566,1891.189,2798.918,1889.498,2786.762,1882.217z"/>
			<path id="XMLID_42_" fill="#231F20" d="M2781.363,1891.231c-1.264-0.757-2.51-1.573-3.732-2.455
				c-7.768-5.604-14.418-13.699-15.15-14.604c-1.824-2.253-2.74-3.622-4.007-5.516c-0.797-1.193-1.701-2.544-3.054-4.456
				c-7.401-10.454-11.115-15.7-16.269-19.871c-9.04-7.317-19.187-9.665-26.595-11.378l-0.2-0.046
				c-4.57-1.057-9.276-1.729-13.985-1.996l0.025-0.456c4.736,0.268,9.468,0.943,14.063,2.007l0.201,0.046
				c7.451,1.724,17.656,4.084,26.778,11.468c5.203,4.211,8.929,9.475,16.352,19.96c1.359,1.919,2.265,3.273,3.063,4.468
				c1.261,1.885,2.171,3.247,3.982,5.483c0.729,0.9,7.342,8.951,15.063,14.521c12.889,9.302,28.565,11.308,36.762,11.677
				l-0.021,0.457C2807.168,1900.203,2793.52,1898.512,2781.363,1891.231z"/>
			<path id="XMLID_38_" fill="#231F20" d="M2775.965,1900.245c-1.264-0.756-2.51-1.573-3.732-2.455
				c-7.768-5.604-14.417-13.699-15.15-14.604c-1.824-2.252-2.739-3.622-4.006-5.516c-0.798-1.192-1.701-2.544-3.055-4.456
				c-7.401-10.454-11.115-15.7-16.269-19.872c-9.04-7.316-19.187-9.664-26.595-11.378l-0.199-0.046
				c-4.571-1.057-9.276-1.729-13.986-1.996l0.025-0.456c4.736,0.269,9.468,0.943,14.063,2.007l0.201,0.046
				c7.451,1.724,17.656,4.083,26.778,11.468c5.203,4.212,8.929,9.475,16.352,19.96c1.359,1.919,2.265,3.274,3.063,4.468
				c1.261,1.885,2.171,3.247,3.982,5.483c0.729,0.9,7.343,8.951,15.063,14.521c12.889,9.303,28.565,11.308,36.762,11.677
				l-0.021,0.457C2801.77,1909.217,2788.122,1907.526,2775.965,1900.245z"/>
			<path id="XMLID_35_" fill="#231F20" d="M2770.566,1909.259c-1.264-0.756-2.51-1.573-3.732-2.455
				c-7.768-5.604-14.417-13.699-15.15-14.604c-1.824-2.253-2.739-3.622-4.006-5.517c-0.798-1.192-1.701-2.544-3.055-4.456
				c-7.4-10.454-11.115-15.7-16.269-19.872c-9.04-7.316-19.186-9.664-26.595-11.377l-0.199-0.046
				c-4.571-1.058-9.276-1.729-13.986-1.996l0.025-0.456c4.736,0.268,9.468,0.943,14.063,2.006l0.2,0.046
				c7.451,1.724,17.656,4.083,26.779,11.468c5.202,4.211,8.928,9.475,16.352,19.959c1.358,1.92,2.264,3.274,3.063,4.469
				c1.261,1.885,2.172,3.246,3.982,5.483c0.729,0.9,7.343,8.951,15.063,14.521c12.889,9.303,28.565,11.308,36.762,11.677
				l-0.021,0.457C2796.372,1918.231,2782.724,1916.54,2770.566,1909.259z"/>
			<path id="XMLID_30_" fill="#231F20" d="M2765.168,1918.273c-1.264-0.756-2.51-1.573-3.732-2.455
				c-7.768-5.604-14.417-13.699-15.15-14.604c-1.824-2.253-2.739-3.622-4.006-5.516c-0.798-1.193-1.701-2.544-3.055-4.456
				c-7.4-10.454-11.114-15.7-16.269-19.872c-9.04-7.316-19.186-9.664-26.595-11.377l-0.199-0.046
				c-4.571-1.057-9.276-1.729-13.986-1.996l0.025-0.456c4.736,0.268,9.468,0.943,14.063,2.007l0.2,0.046
				c7.451,1.724,17.656,4.083,26.779,11.468c5.202,4.211,8.928,9.474,16.352,19.959c1.358,1.919,2.264,3.274,3.063,4.468
				c1.261,1.885,2.172,3.247,3.982,5.483c0.729,0.9,7.343,8.951,15.063,14.521c12.889,9.303,28.565,11.309,36.762,11.678
				l-0.021,0.456C2790.974,1927.245,2777.325,1925.554,2765.168,1918.273z"/>
			<path id="XMLID_20_" fill="#231F20" d="M2759.77,1927.287c-1.264-0.756-2.51-1.573-3.732-2.455
				c-7.768-5.604-14.417-13.699-15.149-14.604c-1.824-2.252-2.74-3.621-4.007-5.516c-0.797-1.192-1.701-2.544-3.055-4.456
				c-7.4-10.454-11.114-15.7-16.269-19.872c-9.04-7.316-19.186-9.664-26.594-11.377l-0.2-0.047
				c-4.57-1.057-9.276-1.729-13.986-1.996l0.025-0.456c4.736,0.268,9.468,0.943,14.063,2.006l0.2,0.046
				c7.452,1.724,17.656,4.083,26.779,11.468c5.202,4.211,8.929,9.474,16.352,19.959c1.359,1.919,2.264,3.274,3.063,4.468
				c1.26,1.885,2.171,3.247,3.981,5.483c0.729,0.899,7.343,8.951,15.063,14.521c12.888,9.304,28.565,11.309,36.762,11.678
				l-0.021,0.457C2785.575,1936.259,2771.928,1934.567,2759.77,1927.287z"/>
		</g>
	</g>
</g>
</svg>
