<?xml version="1.0" encoding="utf-8"?>
<!-- Generator: Adobe Illustrator 16.0.0, SVG Export Plug-In . SVG Version: 6.00 Build 0)  -->
<!DOCTYPE svg PUBLIC "-//W3C//DTD SVG 1.1//EN" "http://www.w3.org/Graphics/SVG/1.1/DTD/svg11.dtd">
<svg version="1.1" id="Layer_1" xmlns="http://www.w3.org/2000/svg" xmlns:xlink="http://www.w3.org/1999/xlink" x="0px" y="0px"
	 width="551.133px" height="1071.896px" viewBox="0 0 551.133 1071.896" enable-background="new 0 0 551.133 1071.896"
	 xml:space="preserve">
<g>
	<path fill="#BBD9E8" d="M252.771,1066.234c-6.461-7.086-5.955-18.068,1.129-24.531c3.631-3.348,89.031-83.877,30.604-188.148
		c-57.759-103.072-25.604-162.674-24.207-165.158l30.274,17.006l0.127-0.234c-0.973,1.873-23.312,46.801,24.101,131.412
		c37.698,67.273,25.424,126.627,8.491,164.57c-18.049,40.455-44.854,65.178-45.989,66.209
		C270.218,1073.826,259.235,1073.32,252.771,1066.234z"/>
	<path fill="#429CD6" d="M511.319,474.161C463.09,564.764,375.487,625.33,275.431,625.33c-152.113,0-275.43-139.986-275.43-312.667
		C0.003,139.984,123.318,0,275.431,0c192.771,0,325.928,219.618,257.531,423.771"/>
	<path fill="#1F93CD" d="M519.593,454.892c-97.801,90.852-238.604,139.61-349.604,80.61c-70.076-37.249-125.308-118.53-129-233
		c-4-124,93.348-232.239,143.944-285.209C77.276,59.795,0,175.979,0,312.667c0,159.954,105.815,291.835,242.312,310.408
		l-12.176,60.508c-2.982,14.779,3.42,21.424,15.404,21.424h66.754c9.498,0,15.754-6.352,13.188-19.891l-11.887-62.793
		C405.224,607.885,482.007,542.428,519.593,454.892z"/>
</g>
<path fill="#FFFFFF" d="M351.449,184.957c-35.46,0.537-63.398,31.161-63.398,66.624v8.596
	c-63.401-11.283-94.563-28.477-128.95-64.475c-20.417,39.76,2.148,73.072,26.865,91.34c-16.658,0-30.627-2.15-41.372-11.821
	c-1.073-0.538-2.148,0-1.613,1.076c9.136,33.311,40.298,57.489,64.476,64.474c-22.03,0-36.535,3.223-52.118-6.448
	c-1.073-0.536-2.147,0-1.611,1.075c11.82,32.774,35.461,42.98,69.849,42.98c-17.193,12.897-40.297,25.793-83.817,26.865
	c-1.611,0-2.686,2.15-1.074,3.225c16.118,13.432,55.877,23.641,111.754,23.641c91.877,0,166.56-81.668,166.56-182.678v-5.373
	c14.508-5.372,22.566-18.267,26.865-31.162c0-0.536-0.537-1.074-1.074-1.074l-30.625,10.746c-0.539,0-1.075-1.074-0.539-1.612
	c12.896-10.208,22.568-23.104,26.866-35.461c0,0-0.536-0.537-1.076-0.537c-14.505,5.909-28.476,11.819-39.223,15.044
	c-1.611,0.536-3.759,0.536-5.372-0.539C385.835,195.702,364.882,184.957,351.449,184.957"/>
</svg>
